<?xml version="1.0" encoding="UTF-8" standalone="no"?>
<!-- Created with Inkscape (http://www.inkscape.org/) -->

<svg
   xmlns:dc="http://purl.org/dc/elements/1.1/"
   xmlns:cc="http://creativecommons.org/ns#"
   xmlns:rdf="http://www.w3.org/1999/02/22-rdf-syntax-ns#"
   xmlns:svg="http://www.w3.org/2000/svg"
   xmlns="http://www.w3.org/2000/svg"
   xmlns:sodipodi="http://sodipodi.sourceforge.net/DTD/sodipodi-0.dtd"
   xmlns:inkscape="http://www.inkscape.org/namespaces/inkscape"
   width="11.906314mm"
   height="7.2760415mm"
   viewBox="0 0 11.906314 7.2760415"
   version="1.1"
   id="svg8"
   inkscape:version="0.92.2 (5c3e80d, 2017-08-06)">
  <defs
     id="defs2" />
  <sodipodi:namedview
     id="base"
     pagecolor="#ffffff"
     bordercolor="#666666"
     borderopacity="1.0"
     inkscape:pageopacity="0.0"
     inkscape:pageshadow="2"
     inkscape:zoom="0.7"
     inkscape:cx="43.21441"
     inkscape:cy="108.39286"
     inkscape:document-units="mm"
     inkscape:current-layer="layer1"
     showgrid="false"
     fit-margin-top="0"
     fit-margin-left="0"
     fit-margin-right="0"
     fit-margin-bottom="0"
     inkscape:window-width="1920"
     inkscape:window-height="1001"
     inkscape:window-x="-9"
     inkscape:window-y="-9"
     inkscape:window-maximized="1" />
  <metadata
     id="metadata5">
    <rdf:RDF>
      <cc:Work
         rdf:about="">
        <dc:format>image/svg+xml</dc:format>
        <dc:type
           rdf:resource="http://purl.org/dc/dcmitype/StillImage" />
        <dc:title></dc:title>
      </cc:Work>
    </rdf:RDF>
  </metadata>
  <g
     inkscape:label="Layer 1"
     inkscape:groupmode="layer"
     id="layer1"
     transform="translate(102.62058,-67.568453)">
    <circle
       style="display:inline;fill:#556351;fill-opacity:0;stroke:#ffffff;stroke-width:0.26458332;stroke-linecap:round;stroke-miterlimit:4;stroke-dasharray:none;stroke-dashoffset:0;stroke-opacity:1"
       id="path9811-7-8-9-0"
       cx="-79.611259"
       cy="208.41183"
       r="3.5057292" />
    <path
       style="display:inline;fill:#ffffff;fill-opacity:1;stroke:#f8f8f8;stroke-width:0.25596273px;stroke-linecap:butt;stroke-linejoin:miter;stroke-opacity:1"
       d="m -87.879467,207.41958 h 4.82865 v 0"
       id="path1877-5-3"
       inkscape:connector-curvature="0" />
    <path
       style="display:inline;fill:#ffffff;fill-opacity:1;stroke:#ffffff;stroke-width:0.25596273px;stroke-linecap:butt;stroke-linejoin:miter;stroke-opacity:1"
       d="m -87.879437,209.40397 h 4.82865 v 0"
       id="path1877-7-8-2"
       inkscape:connector-curvature="0" />
    <path
       style="display:inline;fill:#ffffff;fill-opacity:1;stroke:none;stroke-width:0.26458332px;stroke-linecap:butt;stroke-linejoin:miter;stroke-opacity:1"
       d="m -79.686387,207.28175 c -0.14035,-0.003 -1.2271,0.0686 -1.17512,1.37975 0.0237,0.60105 0.60941,0.98126 1.22214,0.98236 0.66057,0 0.95292,-0.47331 0.95292,-0.47331 l -0.35088,-0.38605 c -0.49694,0.64897 -1.23921,0.18144 -1.22163,-0.0992 l 1.64846,0.0113 c 0.0935,-1.28625 -0.93557,-1.41198 -1.07589,-1.41492 z m -0.0408,0.50901 c 0,0 0.49691,-1.4e-4 0.56123,0.41498 h -1.11675 c 0.0994,-0.44436 0.55552,-0.41498 0.55552,-0.41498 z"
       id="path2006-8"
       inkscape:connector-curvature="0" />
    <circle
       style="display:inline;fill:#ffffff;fill-opacity:0.17647059;stroke:#ffffff;stroke-width:0.26458332;stroke-linecap:round;stroke-miterlimit:4;stroke-dasharray:none;stroke-dashoffset:0;stroke-opacity:1"
       id="path9811-7-8-9"
       cx="-94.352287"
       cy="71.206474"
       r="3.5057292" />
    <path
       style="display:inline;fill:#ffffff;fill-opacity:1;stroke:#f8f8f8;stroke-width:0.25596273px;stroke-linecap:butt;stroke-linejoin:miter;stroke-opacity:1"
       d="m -102.62058,70.214227 h 4.828646 v 0"
       id="path1877-5"
       inkscape:connector-curvature="0" />
    <path
       style="display:inline;fill:#ffffff;fill-opacity:1;stroke:#ffffff;stroke-width:0.25596273px;stroke-linecap:butt;stroke-linejoin:miter;stroke-opacity:1"
       d="m -102.62055,72.198617 h 4.828646 v 0"
       id="path1877-7-8"
       inkscape:connector-curvature="0" />
    <path
       style="display:inline;fill:#ffffff;fill-opacity:1;stroke:none;stroke-width:0.26458332px;stroke-linecap:butt;stroke-linejoin:miter;stroke-opacity:1"
       d="m -94.427504,70.076387 c -0.14035,-0.003 -1.2271,0.0686 -1.17512,1.37976 0.0237,0.60105 0.60941,0.98126 1.22214,0.98236 0.66057,0 0.95292,-0.47332 0.95292,-0.47332 l -0.35088,-0.38605 c -0.49694,0.64897 -1.23921,0.18144 -1.22163,-0.0992 l 1.64846,0.0113 c 0.0935,-1.28626 -0.93557,-1.41199 -1.07589,-1.41492 z m -0.0408,0.50902 c 0,0 0.49691,-1.4e-4 0.56123,0.41498 h -1.11675 c 0.0994,-0.44436 0.55552,-0.41498 0.55552,-0.41498 z"
       id="path2006"
       inkscape:connector-curvature="0" />
  </g>
</svg>
