<?xml version="1.0" encoding="UTF-8" standalone="no"?>
<!-- Created with Inkscape (http://www.inkscape.org/) -->

<svg
   xmlns:dc="http://purl.org/dc/elements/1.1/"
   xmlns:cc="http://creativecommons.org/ns#"
   xmlns:rdf="http://www.w3.org/1999/02/22-rdf-syntax-ns#"
   xmlns:svg="http://www.w3.org/2000/svg"
   xmlns="http://www.w3.org/2000/svg"
   xmlns:sodipodi="http://sodipodi.sourceforge.net/DTD/sodipodi-0.dtd"
   xmlns:inkscape="http://www.inkscape.org/namespaces/inkscape"
   width="54.619091mm"
   height="14.022917mm"
   viewBox="0 0 54.619091 14.022917"
   version="1.1"
   id="svg8"
   inkscape:version="0.92.2 (5c3e80d, 2017-08-06)"
   sodipodi:docname="add_plant_1_button.svg">
  <defs
     id="defs2" />
  <sodipodi:namedview
     id="base"
     pagecolor="#ffffff"
     bordercolor="#666666"
     borderopacity="1.0"
     inkscape:pageopacity="0.0"
     inkscape:pageshadow="2"
     inkscape:zoom="0.7"
     inkscape:cx="-42.016223"
     inkscape:cy="-37.721474"
     inkscape:document-units="mm"
     inkscape:current-layer="layer1"
     showgrid="false"
     fit-margin-top="0"
     fit-margin-left="0"
     fit-margin-right="0"
     fit-margin-bottom="0"
     inkscape:window-width="1920"
     inkscape:window-height="1001"
     inkscape:window-x="-9"
     inkscape:window-y="-9"
     inkscape:window-maximized="1" />
  <metadata
     id="metadata5">
    <rdf:RDF>
      <cc:Work
         rdf:about="">
        <dc:format>image/svg+xml</dc:format>
        <dc:type
           rdf:resource="http://purl.org/dc/dcmitype/StillImage" />
        <dc:title></dc:title>
      </cc:Work>
    </rdf:RDF>
  </metadata>
  <g
     inkscape:label="Layer 1"
     inkscape:groupmode="layer"
     id="layer1"
     transform="translate(79.597496,-124.82995)">
    <rect
       style="display:inline;opacity:1;vector-effect:none;fill:#6d5735;fill-opacity:1;stroke:none;stroke-width:0.08272292;stroke-linecap:butt;stroke-linejoin:miter;stroke-miterlimit:4;stroke-dasharray:none;stroke-dashoffset:0;stroke-opacity:1;paint-order:normal"
       id="rect3489-9-5-7"
       width="54.474812"
       height="14.022917"
       x="-79.597496"
       y="124.82995"
       ry="2.4615896" />
    <rect
       style="display:inline;opacity:1;vector-effect:none;fill:#000000;fill-opacity:0.11304351;stroke:none;stroke-width:0.07730301;stroke-linecap:butt;stroke-linejoin:miter;stroke-miterlimit:4;stroke-dasharray:none;stroke-dashoffset:0;stroke-opacity:1;paint-order:normal"
       id="rect3489-4-3-4-2"
       width="54.474812"
       height="12.245579"
       x="-79.453217"
       y="124.85834"
       ry="2.1495943" />
    <text
       xml:space="preserve"
       style="font-style:normal;font-variant:normal;font-weight:bold;font-stretch:normal;font-size:7.55952406px;line-height:0;font-family:Montserrat;-inkscape-font-specification:'Montserrat Bold';letter-spacing:0px;word-spacing:0px;display:inline;fill:#000000;fill-opacity:1;stroke:none;stroke-width:0.1889881"
       x="-58.359035"
       y="132.49803"
       id="text3063-9-9-5-8"><tspan
         sodipodi:role="line"
         id="tspan3061-6-7-8-9"
         x="-58.359035"
         y="132.49803"
         style="font-size:3.52777863px;fill:#ffffff;fill-opacity:1;stroke-width:0.1889881">Add plant 1</tspan></text>
    <path
       style="display:inline;fill:#000000;fill-opacity:0.16231887;stroke:none;stroke-width:0.16204268px;stroke-linecap:butt;stroke-linejoin:miter;stroke-opacity:1"
       d="m -70.520267,131.88278 c -3.838476,-0.6875 -5.098881,-3.43744 -5.098881,-3.43744 0,0 3.49473,-0.6875 5.729084,2.3489 0.05732,-3.20827 3.637957,-4.01035 3.637957,-4.01035 0,0 -0.315073,3.09372 -2.262971,4.58327 3.208274,0 3.695249,2.95049 3.695249,2.95049 0,0 -2.835882,0.7734 -4.26816,-1.97655 -0.572911,2.97911 -3.322884,3.92442 -3.322884,3.92442 0.143256,-1.57551 0,-2.77862 1.890606,-4.38274 z"
       id="path2505-4-33"
       inkscape:connector-curvature="0"
       sodipodi:nodetypes="ccccccccc" />
    <path
       style="display:inline;fill:#438035;fill-opacity:1;stroke:none;stroke-width:0.16204266px;stroke-linecap:butt;stroke-linejoin:miter;stroke-opacity:1"
       d="m -70.111355,131.54479 c -3.838448,-0.6875 -5.098881,-3.43744 -5.098881,-3.43744 0,0 3.494758,-0.6875 5.729083,2.34891 0.05732,-3.20831 3.637958,-4.01035 3.637958,-4.01035 0,0 -0.315073,3.09372 -2.262971,4.58326 3.208302,0 3.695249,2.95049 3.695249,2.95049 0,0 -2.835882,0.7734 -4.26816,-1.97654 -0.572911,2.9791 -3.322856,3.92441 -3.322856,3.92441 0.143227,-1.57551 0,-2.77862 1.890578,-4.38274 z"
       id="path2505-7"
       inkscape:connector-curvature="0"
       sodipodi:nodetypes="ccccccccc" />
    <path
       style="display:inline;fill:#000000;fill-opacity:0.15652173;stroke:none;stroke-width:0.13991226px;stroke-linecap:butt;stroke-linejoin:miter;stroke-opacity:1"
       d="m -70.64419,131.37537 c -2.248493,-2.50622 -1.646485,-5.04783 -1.646485,-5.04783 0,0 2.74447,1.38755 2.653538,4.64129 1.742497,-2.15398 4.606319,-0.79883 4.606319,-0.79883 0,0 -1.85722,1.93912 -3.974339,1.91902 2.1844,1.7035 0.949311,3.97096 0.949311,3.97096 0,0 -2.341541,-0.9792 -1.856542,-3.61205 -1.971915,1.72418 -4.346194,0.90768 -4.346194,0.90768 0.934071,-0.99667 1.475373,-1.89188 3.614392,-1.98024 z"
       id="path2505-3-2-0-6"
       inkscape:connector-curvature="0"
       sodipodi:nodetypes="ccccccccc" />
    <path
       style="display:inline;fill:#42a331;fill-opacity:1;stroke:none;stroke-width:0.13991226px;stroke-linecap:butt;stroke-linejoin:miter;stroke-opacity:1"
       d="m -70.143246,131.20429 c -2.248493,-2.50619 -1.646485,-5.0478 -1.646485,-5.0478 0,0 2.744471,1.38751 2.65351,4.64125 1.742525,-2.15397 4.606347,-0.79883 4.606347,-0.79883 0,0 -1.85722,1.9391 -3.974366,1.91903 2.1844,1.70349 0.949339,3.97095 0.949339,3.97095 0,0 -2.341542,-0.9792 -1.856543,-3.61205 -1.971915,1.72418 -4.346194,0.90766 -4.346194,0.90766 0.934071,-0.99664 1.475345,-1.89185 3.614392,-1.98021 z"
       id="path2505-3-3"
       inkscape:connector-curvature="0"
       sodipodi:nodetypes="ccccccccc" />
    <text
       xml:space="preserve"
       style="font-style:normal;font-variant:normal;font-weight:bold;font-stretch:normal;font-size:5.30526066px;line-height:0;font-family:Montserrat;-inkscape-font-specification:'Montserrat Bold';letter-spacing:0px;word-spacing:0px;display:inline;fill:#000000;fill-opacity:1;stroke:none;stroke-width:0.13263153"
       x="-70.144981"
       y="133.23625"
       id="text3063-4"><tspan
         sodipodi:role="line"
         id="tspan3061-7"
         x="-70.144981"
         y="133.23625"
         style="fill:#ffffff;fill-opacity:1;stroke-width:0.13263153">1</tspan></text>
  </g>
</svg>
