<?xml version="1.0" encoding="UTF-8" standalone="no"?>
<!-- Created with Inkscape (http://www.inkscape.org/) -->

<svg
   xmlns:dc="http://purl.org/dc/elements/1.1/"
   xmlns:cc="http://creativecommons.org/ns#"
   xmlns:rdf="http://www.w3.org/1999/02/22-rdf-syntax-ns#"
   xmlns:svg="http://www.w3.org/2000/svg"
   xmlns="http://www.w3.org/2000/svg"
   xmlns:sodipodi="http://sodipodi.sourceforge.net/DTD/sodipodi-0.dtd"
   xmlns:inkscape="http://www.inkscape.org/namespaces/inkscape"
   width="16.738371mm"
   height="17.9622mm"
   viewBox="0 0 16.738372 17.9622"
   version="1.1"
   id="svg8"
   inkscape:version="0.92.2 (5c3e80d, 2017-08-06)"
   sodipodi:docname="plant_model_0.svg">
  <defs
     id="defs2" />
  <sodipodi:namedview
     id="base"
     pagecolor="#ffffff"
     bordercolor="#666666"
     borderopacity="1.0"
     inkscape:pageopacity="0.0"
     inkscape:pageshadow="2"
     inkscape:zoom="1.979899"
     inkscape:cx="-78.427583"
     inkscape:cy="104.91206"
     inkscape:document-units="mm"
     inkscape:current-layer="layer1"
     showgrid="false"
     fit-margin-top="0"
     fit-margin-left="0"
     fit-margin-right="0"
     fit-margin-bottom="0"
     inkscape:window-width="1920"
     inkscape:window-height="1001"
     inkscape:window-x="-9"
     inkscape:window-y="-9"
     inkscape:window-maximized="1"
     showguides="true"
     inkscape:guide-bbox="true" />
  <metadata
     id="metadata5">
    <rdf:RDF>
      <cc:Work
         rdf:about="">
        <dc:format>image/svg+xml</dc:format>
        <dc:type
           rdf:resource="http://purl.org/dc/dcmitype/StillImage" />
        <dc:title />
      </cc:Work>
    </rdf:RDF>
  </metadata>
  <g
     inkscape:label="Layer 1"
     inkscape:groupmode="layer"
     id="layer1"
     transform="translate(-130.74654,-175.77697)">
    <path
       style="display:inline;fill:#000000;fill-opacity:0.16231887;stroke:none;stroke-width:0.2308964px;stroke-linecap:butt;stroke-linejoin:miter;stroke-opacity:1"
       d="m 137.41925,185.07978 c -2.29001,-5.06265 -0.0776,-8.76193 -0.0776,-8.76193 0,0 3.62746,3.54945 1.86447,8.62364 3.81407,-2.52157 7.6454,1.03632 7.6454,1.03632 0,0 -3.88752,2.1264 -7.20869,1.04078 2.58891,3.76781 -0.48319,6.72058 -0.48319,6.72058 0,0 -3.1967,-2.70637 -1.12293,-6.60747 -3.96096,1.73115 -7.29017,-0.73561 -7.29017,-0.73561 1.96585,-1.10309 3.26319,-2.24217 6.67267,-1.31631 z"
       id="path2505-4-8-9-2-0-1-3"
       inkscape:connector-curvature="0"
       sodipodi:nodetypes="ccccccccc" />
    <path
       style="display:inline;fill:#8caa47;fill-opacity:1;stroke:none;stroke-width:0.2308964px;stroke-linecap:butt;stroke-linejoin:miter;stroke-opacity:1"
       d="m 138.05261,184.5389 c -2.29001,-5.06264 -0.0776,-8.76193 -0.0776,-8.76193 0,0 3.62745,3.54945 1.8645,8.62364 3.81406,-2.52157 7.6454,1.03632 7.6454,1.03632 0,0 -3.88753,2.1264 -7.20866,1.04081 2.58888,3.76778 -0.48323,6.72056 -0.48323,6.72056 0,0 -3.1967,-2.70637 -1.12293,-6.60748 -3.96096,1.73116 -7.29017,-0.73561 -7.29017,-0.73561 1.96582,-1.10309 3.2632,-2.24217 6.67267,-1.31631 z"
       id="path2505-47-9-0-7-8-5"
       inkscape:connector-curvature="0"
       sodipodi:nodetypes="ccccccccc" />
    <path
       style="display:inline;fill:#000000;fill-opacity:0.15652173;stroke:none;stroke-width:0.19936253px;stroke-linecap:butt;stroke-linejoin:miter;stroke-opacity:1"
       d="m 137.91514,184.52479 c 1.12891,-4.66299 4.59957,-6.00693 4.59957,-6.00693 0,0 0.5851,4.34278 -3.30948,6.86155 3.93573,0.30825 4.6552,4.7651 4.6552,4.7651 0,0 -3.77596,-0.6164 -5.46077,-3.11898 -0.23792,3.93999 -3.89744,4.31927 -3.89744,4.31927 0,0 -0.73953,-3.54008 2.74385,-5.0951 -3.61611,-0.92447 -4.5731,-4.3717 -4.5731,-4.3717 1.92422,0.29272 3.41232,0.20605 5.24217,2.64679 z"
       id="path2505-3-2-8-4-9-7-0-2"
       inkscape:connector-curvature="0"
       sodipodi:nodetypes="ccccccccc" />
    <path
       style="display:inline;fill:#8bc848;fill-opacity:1;stroke:none;stroke-width:0.19936253px;stroke-linecap:butt;stroke-linejoin:miter;stroke-opacity:1"
       d="m 138.42675,184.22668 c 1.12889,-4.66296 4.59952,-6.00693 4.59952,-6.00693 0,0 0.58513,4.34278 -3.30945,6.86155 3.93573,0.30825 4.6552,4.76507 4.6552,4.76507 0,0 -3.77594,-0.61637 -5.46078,-3.11895 -0.23788,3.93999 -3.89743,4.31924 -3.89743,4.31924 0,0 -0.73951,-3.54005 2.74385,-5.09507 -3.61609,-0.9245 -4.5731,-4.37173 -4.5731,-4.37173 1.92422,0.29274 3.41235,0.20605 5.24219,2.64682 z"
       id="path2505-3-6-3-3-8-4-27"
       inkscape:connector-curvature="0"
       sodipodi:nodetypes="ccccccccc" />
  </g>
</svg>
