<?xml version="1.0" encoding="UTF-8" standalone="no"?>
<!-- Created with Inkscape (http://www.inkscape.org/) -->

<svg
   xmlns:dc="http://purl.org/dc/elements/1.1/"
   xmlns:cc="http://creativecommons.org/ns#"
   xmlns:rdf="http://www.w3.org/1999/02/22-rdf-syntax-ns#"
   xmlns:svg="http://www.w3.org/2000/svg"
   xmlns="http://www.w3.org/2000/svg"
   xmlns:sodipodi="http://sodipodi.sourceforge.net/DTD/sodipodi-0.dtd"
   xmlns:inkscape="http://www.inkscape.org/namespaces/inkscape"
   width="207.22815mm"
   height="222.97574mm"
   viewBox="0 0 207.22815 222.97574"
   version="1.1"
   id="svg8"
   inkscape:version="0.92.2 (5c3e80d, 2017-08-06)"
   sodipodi:docname="simulation_background_ancestors.svg">
  <defs
     id="defs2" />
  <sodipodi:namedview
     id="base"
     pagecolor="#ffffff"
     bordercolor="#666666"
     borderopacity="1.0"
     inkscape:pageopacity="0.0"
     inkscape:pageshadow="2"
     inkscape:zoom="0.98994949"
     inkscape:cx="415.59155"
     inkscape:cy="420.14846"
     inkscape:document-units="mm"
     inkscape:current-layer="layer1"
     showgrid="false"
     fit-margin-top="0"
     fit-margin-left="0"
     fit-margin-right="0"
     fit-margin-bottom="0"
     inkscape:window-width="1920"
     inkscape:window-height="1001"
     inkscape:window-x="-9"
     inkscape:window-y="-9"
     inkscape:window-maximized="1" />
  <metadata
     id="metadata5">
    <rdf:RDF>
      <cc:Work
         rdf:about="">
        <dc:format>image/svg+xml</dc:format>
        <dc:type
           rdf:resource="http://purl.org/dc/dcmitype/StillImage" />
        <dc:title></dc:title>
      </cc:Work>
    </rdf:RDF>
  </metadata>
  <g
     inkscape:label="Layer 1"
     inkscape:groupmode="layer"
     id="layer1"
     transform="translate(-18.055346,-59.145561)">
    <rect
       style="display:inline;opacity:1;vector-effect:none;fill:#8a6e43;fill-opacity:1;stroke:none;stroke-width:0.12514912;stroke-linecap:butt;stroke-linejoin:miter;stroke-miterlimit:4;stroke-dasharray:none;stroke-dashoffset:0;stroke-opacity:1;paint-order:normal"
       id="rect2494-9"
       width="207.22815"
       height="219.94055"
       x="18.055346"
       y="59.145561"
       ry="6.7672701" />
    <path
       style="display:inline;fill:#838383;fill-opacity:1;stroke:none;stroke-width:0.26458332px;stroke-linecap:butt;stroke-linejoin:miter;stroke-opacity:1"
       d="m 75.844754,183.03962 3.92888,-2.80633 1.12251,2.80633 -1.3096,1.87088 z"
       id="path3671-7"
       inkscape:connector-curvature="0" />
    <path
       style="display:inline;fill:#838383;fill-opacity:1;stroke:none;stroke-width:0.16397721px;stroke-linecap:butt;stroke-linejoin:miter;stroke-opacity:1"
       d="m 77.680644,184.69881 2.69626,1.29771 -1.18993,1.4467 -1.40696,-0.15361 z"
       id="path3671-5-3"
       inkscape:connector-curvature="0" />
    <path
       style="display:inline;fill:#838383;fill-opacity:1;stroke:none;stroke-width:0.16397721px;stroke-linecap:butt;stroke-linejoin:miter;stroke-opacity:1"
       d="m 82.272684,183.73541 2.08181,0.36881 -1.67268,2.09477 -1.94008,-1.45723 z"
       id="path3671-5-2-0"
       inkscape:connector-curvature="0"
       sodipodi:nodetypes="ccccc" />
    <path
       style="display:inline;fill:#838383;fill-opacity:1;stroke:none;stroke-width:0.26458332px;stroke-linecap:butt;stroke-linejoin:miter;stroke-opacity:1"
       d="m 139.79084,246.16447 4.7667,0.76815 -1.17568,2.78446 -2.24677,0.40897 z"
       id="path3671-6-7"
       inkscape:connector-curvature="0" />
    <path
       style="display:inline;fill:#838383;fill-opacity:1;stroke:none;stroke-width:0.16397721px;stroke-linecap:butt;stroke-linejoin:miter;stroke-opacity:1"
       d="m 139.92907,248.63515 1.00409,2.81881 -1.86337,0.19157 -0.89219,-1.09872 z"
       id="path3671-5-1-6"
       inkscape:connector-curvature="0" />
    <path
       style="display:inline;fill:#838383;fill-opacity:1;stroke:none;stroke-width:0.16397721px;stroke-linecap:butt;stroke-linejoin:miter;stroke-opacity:1"
       d="m 143.87107,251.17984 1.22058,1.7263 -2.66234,0.31278 -0.35433,-2.40038 z"
       id="path3671-5-2-3-6"
       inkscape:connector-curvature="0"
       sodipodi:nodetypes="ccccc" />
    <path
       style="display:inline;fill:#838383;fill-opacity:1;stroke:none;stroke-width:0.26458332px;stroke-linecap:butt;stroke-linejoin:miter;stroke-opacity:1"
       d="m 165.93023,105.96103 2.83117,3.91101 -2.79913,1.14029 -1.87915,-1.29771 z"
       id="path3671-6-2-2"
       inkscape:connector-curvature="0"
       inkscape:transform-center-x="-7.304"
       inkscape:transform-center-y="-15.5138" />
    <path
       style="display:inline;fill:#838383;fill-opacity:1;stroke:none;stroke-width:0.16397721px;stroke-linecap:butt;stroke-linejoin:miter;stroke-opacity:1"
       d="m 164.2827,107.80742 -1.28058,2.70442 -1.4542,-1.18073 0.14466,-1.40793 z"
       id="path3671-5-1-8-6"
       inkscape:connector-curvature="0"
       inkscape:transform-center-x="5.1222"
       inkscape:transform-center-y="-13.12935" />
    <path
       style="display:inline;fill:#838383;fill-opacity:1;stroke:none;stroke-width:0.16397721px;stroke-linecap:butt;stroke-linejoin:miter;stroke-opacity:1"
       d="m 165.2752,112.39325 -0.3556,2.08409 -2.10533,-1.65935 1.4449,-1.94928 z"
       id="path3671-5-2-3-3-0"
       inkscape:connector-curvature="0"
       sodipodi:nodetypes="ccccc"
       inkscape:transform-center-x="1.1203"
       inkscape:transform-center-y="-0.68030002" />
    <rect
       style="display:inline;opacity:1;vector-effect:none;fill:#614d2f;fill-opacity:1;stroke:none;stroke-width:0.05772593;stroke-linecap:butt;stroke-linejoin:miter;stroke-miterlimit:4;stroke-dasharray:none;stroke-dashoffset:0;stroke-opacity:1;paint-order:normal"
       id="rect3489-4-8-5-4"
       width="55.608585"
       height="6.6893277"
       x="95.6371"
       y="275.43198"
       ry="3.3446636" />
    <text
       xml:space="preserve"
       style="font-style:normal;font-variant:normal;font-weight:bold;font-stretch:normal;font-size:7.55952406px;line-height:0;font-family:Montserrat;-inkscape-font-specification:'Montserrat Bold';letter-spacing:0px;word-spacing:0px;display:inline;fill:#000000;fill-opacity:1;stroke:none;stroke-width:0.1889881"
       x="102.21407"
       y="279.67618"
       id="text3063-9-0"><tspan
         sodipodi:role="line"
         id="tspan3061-6-2"
         x="102.21407"
         y="279.67618"
         style="font-size:3.52777815px;fill:#ffffff;fill-opacity:1;stroke-width:0.1889881">random mutations on</tspan></text>
    <rect
       style="display:inline;opacity:1;vector-effect:none;fill:#ffffff;fill-opacity:0.16811595;stroke:none;stroke-width:0.07053804;stroke-linecap:butt;stroke-linejoin:miter;stroke-miterlimit:4;stroke-dasharray:none;stroke-dashoffset:0;stroke-opacity:1;paint-order:normal"
       id="rect2550"
       width="21.702223"
       height="162.39307"
       x="174.31122"
       y="111.26725"
       ry="5.0416012" />
    <g
       aria-label="POOL"
       transform="matrix(0.26458333,0,0,0.26458333,-1592.676,-1404.1384)"
       style="font-style:normal;font-variant:normal;font-weight:300;font-stretch:normal;font-size:16px;line-height:1;font-family:Montserrat;-inkscape-font-specification:'Montserrat Light';text-align:center;letter-spacing:0px;word-spacing:0px;text-anchor:middle;display:inline;fill:#f4f4f4;fill-opacity:0.9362319;stroke:none"
       id="flowRoot2193-2-4-7-5">
      <path
         d="m 6701.1666,5706.5284 q 1.8134,0 2.8534,0.8667 1.04,0.8666 1.04,2.3866 0,1.52 -1.04,2.3867 -1.04,0.8667 -2.8534,0.8667 h -2.3066 v 2.8266 h -1.3334 v -9.3333 z m -0.04,5.3467 q 1.2667,0 1.9334,-0.5334 0.6666,-0.5466 0.6666,-1.56 0,-1.0133 -0.6666,-1.5466 -0.6667,-0.5467 -1.9334,-0.5467 h -2.2666 v 4.1867 z"
         style="font-style:normal;font-variant:normal;font-weight:500;font-stretch:normal;font-size:13.33333302px;line-height:1;font-family:Montserrat;-inkscape-font-specification:'Montserrat Medium';text-align:center;text-anchor:middle;fill:#f4f4f4;fill-opacity:0.9362319"
         id="path1802" />
      <path
         d="m 6711.3754,5715.9684 q -1.4134,0 -2.5467,-0.6133 -1.1333,-0.6267 -1.7867,-1.72 -0.64,-1.0934 -0.64,-2.44 0,-1.3467 0.64,-2.44 0.6534,-1.0934 1.7867,-1.7067 1.1333,-0.6267 2.5467,-0.6267 1.4,0 2.5333,0.6267 1.1333,0.6133 1.7733,1.7067 0.64,1.08 0.64,2.44 0,1.36 -0.64,2.4533 -0.64,1.08 -1.7733,1.7067 -1.1333,0.6133 -2.5333,0.6133 z m 0,-1.1867 q 1.0266,0 1.84,-0.4666 0.8266,-0.4667 1.2933,-1.28 0.48,-0.8267 0.48,-1.84 0,-1.0134 -0.48,-1.8267 -0.4667,-0.8267 -1.2933,-1.2933 -0.8134,-0.4667 -1.84,-0.4667 -1.0267,0 -1.8667,0.4667 -0.8267,0.4666 -1.3067,1.2933 -0.4666,0.8133 -0.4666,1.8267 0,1.0133 0.4666,1.84 0.48,0.8133 1.3067,1.28 0.84,0.4666 1.8667,0.4666 z"
         style="font-style:normal;font-variant:normal;font-weight:500;font-stretch:normal;font-size:13.33333302px;line-height:1;font-family:Montserrat;-inkscape-font-specification:'Montserrat Medium';text-align:center;text-anchor:middle;fill:#f4f4f4;fill-opacity:0.9362319"
         id="path1804" />
      <path
         d="m 6722.5733,5715.9684 q -1.4133,0 -2.5467,-0.6133 -1.1333,-0.6267 -1.7866,-1.72 -0.64,-1.0934 -0.64,-2.44 0,-1.3467 0.64,-2.44 0.6533,-1.0934 1.7866,-1.7067 1.1334,-0.6267 2.5467,-0.6267 1.4,0 2.5333,0.6267 1.1334,0.6133 1.7734,1.7067 0.64,1.08 0.64,2.44 0,1.36 -0.64,2.4533 -0.64,1.08 -1.7734,1.7067 -1.1333,0.6133 -2.5333,0.6133 z m 0,-1.1867 q 1.0267,0 1.84,-0.4666 0.8267,-0.4667 1.2933,-1.28 0.48,-0.8267 0.48,-1.84 0,-1.0134 -0.48,-1.8267 -0.4666,-0.8267 -1.2933,-1.2933 -0.8133,-0.4667 -1.84,-0.4667 -1.0267,0 -1.8667,0.4667 -0.8266,0.4666 -1.3066,1.2933 -0.4667,0.8133 -0.4667,1.8267 0,1.0133 0.4667,1.84 0.48,0.8133 1.3066,1.28 0.84,0.4666 1.8667,0.4666 z"
         style="font-style:normal;font-variant:normal;font-weight:500;font-stretch:normal;font-size:13.33333302px;line-height:1;font-family:Montserrat;-inkscape-font-specification:'Montserrat Medium';text-align:center;text-anchor:middle;fill:#f4f4f4;fill-opacity:0.9362319"
         id="path1806" />
      <path
         d="m 6729.5579,5706.5284 h 1.3333 v 8.1733 h 5.0533 v 1.16 h -6.3866 z"
         style="font-style:normal;font-variant:normal;font-weight:500;font-stretch:normal;font-size:13.33333302px;line-height:1;font-family:Montserrat;-inkscape-font-specification:'Montserrat Medium';text-align:center;text-anchor:middle;fill:#f4f4f4;fill-opacity:0.9362319"
         id="path1808" />
    </g>
    <rect
       style="display:inline;opacity:1;vector-effect:none;fill:#ffffff;fill-opacity:0.16811595;stroke:none;stroke-width:0.07053804;stroke-linecap:butt;stroke-linejoin:miter;stroke-miterlimit:4;stroke-dasharray:none;stroke-dashoffset:0;stroke-opacity:1;paint-order:normal"
       id="rect2550-2"
       width="21.702223"
       height="162.39308"
       x="199.13617"
       y="111.42033"
       ry="5.0416012" />
    <g
       aria-label="LIBRARY"
       transform="matrix(0.26458333,0,0,0.26458333,-1566.9863,-1403.9267)"
       style="font-style:normal;font-variant:normal;font-weight:300;font-stretch:normal;font-size:16px;line-height:1;font-family:Montserrat;-inkscape-font-specification:'Montserrat Light';text-align:center;letter-spacing:0px;word-spacing:0px;text-anchor:middle;display:inline;fill:#f4f4f4;fill-opacity:0.9362319;stroke:none"
       id="flowRoot2193-2-4-7-5-2">
      <path
         d="m 6687.6048,5706.5284 h 1.3333 v 8.1733 h 5.0533 v 1.16 h -6.3866 z"
         style="font-style:normal;font-variant:normal;font-weight:500;font-stretch:normal;font-size:13.33333302px;line-height:1;font-family:Montserrat;-inkscape-font-specification:'Montserrat Medium';text-align:center;text-anchor:middle;fill:#f4f4f4;fill-opacity:0.9362319"
         id="path874" />
      <path
         d="m 6695.5214,5706.5284 h 1.3334 v 9.3333 h -1.3334 z"
         style="font-style:normal;font-variant:normal;font-weight:500;font-stretch:normal;font-size:13.33333302px;line-height:1;font-family:Montserrat;-inkscape-font-specification:'Montserrat Medium';text-align:center;text-anchor:middle;fill:#f4f4f4;fill-opacity:0.9362319"
         id="path876" />
      <path
         d="m 6705.942,5711.0217 q 0.8134,0.2267 1.28,0.8267 0.4667,0.5867 0.4667,1.4933 0,1.2134 -0.92,1.8667 -0.9067,0.6533 -2.6533,0.6533 h -4.4534 v -9.3333 h 4.1867 q 1.6,0 2.4667,0.64 0.88,0.64 0.88,1.7733 0,0.7334 -0.3467,1.2667 -0.3333,0.5333 -0.9067,0.8133 z m -4.9466,-3.4133 v 2.9867 h 2.7333 q 1.0267,0 1.5733,-0.3734 0.56,-0.3866 0.56,-1.12 0,-0.7333 -0.56,-1.1066 -0.5466,-0.3867 -1.5733,-0.3867 z m 3.0666,7.1733 q 1.1334,0 1.7067,-0.3733 0.5733,-0.3733 0.5733,-1.1733 0,-1.56 -2.28,-1.56 h -3.0666 v 3.1066 z"
         style="font-style:normal;font-variant:normal;font-weight:500;font-stretch:normal;font-size:13.33333302px;line-height:1;font-family:Montserrat;-inkscape-font-specification:'Montserrat Medium';text-align:center;text-anchor:middle;fill:#f4f4f4;fill-opacity:0.9362319"
         id="path878" />
      <path
         d="m 6716.0062,5715.8617 -2.0133,-2.8666 q -0.3734,0.027 -0.5867,0.027 h -2.3067 v 2.84 h -1.3333 v -9.3333 h 3.64 q 1.8133,0 2.8533,0.8667 1.04,0.8666 1.04,2.3866 0,1.08 -0.5333,1.84 -0.5333,0.76 -1.52,1.1067 l 2.2133,3.1333 z m -2.64,-3.9733 q 1.2667,0 1.9333,-0.5467 0.6667,-0.5466 0.6667,-1.56 0,-1.0133 -0.6667,-1.5466 -0.6666,-0.5467 -1.9333,-0.5467 h -2.2667 v 4.2 z"
         style="font-style:normal;font-variant:normal;font-weight:500;font-stretch:normal;font-size:13.33333302px;line-height:1;font-family:Montserrat;-inkscape-font-specification:'Montserrat Medium';text-align:center;text-anchor:middle;fill:#f4f4f4;fill-opacity:0.9362319"
         id="path880" />
      <path
         d="m 6725.4004,5713.5284 h -4.96 l -1.0267,2.3333 h -1.3733 l 4.2266,-9.3333 h 1.32 l 4.24,9.3333 h -1.4 z m -0.4667,-1.0667 -2.0133,-4.5733 -2.0134,4.5733 z"
         style="font-style:normal;font-variant:normal;font-weight:500;font-stretch:normal;font-size:13.33333302px;line-height:1;font-family:Montserrat;-inkscape-font-specification:'Montserrat Medium';text-align:center;text-anchor:middle;fill:#f4f4f4;fill-opacity:0.9362319"
         id="path882" />
      <path
         d="m 6735.4593,5715.8617 -2.0133,-2.8666 q -0.3733,0.027 -0.5867,0.027 h -2.3066 v 2.84 h -1.3334 v -9.3333 h 3.64 q 1.8134,0 2.8534,0.8667 1.04,0.8666 1.04,2.3866 0,1.08 -0.5334,1.84 -0.5333,0.76 -1.52,1.1067 l 2.2134,3.1333 z m -2.64,-3.9733 q 1.2667,0 1.9334,-0.5467 0.6666,-0.5466 0.6666,-1.56 0,-1.0133 -0.6666,-1.5466 -0.6667,-0.5467 -1.9334,-0.5467 h -2.2666 v 4.2 z"
         style="font-style:normal;font-variant:normal;font-weight:500;font-stretch:normal;font-size:13.33333302px;line-height:1;font-family:Montserrat;-inkscape-font-specification:'Montserrat Medium';text-align:center;text-anchor:middle;fill:#f4f4f4;fill-opacity:0.9362319"
         id="path884" />
      <path
         d="m 6742.35,5712.6351 v 3.2266 h -1.32 v -3.2533 l -3.7067,-6.08 h 1.4267 l 2.9866,4.92 3,-4.92 h 1.32 z"
         style="font-style:normal;font-variant:normal;font-weight:500;font-stretch:normal;font-size:13.33333302px;line-height:1;font-family:Montserrat;-inkscape-font-specification:'Montserrat Medium';text-align:center;text-anchor:middle;fill:#f4f4f4;fill-opacity:0.9362319"
         id="path886" />
    </g>
  </g>
</svg>
