<?xml version="1.0" encoding="UTF-8" standalone="no"?>
<!-- Created with Inkscape (http://www.inkscape.org/) -->

<svg
   xmlns:dc="http://purl.org/dc/elements/1.1/"
   xmlns:cc="http://creativecommons.org/ns#"
   xmlns:rdf="http://www.w3.org/1999/02/22-rdf-syntax-ns#"
   xmlns:svg="http://www.w3.org/2000/svg"
   xmlns="http://www.w3.org/2000/svg"
   xmlns:sodipodi="http://sodipodi.sourceforge.net/DTD/sodipodi-0.dtd"
   xmlns:inkscape="http://www.inkscape.org/namespaces/inkscape"
   width="13.985354mm"
   height="15.141685mm"
   viewBox="0 0 13.985354 15.141685"
   version="1.1"
   id="svg8"
   inkscape:version="0.92.2 (5c3e80d, 2017-08-06)"
   sodipodi:docname="devlog_orange.svg">
  <defs
     id="defs2" />
  <sodipodi:namedview
     id="base"
     pagecolor="#ffffff"
     bordercolor="#666666"
     borderopacity="1.0"
     inkscape:pageopacity="0.0"
     inkscape:pageshadow="2"
     inkscape:zoom="0.98994949"
     inkscape:cx="-210.38125"
     inkscape:cy="75.532772"
     inkscape:document-units="mm"
     inkscape:current-layer="layer1"
     showgrid="false"
     fit-margin-top="0"
     fit-margin-left="0"
     fit-margin-right="0"
     fit-margin-bottom="0"
     inkscape:window-width="1920"
     inkscape:window-height="1001"
     inkscape:window-x="-9"
     inkscape:window-y="-9"
     inkscape:window-maximized="1" />
  <metadata
     id="metadata5">
    <rdf:RDF>
      <cc:Work
         rdf:about="">
        <dc:format>image/svg+xml</dc:format>
        <dc:type
           rdf:resource="http://purl.org/dc/dcmitype/StillImage" />
        <dc:title></dc:title>
      </cc:Work>
    </rdf:RDF>
  </metadata>
  <g
     inkscape:label="Layer 1"
     inkscape:groupmode="layer"
     id="layer1"
     transform="translate(-96.727351,-137.10564)">
    <path
       inkscape:connector-curvature="0"
       style="display:inline;opacity:1;fill:#eda341;fill-opacity:1;fill-rule:nonzero;stroke:none;stroke-width:0.81844449;stroke-linecap:round;stroke-linejoin:miter;stroke-miterlimit:4;stroke-dasharray:none;stroke-dashoffset:0;stroke-opacity:1"
       d="m 97.092131,139.56253 0.40566,1.6233 -0.49394,0.1234 c -0.19609,0.049 -0.31446,0.2465 -0.26543,0.4426 l 0.14743,0.5899 c 0.049,0.1962 0.24629,0.3145 0.44238,0.2655 l 0.49395,-0.1234 0.19171,0.7671 -0.50879,0.1271 c -0.19609,0.049 -0.31448,0.2463 -0.26549,0.4424 l 0.14749,0.5901 c 0.049,0.1962 0.2463,0.3145 0.44239,0.2655 l 0.50879,-0.1271 0.18175,0.7273 -0.50876,0.1271 c -0.19612,0.049 -0.31451,0.2463 -0.26549,0.4425 l 0.14746,0.59 c 0.049,0.1962 0.2463,0.3146 0.44241,0.2655 l 0.50877,-0.1271 0.18429,0.7375 -0.50877,0.1271 c -0.19608,0.049 -0.31448,0.2464 -0.26545,0.4425 l 0.14743,0.59 c 0.049,0.1961 0.24629,0.3145 0.44241,0.2655 l 0.50876,-0.1272 0.17309,0.6926 -0.5058,0.1264 c -0.19612,0.049 -0.31454,0.2464 -0.26551,0.4425 l 0.14746,0.5901 c 0.049,0.1961 0.24632,0.3144 0.44244,0.2655 l 0.5058,-0.1265 0.411639,1.6471 9.71297,-2.4274 c 0.52298,-0.1307 0.83873,-0.6568 0.70803,-1.1798 l -2.69827,-10.7968 c -0.13069,-0.523 -0.65687,-0.8389 -1.17985,-0.7082 z m 1.01049,0.6251 1.71097,-0.4276 2.727739,10.9149 -1.71095,0.4276 -0.17574,-0.7032 0.37155,-0.093 c 0.19614,-0.049 0.31454,-0.2463 0.26552,-0.4424 l -0.14747,-0.5901 c -0.049,-0.1961 -0.24629,-0.3145 -0.44244,-0.2655 l -0.37154,0.093 -0.17309,-0.6926 0.36881,-0.092 c 0.19609,-0.049 0.31451,-0.2463 0.26549,-0.4424 l -0.14744,-0.59 c -0.049,-0.1961 -0.24632,-0.3146 -0.44244,-0.2656 l -0.368799,0.092 -0.1843,-0.7374 0.368809,-0.092 c 0.19609,-0.049 0.31451,-0.2463 0.26549,-0.4424 l -0.14746,-0.5901 c -0.049,-0.1961 -0.246329,-0.3145 -0.442409,-0.2655 l -0.36881,0.092 -0.18178,-0.7273 0.36881,-0.092 c 0.19611,-0.049 0.31451,-0.2463 0.26551,-0.4424 l -0.14749,-0.5901 c -0.049,-0.1961 -0.24629,-0.3145 -0.44241,-0.2655 l -0.36881,0.092 -0.19168,-0.7671 0.38342,-0.096 c 0.19612,-0.049 0.31457,-0.2463 0.26555,-0.4424 l -0.14744,-0.5899 c -0.049,-0.1961 -0.24638,-0.3147 -0.44249,-0.2656 l -0.38343,0.096 z"
       id="rect8821-2" />
  </g>
</svg>
