<?xml version="1.0" encoding="UTF-8" standalone="no"?>
<!-- Created with Inkscape (http://www.inkscape.org/) -->

<svg
   xmlns:dc="http://purl.org/dc/elements/1.1/"
   xmlns:cc="http://creativecommons.org/ns#"
   xmlns:rdf="http://www.w3.org/1999/02/22-rdf-syntax-ns#"
   xmlns:svg="http://www.w3.org/2000/svg"
   xmlns="http://www.w3.org/2000/svg"
   xmlns:xlink="http://www.w3.org/1999/xlink"
   xmlns:sodipodi="http://sodipodi.sourceforge.net/DTD/sodipodi-0.dtd"
   xmlns:inkscape="http://www.inkscape.org/namespaces/inkscape"
   width="264.86343mm"
   height="461.599mm"
   viewBox="0 0 264.86343 461.599"
   version="1.1"
   id="svg8"
   inkscape:version="0.91 r13725"
   sodipodi:docname="flower_mg.svg">
  <defs
     id="defs2">
    <linearGradient
       inkscape:collect="always"
       id="linearGradient1123">
      <stop
         style="stop-color:#000000;stop-opacity:1;"
         offset="0"
         id="stop1119" />
      <stop
         style="stop-color:#000000;stop-opacity:0;"
         offset="1"
         id="stop1121" />
    </linearGradient>
    <linearGradient
       id="linearGradient944"
       inkscape:collect="always">
      <stop
         id="stop940"
         offset="0"
         style="stop-color:#fe849a;stop-opacity:1" />
      <stop
         id="stop942"
         offset="1"
         style="stop-color:#b93c4c;stop-opacity:1" />
    </linearGradient>
    <linearGradient
       inkscape:collect="always"
       id="linearGradient1104">
      <stop
         style="stop-color:#bc374f;stop-opacity:1;"
         offset="0"
         id="stop1100" />
      <stop
         style="stop-color:#e68f80;stop-opacity:1"
         offset="1"
         id="stop1102" />
    </linearGradient>
    <linearGradient
       inkscape:collect="always"
       id="linearGradient889">
      <stop
         style="stop-color:#f7ad4c;stop-opacity:1"
         offset="0"
         id="stop885" />
      <stop
         style="stop-color:#fbe1bc;stop-opacity:1"
         offset="1"
         id="stop887" />
    </linearGradient>
    <linearGradient
       inkscape:collect="always"
       xlink:href="#linearGradient1104"
       id="linearGradient1089"
       x1="-894.70496"
       y1="514.42358"
       x2="-824.802"
       y2="513.35449"
       gradientUnits="userSpaceOnUse" />
    <radialGradient
       inkscape:collect="always"
       xlink:href="#linearGradient944"
       id="radialGradient938"
       cx="-2736.3684"
       cy="2053.3647"
       fx="-2736.3684"
       fy="2053.3647"
       r="532.48431"
       gradientTransform="matrix(0.27484292,-0.00171063,0.00109944,0.19498234,29.484177,123.49985)"
       gradientUnits="userSpaceOnUse" />
    <linearGradient
       inkscape:collect="always"
       xlink:href="#linearGradient889"
       id="linearGradient1050-4-7-7-1-9-6"
       x1="-716.15533"
       y1="248.84171"
       x2="-717.35889"
       y2="232.36172"
       gradientUnits="userSpaceOnUse"
       gradientTransform="matrix(0.26714662,0.14873154,-0.14873154,0.26714662,-512.25793,624.20283)" />
    <linearGradient
       inkscape:collect="always"
       xlink:href="#linearGradient889"
       id="linearGradient1050-4-7-7-1-9-6-9"
       x1="-716.15533"
       y1="248.84171"
       x2="-717.35889"
       y2="232.36172"
       gradientUnits="userSpaceOnUse"
       gradientTransform="matrix(0.29372974,-0.08491893,0.08491893,0.29372974,-514.06764,449.34763)" />
    <linearGradient
       inkscape:collect="always"
       xlink:href="#linearGradient889"
       id="linearGradient1050-4-7-7-1-9-6-9-6"
       x1="-716.15533"
       y1="248.84171"
       x2="-717.35889"
       y2="232.36172"
       gradientUnits="userSpaceOnUse"
       gradientTransform="matrix(0.28188557,0.11844372,-0.11844372,0.28188557,-463.08116,602.71497)" />
    <radialGradient
       inkscape:collect="always"
       xlink:href="#linearGradient889"
       id="radialGradient1236"
       cx="-716.07587"
       cy="594.67511"
       fx="-716.07587"
       fy="594.67511"
       r="5.1905828"
       gradientTransform="matrix(2.9917207,-0.11139452,0.05961263,1.6010152,1390.773,-437.17572)"
       gradientUnits="userSpaceOnUse" />
    <radialGradient
       inkscape:collect="always"
       xlink:href="#linearGradient889"
       id="radialGradient1236-8"
       cx="-716.07587"
       cy="594.67511"
       fx="-716.07587"
       fy="594.67511"
       r="5.1905828"
       gradientTransform="matrix(6.0439947,-0.2250437,0.12043184,3.2344354,3454.9746,-1516.6602)"
       gradientUnits="userSpaceOnUse" />
    <radialGradient
       inkscape:collect="always"
       xlink:href="#linearGradient889"
       id="radialGradient1236-8-9"
       cx="-716.07587"
       cy="594.67511"
       fx="-716.07587"
       fy="594.67511"
       r="5.1905828"
       gradientTransform="matrix(4.6393598,1.7651488,-0.94461689,2.482747,3051.319,337.48035)"
       gradientUnits="userSpaceOnUse" />
    <radialGradient
       inkscape:collect="always"
       xlink:href="#linearGradient889"
       id="radialGradient1236-81"
       cx="-716.07587"
       cy="594.67511"
       fx="-716.07587"
       fy="594.67511"
       r="5.1905828"
       gradientTransform="matrix(2.6123493,-1.4623381,0.78256823,1.3979951,646.83245,-1286.3071)"
       gradientUnits="userSpaceOnUse" />
    <linearGradient
       inkscape:collect="always"
       xlink:href="#linearGradient1123"
       id="linearGradient1127"
       x1="-1059.0892"
       y1="901.00598"
       x2="-1068.1608"
       y2="671.19647"
       gradientUnits="userSpaceOnUse"
       gradientTransform="matrix(0.87592634,0,0,1.3102679,183.76603,-240.40565)" />
  </defs>
  <sodipodi:namedview
     id="base"
     pagecolor="#ffffff"
     bordercolor="#666666"
     borderopacity="1.0"
     inkscape:pageopacity="0.0"
     inkscape:pageshadow="2"
     inkscape:zoom="0.50000001"
     inkscape:cx="-46.782694"
     inkscape:cy="813.29395"
     inkscape:document-units="mm"
     inkscape:current-layer="layer1"
     showgrid="false"
     inkscape:window-width="1920"
     inkscape:window-height="1018"
     inkscape:window-x="-8"
     inkscape:window-y="-8"
     inkscape:window-maximized="1"
     inkscape:snap-nodes="false"
     showguides="true"
     inkscape:guide-bbox="true"
     fit-margin-top="0"
     fit-margin-left="0"
     fit-margin-right="0"
     fit-margin-bottom="0" />
  <metadata
     id="metadata5">
    <rdf:RDF>
      <cc:Work
         rdf:about="">
        <dc:format>image/svg+xml</dc:format>
        <dc:type
           rdf:resource="http://purl.org/dc/dcmitype/StillImage" />
        <dc:title />
      </cc:Work>
    </rdf:RDF>
  </metadata>
  <g
     inkscape:label="Layer 1"
     inkscape:groupmode="layer"
     id="layer1"
     transform="translate(850.5257,-383.46643)">
    <path
       style="fill:url(#linearGradient1089);fill-opacity:1;stroke-width:0.15805936"
       d="m -838.46683,479.36584 c -0.3712,-0.0534 -0.66882,-0.0151 -1.23392,0.0984 -1.32931,0.26668 -2.26682,0.60163 -3.53106,1.26116 -0.96885,0.50537 -1.05547,0.5954 -1.33294,1.38412 l -0.29677,0.84355 -4.04411,-0.33346 c -2.22432,-0.18341 -4.07951,-0.30135 -4.12247,-0.26206 -0.043,0.0394 -0.17151,0.21396 -0.28567,0.38793 -0.36372,0.55424 0.13393,0.86872 2.51215,1.58806 0.38151,0.11514 1.75374,0.33012 3.0495,0.47707 l 2.35592,0.26723 -1.20518,0.13292 c -0.9227,0.10186 -1.89628,0.0521 -4.15353,-0.21309 -1.94096,-0.22801 -3.26259,-0.31053 -3.86795,-0.24132 -0.50575,0.0578 -0.95577,0.10888 -0.99996,0.11358 -0.0442,0.005 -0.33599,0.0625 -0.64859,0.12801 -0.31258,0.0657 -0.76981,0.14296 -1.01613,0.17191 -0.27444,0.0321 -0.5207,0.19708 -0.63558,0.42604 -0.1679,0.33465 -0.27727,0.36454 -1.04918,0.28571 -0.65988,-0.0674 -1.00679,-0.01 -1.48109,0.24599 -0.34296,0.18491 -0.84504,0.31091 -1.12488,0.28234 -0.51627,-0.0526 -1.06124,0.25658 -1.64364,0.93263 -0.27145,0.31501 -0.34841,0.32912 -0.69497,0.12643 -0.28309,-0.16524 -0.52166,-0.19068 -1.08758,-0.098 -0.36305,1.79587 2.33193,2.14777 2.55046,2.51951 -0.0941,-0.24573 -0.14785,-0.45683 -0.11892,-0.47608 0.0303,-0.02 0.47425,0.0615 0.9863,0.18137 0.51208,0.11998 2.04428,0.33787 3.40496,0.48421 l 2.47398,0.26595 0.33678,-0.56149 c 0.27628,-0.46034 0.43137,-0.56085 0.86322,-0.55823 l 0.52657,0.003 -0.29538,0.36425 c -0.28054,0.34568 -0.27971,0.37114 0.0208,0.50141 0.37067,0.16078 1.16943,0.0942 1.7974,-0.14975 0.46516,-0.18069 0.7338,-0.59478 0.80878,-1.24681 0.0308,-0.26894 0.1886,-0.441 0.51096,-0.55791 0.63688,-0.23099 0.69027,-0.0848 0.22656,0.61956 -0.38552,0.58556 -0.388,0.60303 -0.11072,0.78992 0.40726,0.27457 0.70612,0.27438 1.41348,3e-5 0.80434,-0.31197 1.88608,-1.2894 2.0634,-1.86438 0.0761,-0.24648 0.2644,-0.53675 0.41842,-0.64525 0.2804,-0.19766 2.46284,-0.73316 2.53007,-0.6208 0.0195,0.033 0.16104,0.42722 0.31423,0.87645 0.17504,0.51356 0.79119,1.46492 1.65923,2.56224 1.743,2.20334 1.80845,2.4734 1.46517,6.03442 -0.13294,1.37926 -0.34547,2.81864 -0.47249,3.19888 -0.12694,0.38028 -0.33774,1.24765 -0.4683,1.92735 -0.13057,0.6797 -0.37089,1.54887 -0.53423,1.93146 -0.16335,0.38259 -0.77939,1.96893 -1.3691,3.52533 -1.29246,3.06329 -15.42116,40.3603 -17.97878,41.3921 5.34938,0.88781 9.62626,1.62405 13.09322,2.17191 -1.31603,-1.25783 11.52157,-39.77338 11.52157,-39.77338 0.0227,-0.90007 -0.25637,-2.43437 0.14394,-4.69214 0.27002,-1.51225 0.40319,-2.90073 0.47516,-4.95128 0.12928,-3.68269 0.13602,-3.91871 0.14642,-5.16916 0.008,-1.02088 0.0205,-1.05417 0.40472,-1.10996 0.21785,-0.0315 0.53104,-0.0891 0.69606,-0.12814 0.27922,-0.066 0.27775,-0.0569 -0.0243,0.13251 -0.72756,0.45621 -0.30782,0.75041 2.82966,1.98232 2.18313,0.8572 3.51883,1.02197 4.60184,0.56667 0.41084,-0.17262 0.98523,-0.40932 1.27633,-0.52597 0.48726,-0.19527 0.53254,-0.26943 0.5717,-0.93403 0.0368,-0.62555 -0.0205,-0.77101 -0.42979,-1.09088 -0.51236,-0.4004 -0.59709,-0.62045 -0.22447,-0.58242 0.40208,0.0411 0.31584,-0.51727 -0.16741,-1.08363 -0.73425,-0.86055 -1.9148,-1.63593 -3.42983,-2.25275 -0.77312,-0.31477 -1.42538,-0.5876 -1.44962,-0.60664 -0.0242,-0.0192 0.16334,-0.28225 0.41717,-0.58455 0.25364,-0.30239 0.47094,-0.64606 0.48296,-0.76371 0.0122,-0.11762 0.0763,-0.20851 0.14281,-0.20173 0.37446,0.0383 2.61958,1.00229 3.95592,1.69856 1.19895,0.62465 1.55491,0.88357 1.58041,1.1491 2.33507,1.84168 5.22899,3.16968 6.41834,2.713 0.12119,-0.47149 0.14674,-0.48408 0.57246,-0.28506 0.45229,0.21133 2.6629,0.3647 2.98735,0.20727 0.0974,-0.0473 0.19067,-0.22017 0.20747,-0.38438 0.0348,-0.34022 -0.6891,-0.89989 -2.25463,-1.7427 l -1.02599,-0.55223 c -1.91948,-0.53242 -4.00797,-2.4455 -6.98253,-1.92848 -0.0475,-0.005 -0.32055,-0.27964 -0.60697,-0.61091 -0.67311,-0.77853 -1.87723,-1.27951 -3.54978,-1.47616 -0.89355,-0.10509 -1.33926,-0.22288 -1.41257,-0.37383 -0.0589,-0.12131 -0.17206,-0.8034 -0.25145,-1.51551 -0.0831,-0.7458 -0.26088,-1.44664 -0.41927,-1.65302 -0.15122,-0.19705 -0.58943,-0.83614 -0.97369,-1.42011 -0.38424,-0.58397 -0.80771,-1.10563 -0.941,-1.15954 -0.69215,-0.27978 -2.10084,-1.00266 -4.04598,-1.37291 -0.34932,-0.10134 -0.5986,-0.16622 -0.82136,-0.19808 z m -16.38725,7.11338 c 0.14248,0.0146 0.2782,0.0384 0.37297,0.067 0.1897,0.0568 -0.009,0.0668 -0.44127,0.0214 -0.43219,-0.046 -0.58741,-0.092 -0.34479,-0.10355 0.12134,-0.005 0.27051,5.9e-4 0.41299,0.0159 z m 23.84367,5.75301 c 0.35116,0.0358 1.87521,0.70957 2.29365,1.01401 0.40984,0.29821 -0.0549,0.19073 -1.27749,-0.29556 -1.11404,-0.44306 -1.58587,-0.77664 -1.01616,-0.71848 z m -3.93029,-0.14435 c 0.0152,-6e-4 0.0294,0.001 0.0424,0.005 0.0147,0.003 0.0273,0.01 0.0383,0.0179 0.10075,0.0773 0.0729,0.13794 -0.078,0.16861 -0.12941,0.0262 -0.34949,0.11436 -0.4889,0.19616 -0.13931,0.0819 -0.10438,0.006 0.078,-0.1683 0.13968,-0.13357 0.30138,-0.21689 0.40835,-0.21869 z m 0.16122,1.82498 c 0.0865,0.008 0.15012,0.0866 0.14116,0.17331 -0.008,0.0865 -0.0866,0.15013 -0.17331,0.14116 -0.0866,-0.008 -0.15011,-0.0866 -0.14116,-0.17331 0.008,-0.0865 0.0866,-0.15012 0.17331,-0.14116 z"
       id="path893"
       inkscape:connector-curvature="0"
       sodipodi:nodetypes="ccccccccccccscccccscscccccccccsccccccccccccccsccscccccccccccccccsscscsscccccsccccccccsccccsccccsscscsscsccssscsssc" />
    <path
       style="fill:url(#radialGradient938);fill-opacity:1;stroke:none;stroke-width:0.28574064px;stroke-linecap:butt;stroke-linejoin:miter;stroke-opacity:1"
       d="m -635.82009,474.09255 c -13.82155,11.51836 14.70773,32.49562 18.04849,47.09712 l -22.43428,-25.82369 c -9.8339,-9.7429 -12.83126,-2.95352 -12.83126,-2.95352 0,0 -4.52647,11.94778 28.26753,35.47635 -2.027,1.45924 -3.56204,3.7359 -4.03283,5.98358 -10.7065,-4.15963 -36.93936,-30.63511 -36.93936,-30.63511 0,0 -21.66964,18.73481 34.03566,35.53282 -0.0101,0.0108 -0.0127,0.0213 -0.0206,0.032 -7.89749,-2.11215 -37.62555,-9.04422 -34.31574,7.33764 12.3734,7.88094 27.75249,0.0707 31.53399,-2.08754 -1.69569,2.37333 -2.71219,4.45518 -3.09438,9.47348 -11.5996,1.65144 -47.10668,-7.78606 -47.10668,-7.78606 0,0 -10.41884,28.10644 48.15417,13.01768 0,0 -40.55057,10.05895 -28.44168,24.55596 16.61451,0.59171 27.05674,-18.93506 27.05674,-18.93506 -2.828,7.97685 -3.48951,13.17991 -0.46146,20.21909 0,0 -17.76465,-5.95667 -32.12777,2.77977 0,0 -35.1517,-17.07608 -54.80645,-3.1772 0,0 -21.54487,-11.11902 -39.30976,0.79429 0,0 -10.20514,-5.1622 -16.25274,-0.39686 -3.63159,-4.3605 -12.2464,-5.54093 -17.29507,-5.85274 7.66746,-4.10486 9.87089,-5.86579 8.87439,-16.47723 2.06015,8.66692 8.67169,16.31324 15.2337,15.44131 1.53318,-1.02914 -3.88652,-7.02774 -11.6794,-19.12342 8.67558,0.69052 15.9856,6.56886 15.9856,6.56886 l -0.1597,1.17704 c 4.45113,1.2487 5.60482,0.34747 5.60482,0.34747 0,0 -0.70546,-2.43662 -4.74493,-3.24723 l -0.4599,0.92297 c 0,0 -6.47702,-4.90152 -13.98778,-6.3305 5.72096,-0.56153 8.2894,-0.48809 8.28942,-0.48809 l -0.15814,1.17707 c 4.45098,1.24865 5.60324,0.348 5.60327,0.348 0,0 -0.70385,-2.43639 -4.74337,-3.24723 l -0.4594,0.92189 c 0,0 -3.0331,-0.16084 -8.74934,0.39633 6.62596,-2.72643 10.95488,-8.25027 10.95488,-8.25027 l 0.63201,0.8019 c 3.79034,-1.67628 3.99511,-4.21419 3.99511,-4.21419 0,0 -1.30596,-0.62798 -5.41259,1.56635 l 0.38913,1.11624 c 0,0 -4.90755,6.77325 -13.23692,8.96967 1.26807,-15.07411 9.10159,-21.4652 4.10723,-21.26419 -3.76597,-0.0397 -5.78376,3.12493 -6.86366,6.75018 -2.82977,-3.60231 -3.35942,-6.38293 -7.90599,-9.27806 5.63097,0.13563 12.49752,-0.49499 14.9283,-4.03176 -2.35027,-2.5615 -5.13009,-3.66415 -7.86826,-3.96388 6.32499,-4.82513 12.7839,-16.86597 10.86601,-19.31998 -5.20914,-5.28383 -24.053,11.34076 -20.60959,16.79051 0,0 -0.0925,0.12283 -0.0992,0.13027 l -0.0274,-0.0592 -0.90485,1.2194 c -0.4149,0.52263 -0.80836,1.02833 -1.43558,1.8503 0.98391,-9.17267 1.35819,-8.67311 -3.06491,-18.29058 -5.17564,8.268 -4.11305,15.61778 -2.45411,20.17019 -5.67031,-2.35172 -6.49904,-0.60377 -13.79244,-1.00277 0,0 7.80407,7.12664 13.88287,6.84571 l -0.0553,0.11348 c -1.21372,1.93371 -2.33915,3.9187 -3.17552,5.77131 -2.88124,-6.82054 -7.9923,-9.41699 -15.33549,-5.01719 -1.01415,-3.28439 -1.60436,-6.40665 -1.94046,-9.16836 l -0.0512,-1.22158 c 3.28525,0.64924 9.29945,1.01076 18.10589,-1.63638 -6.81127,-0.45404 -8.57607,-3.32146 -15.05646,-2.32969 4.52464,-3.73999 9.55048,-8.9285 9.27852,-13.37821 -3.43887,-0.41433 -6.31402,0.61399 -8.65892,2.24824 2.0016,-8.12614 -0.35658,-22.03236 -3.38791,-22.65732 l -0.004,-0.003 c -7.37819,-0.60824 -11.94861,25.37581 -5.86012,27.32106 0,0 0.003,0.15941 0,0.16994 l -0.0574,-0.0282 0.0413,1.57938 c -0.004,0.69555 -0.003,1.36261 0.0119,2.43936 -4.9013,-7.90589 -4.2972,-7.76596 -13.73767,-12.32874 1.03569,10.05608 6.42282,15.12591 10.5487,17.5826 -5.92725,2.01917 -5.49841,3.964 -11.49696,8.63198 0,0 10.56529,0.28783 15.18512,-4.0866 l 0.0265,5.68823 c 0.11756,1.15463 -6.65139,-2.08386 -8.56176,3.37536 -6.61527,-4.22771 -9.13185,2.22474 -8.8837,3.26026 -5.41906,17.59415 -4.97007,27.94584 -1.26659,33.87254 l 1.17179,270.86077 277.43425,1.19135 -12.85118,-279.58793 -2.66394,0.48376 c 26.81063,-21.38778 19.21381,-66.21054 -19.19935,-48.99681 -2.39252,-21.48211 -27.71177,-43.72152 -27.71511,-43.72444 z m -165.91701,60.23697 c 1.88111,2.36795 5.56922,5.99957 12.24473,9.4382 -1.09082,4.52403 -0.89813,9.30682 -0.89813,9.30682 -1.77556,-1.59637 -2.89369,-6.89167 -7.86257,-5.24356 -0.32202,-5.18123 -4.44317,-7.86638 -8.51421,-5.94503 1.18018,-3.1424 2.96259,-4.29695 4.34496,-6.60144 z"
       id="path1071-7"
       inkscape:connector-curvature="0"
       sodipodi:nodetypes="cccccccccccccccccccccccccccccccccccccccccccccccccccccccccccccccccccccccccccccccccccccccccccccccc" />
    <rect
       style="opacity:1;fill:url(#linearGradient1127);fill-opacity:1;stroke:none;stroke-width:0.90858126;stroke-linecap:round;stroke-linejoin:round;stroke-miterlimit:4;stroke-dasharray:none;stroke-dashoffset:0;stroke-opacity:1;paint-order:stroke fill markers"
       id="rect1117"
       width="274.84152"
       height="221.07376"
       x="-850.5257"
       y="623.19342"
       ry="1.7333752" />
    <path
       style="fill:#b93c4c;fill-opacity:1;fill-rule:evenodd;stroke:none;stroke-width:5.74349356px;stroke-linecap:butt;stroke-linejoin:miter;stroke-opacity:1"
       d="m -803.33057,625.16414 c 0,0 5.35047,-7.39018 5.45239,-10.04855 -0.32513,-4.24692 -2.69924,-8.97781 -1.67338,-15.5447 0.97749,-4.22184 3.88534,-3.82241 3.59701,-0.91075 -0.0657,1.41585 1.68059,5.99799 2.28753,7.03036 0.62955,1.714 2.74075,0.97255 1.62965,-2.22981 -2.63089,-3.98629 -2.2758,-8.86684 -2.2758,-8.86684 0.45005,-4.38958 3.44862,-4.63758 3.25869,-2.34534 0.1491,4.30759 1.91936,7.06137 1.91936,7.06137 0.85043,1.89503 2.4844,-0.031 2.07841,-1.98744 -0.92793,-3.51409 -2.77505,-3.78021 -2.24442,-8.59779 0.68955,-3.2672 10.3716,-3.40745 14.62736,-0.56833 5.12184,3.95133 6.13428,14.14892 3.10293,14.55369 -3.00157,0.23159 -4.43994,0.60826 -6.61226,0.37633 -3.22595,-0.26037 -4.31765,2.36853 -2.29642,2.27581 l 6.44595,0.0285 c 5.67383,0.19359 -0.0591,4.71067 -2.75002,4.5195 -1.78857,0.44081 -6.79142,0.0557 -7.5979,-0.44014 -2.07416,-0.66971 -2.65493,2.07924 -1.06506,2.53424 2.35318,1.01616 7.92099,0.13298 7.92099,0.13298 6.08708,-1.0121 0.20364,3.98617 -1.95438,4.49836 -6.44527,1.99235 -9.72202,0.1932 -14.16431,1.77991 -3.28725,1.68072 -7.66442,8.383 -7.66442,8.383 z"
       id="path5161-5"
       inkscape:connector-curvature="0"
       sodipodi:nodetypes="cccccccccccccccccccccccc"
       inkscape:export-filename="C:\Users\Wessel\Documents\Unity Games\Experiments\Assets\Resources\tropical.png"
       inkscape:export-xdpi="168.40759"
       inkscape:export-ydpi="168.40759" />
    <path
       style="fill:#b93c4c;fill-opacity:1;fill-rule:evenodd;stroke:none;stroke-width:5.74349403px;stroke-linecap:butt;stroke-linejoin:miter;stroke-opacity:1"
       d="m -626.35914,620.62094 c 0,0 -3.21609,-8.53809 -5.37782,-10.08865 -3.72251,-2.07002 -8.97838,-2.69734 -13.89169,-7.17348 -2.98347,-3.14298 -1.04715,-5.34885 1.22314,-3.50313 1.14504,0.83536 5.9307,1.90448 7.12662,1.96724 1.77708,0.41966 2.32235,-1.7505 -0.96196,-2.58891 -4.7762,-0.003 -8.65236,-2.98945 -8.65236,-2.98945 -3.41418,-2.79541 -1.96802,-5.43388 -0.16027,-4.01173 3.67608,2.25032 6.94952,2.29149 6.94952,2.29149 2.04989,0.33519 1.34376,-2.08986 -0.51235,-2.8297 -3.44341,-1.16309 -4.68373,0.23129 -8.41058,-2.8673 -2.34574,-2.37647 2.87485,-10.53167 7.58972,-12.51714 6.12026,-2.09491 15.18641,2.68221 13.85297,5.43445 -1.46151,2.63193 -1.94021,4.03964 -3.33128,5.72418 -1.99566,2.54792 -0.40417,4.90802 0.63275,3.17056 l 3.57735,-5.36224 c 3.28943,-4.62704 3.89761,2.64624 2.25464,4.78593 -0.61824,1.73524 -3.69756,5.69689 -4.55585,6.0964 -1.70221,1.3613 0.27111,3.3613 1.5272,2.28569 2.14508,-1.4031 4.4777,-6.53529 4.4777,-6.53529 2.51132,-5.6365 3.43798,2.02762 2.67562,4.11046 -1.89095,6.47574 -5.19844,8.21773 -6.32361,12.79874 -0.40997,3.66916 2.76876,11.01599 2.76876,11.01599 z"
       id="path5161-5-7"
       inkscape:connector-curvature="0"
       sodipodi:nodetypes="cccccccccccccccccccccccc"
       inkscape:export-filename="C:\Users\Wessel\Documents\Unity Games\Experiments\Assets\Resources\tropical.png"
       inkscape:export-xdpi="168.40759"
       inkscape:export-ydpi="168.40759" />
    <path
       style="fill:#b93c4c;fill-opacity:1;fill-rule:evenodd;stroke:none;stroke-width:5.74349451px;stroke-linecap:butt;stroke-linejoin:miter;stroke-opacity:1"
       d="m -630.46545,626.90911 c 0,0 -6.96008,-5.89912 -9.60289,-6.20373 -4.25935,-9e-5 -9.1577,2.00586 -15.62709,0.48158 -4.13488,-1.29699 -3.51459,-4.16586 -0.63344,-3.65605 1.4067,0.17362 6.10881,-1.21771 7.1845,-1.74404 1.75706,-0.49685 1.17897,-2.6585 -2.09887,-1.79516 -4.17573,2.3185 -9.01472,1.59214 -9.01472,1.59214 -4.34241,-0.78392 -4.36074,-3.79266 -2.08968,-3.42827 4.30639,0.18025 7.1873,-1.37458 7.1873,-1.37458 1.95445,-0.70325 0.15879,-2.47952 -1.82294,-2.22409 -3.57468,0.6569 -3.98106,2.47831 -8.74406,1.58139 -3.20501,-0.937 -2.60558,-10.60151 0.5502,-14.62806 4.33087,-4.80518 14.576,-5.03603 14.74812,-1.98263 0.002,3.01049 0.26748,4.47343 -0.12963,6.62169 -0.50593,3.19665 2.03193,4.4859 2.09381,2.46349 l 0.52059,-6.42496 c 0.62625,-5.64248 4.69242,0.4186 4.29634,3.08708 0.30296,1.817 -0.46302,6.77584 -1.01899,7.54212 -0.82613,2.01697 1.87045,2.80593 2.44551,1.25544 1.19288,-2.26873 0.73741,-7.88771 0.73741,-7.88771 -0.54437,-6.14658 3.99007,0.10131 4.336,2.29215 1.4944,6.57857 -0.54969,9.70838 0.6932,14.25886 1.42482,3.40598 7.77331,8.28213 7.77331,8.28213 z"
       id="path5161-5-7-7"
       inkscape:connector-curvature="0"
       sodipodi:nodetypes="cccccccccccccccccccccccc"
       inkscape:export-filename="C:\Users\Wessel\Documents\Unity Games\Experiments\Assets\Resources\tropical.png"
       inkscape:export-xdpi="168.40759"
       inkscape:export-ydpi="168.40759" />
    <path
       style="fill:#b93c4c;fill-opacity:1;stroke:none;stroke-width:1.15048194px;stroke-linecap:butt;stroke-linejoin:miter;stroke-opacity:1"
       d="m -698.19302,593.18088 c -5.40503,0.87719 -4.35581,19.45538 0.34532,19.7191 0,0 0.026,0.11129 0.0275,0.11843 -0.003,-7e-4 -0.0463,-0.0102 -0.0463,-0.0102 l 0.29136,1.06875 c 0.11322,0.479 0.22624,0.9364 0.41801,1.67726 -5.04154,-4.7251 -4.29286,-4.54869 -11.93253,-6.03369 2.41836,6.68794 7.13285,9.2238 10.50737,10.18493 -3.91414,2.41695 -3.28583,3.67518 -6.81633,7.91729 0,0 7.64264,-1.65581 10.23355,-5.45856 l 0.0411,0.0809 c 0.56516,1.56928 1.20002,3.10759 1.8895,4.4133 4.47647,6.48506 14.57653,3.45418 14.57653,3.45418 l 1.68779,-3.59664 c 0,0 -8.12286,1.99259 -11.96069,-0.89698 -1.2761,-2.06795 -2.22138,-4.0985 -2.92361,-5.92815 l -0.24211,-0.83131 c 2.46978,-0.13197 6.85476,-0.93889 12.74332,-4.29369 -4.97248,0.88339 -6.71089,-0.78033 -11.20499,1.03532 2.62606,-3.35074 5.36668,-7.77562 4.42969,-10.76941 -2.54064,0.3193 -4.43564,1.52735 -5.84843,3.05612 0.0825,-5.91067 -3.9329,-15.01081 -6.21601,-14.90716 z"
       id="path3598-1-7-4-7"
       inkscape:connector-curvature="0" />
    <path
       inkscape:connector-curvature="0"
       style="fill:#d35769;fill-opacity:1;stroke:none;stroke-width:0.07899396px;stroke-linecap:butt;stroke-linejoin:miter;stroke-opacity:1"
       d="m -760.17502,577.20647 c -0.95088,0.23166 -1.42975,1.28144 -0.38768,3.79748 -0.77937,-0.39477 -1.67703,-1.15978 -2.42843,-0.98658 l -0.29209,-0.12194 c 0.0391,0.0629 0.0816,0.12187 0.12261,0.18265 0.40898,1.73012 5.10165,3.86451 7.70372,3.57854 0.0489,0.002 0.13404,0.006 0.13404,0.006 0.0523,-0.0122 0.10565,-0.0328 0.15836,-0.0491 0.17337,-0.0342 0.33537,-0.0812 0.48276,-0.14156 0.113,-0.0761 0.22178,-0.15215 0.32925,-0.22892 1.57405,-0.94037 3.09642,-2.96529 3.09642,-2.96529 0,0 0.14676,-0.37193 0.2823,-0.71994 0.76869,-1.42499 0.83722,-2.5048 0.80727,-2.63344 -0.004,-0.018 -0.0206,-0.0112 -0.0415,0.007 -0.0894,-0.1622 -0.50722,0.29516 -1.55627,2.01881 0.62169,-1.26059 -1.89283,-6.4201 -4.50658,0.47038 -0.0978,-1.13055 -2.50821,-2.55307 -3.90422,-2.21351 z"
       id="path3867-6-8" />
    <path
       inkscape:connector-curvature="0"
       style="fill:#d35769;fill-opacity:1;stroke:none;stroke-width:0.07899396px;stroke-linecap:butt;stroke-linejoin:miter;stroke-opacity:1"
       d="m -695.48984,573.35203 c -0.97565,-0.0771 -1.75863,0.77039 -1.55513,3.48608 -0.61695,-0.61858 -1.23054,-1.62582 -1.99843,-1.69614 l -0.23935,-0.20713 c 0.0175,0.072 0.0394,0.14127 0.0594,0.21182 -0.15225,1.77128 3.63825,5.2654 6.19935,5.80701 0.0458,0.0172 0.12545,0.0476 0.12545,0.0476 0.0535,0.005 0.11061,0.002 0.16577,0.003 0.17538,0.0217 0.34395,0.0277 0.50282,0.0164 0.13112,-0.037 0.25822,-0.0752 0.3843,-0.11455 1.7891,-0.4013 3.86808,-1.84898 3.86808,-1.84898 0,0 0.25565,-0.30743 0.49317,-0.59564 1.17555,-1.11336 1.57813,-2.11766 1.58989,-2.24921 0.002,-0.0184 -0.0161,-0.0171 -0.0416,-0.006 -0.0342,-0.18202 -0.57406,0.12184 -2.10927,1.43127 0.98453,-1.00313 0.20854,-6.69007 -4.42783,-0.96168 0.26044,-1.10448 -1.58462,-3.20909 -3.01682,-3.32285 z"
       id="path3867-6-8-2" />
    <path
       inkscape:connector-curvature="0"
       style="fill:#d85c6f;fill-opacity:1;stroke:none;stroke-width:0.07899396px;stroke-linecap:butt;stroke-linejoin:miter;stroke-opacity:1"
       d="m -724.23177,577.17276 c -0.92582,0.31731 -1.30713,1.4063 -0.0403,3.81701 -0.81208,-0.32217 -1.77566,-1.00227 -2.50817,-0.76138 l -0.30198,-0.0948 c 0.0447,0.0591 0.0923,0.11394 0.13874,0.17072 0.56481,1.68571 5.43232,3.38397 7.99755,2.86227 0.0489,-0.002 0.13403,-0.006 0.13403,-0.006 0.0511,-0.0167 0.10228,-0.0421 0.15329,-0.0632 0.16954,-0.0498 0.32659,-0.11138 0.46786,-0.18494 0.10559,-0.0861 0.20701,-0.17169 0.30704,-0.25794 1.48189,-1.07978 2.81357,-3.2349 2.81357,-3.2349 0,0 0.11228,-0.38375 0.21558,-0.74265 0.63575,-1.48907 0.60568,-2.57063 0.56414,-2.69601 -0.005,-0.0177 -0.0216,-0.009 -0.0405,0.011 -0.10377,-0.1534 -0.47824,0.34011 -1.366,2.15212 0.50434,-1.31194 -2.46951,-6.22109 -4.44503,0.87875 -0.20033,-1.11695 -2.73025,-2.31409 -4.08954,-1.84883 z"
       id="path3867-6-8-2-3" />
    <path
       style="fill:url(#linearGradient1050-4-7-7-1-9-6);fill-opacity:1;stroke:none;stroke-width:0.06013155px;stroke-linecap:butt;stroke-linejoin:miter;stroke-opacity:1"
       d="m -738.98155,586.80801 c 0,0 -3.1535,-2.94801 -2.56117,-6.19528 l 0.95725,2.0409 c 1.72662,-4.86017 4.12035,0.1197 3.23937,1.27747 4.9978,-2.54802 3.77667,1.64675 2.78142,2.03949 4.52645,-1.33753 -0.3928,1.00876 -0.3928,1.00876 0,0 -2.76101,0.53187 -4.02407,-0.17134 z"
       id="path3867-9-9-9-8-7-5"
       inkscape:connector-curvature="0"
       sodipodi:nodetypes="ccccccc"
       inkscape:export-filename="C:\Users\Wessel\Documents\Unity Games\Experiments\Assets\RawRecources\BodyParts\PollinationOrgan\buttercup\icon.png"
       inkscape:export-xdpi="151.26161"
       inkscape:export-ydpi="151.26161"
       inkscape:transform-center-x="0.40728998"
       inkscape:transform-center-y="-0.44698095" />
    <path
       style="fill:#000000;fill-opacity:0.07536232;stroke:none;stroke-width:0.05883266px;stroke-linecap:butt;stroke-linejoin:miter;stroke-opacity:1"
       d="m -740.52784,582.75586 c 1.30265,0.79537 1.94301,3.32614 1.94301,3.32614 2.753,-1.69358 3.60736,0.29001 3.60736,0.29001 0,0 2.43874,-0.88666 2.34932,-0.72606 -0.0894,0.16066 -1.97657,1.95058 -5.89455,1.38246 -1.77757,-0.63899 -3.77329,-4.94133 -3.04297,-6.25311 0.66043,0.21496 0.74364,1.31669 1.03785,1.98055 z"
       id="path3869-8-1-3-8-9-4"
       inkscape:connector-curvature="0"
       sodipodi:nodetypes="cccsccc"
       inkscape:export-filename="C:\Users\Wessel\Documents\Unity Games\Experiments\Assets\RawRecources\BodyParts\PollinationOrgan\buttercup\icon.png"
       inkscape:export-xdpi="151.26161"
       inkscape:export-ydpi="151.26161"
       inkscape:transform-center-x="0.44697953"
       inkscape:transform-center-y="-0.35711533" />
    <path
       style="fill:#bc374f;fill-opacity:1;stroke:none;stroke-width:0.06013155px;stroke-linecap:butt;stroke-linejoin:miter;stroke-opacity:1"
       d="m -738.56018,585.99054 c 0.26669,-0.90358 0.73559,-1.62448 0.96758,-1.49532 0.23198,0.12914 -0.38314,1.29467 -0.38314,1.29467 z"
       id="path3871-3-0-5-5-8-7"
       inkscape:connector-curvature="0"
       sodipodi:nodetypes="cccc"
       inkscape:export-filename="C:\Users\Wessel\Documents\Unity Games\Experiments\Assets\RawRecources\BodyParts\PollinationOrgan\buttercup\icon.png"
       inkscape:export-xdpi="151.26161"
       inkscape:export-ydpi="151.26161"
       inkscape:transform-center-x="1.3241564"
       inkscape:transform-center-y="0.9209071" />
    <path
       style="fill:url(#linearGradient1050-4-7-7-1-9-6-9);fill-opacity:1;stroke:none;stroke-width:0.06013155px;stroke-linecap:butt;stroke-linejoin:miter;stroke-opacity:1"
       d="m -700.28545,583.97639 c 0,0 -4.31379,0.16272 -6.20207,-2.54468 l 2.12309,0.75769 c -2.23454,-4.64858 2.98672,-2.84097 3.18826,-1.40016 1.7107,-5.34265 3.82883,-1.52155 3.40675,-0.53839 2.23815,-4.15553 0.43955,0.98929 0.43955,0.98929 0,0 -1.56682,2.33476 -2.95558,2.73625 z"
       id="path3867-9-9-9-8-7-5-6"
       inkscape:connector-curvature="0"
       sodipodi:nodetypes="ccccccc"
       inkscape:export-filename="C:\Users\Wessel\Documents\Unity Games\Experiments\Assets\RawRecources\BodyParts\PollinationOrgan\buttercup\icon.png"
       inkscape:export-xdpi="151.26161"
       inkscape:export-ydpi="151.26161"
       inkscape:transform-center-x="8.3158683"
       inkscape:transform-center-y="1.1757805" />
    <path
       style="fill:#000000;fill-opacity:0.07536232;stroke:none;stroke-width:0.05883266px;stroke-linecap:butt;stroke-linejoin:miter;stroke-opacity:1"
       d="m -704.25126,582.22048 c 1.48206,-0.36469 3.72977,0.96297 3.72977,0.96297 0.73642,-3.14721 2.74636,-2.35683 2.74636,-2.35683 0,0 1.08798,-2.35583 1.13903,-2.17924 0.0511,0.17661 -0.007,2.77696 -3.16973,5.15846 -1.7055,0.81199 -6.16545,-0.80104 -6.58243,-2.24335 0.61771,-0.31749 1.4585,0.39932 2.137,0.65797 z"
       id="path3869-8-1-3-8-9-4-3"
       inkscape:connector-curvature="0"
       sodipodi:nodetypes="cccsccc"
       inkscape:export-filename="C:\Users\Wessel\Documents\Unity Games\Experiments\Assets\RawRecources\BodyParts\PollinationOrgan\buttercup\icon.png"
       inkscape:export-xdpi="151.26161"
       inkscape:export-ydpi="151.26161"
       inkscape:transform-center-x="8.2565668"
       inkscape:transform-center-y="1.5137042" />
    <path
       style="fill:#bc374f;fill-opacity:1;stroke:none;stroke-width:0.06013155px;stroke-linecap:butt;stroke-linejoin:miter;stroke-opacity:1"
       d="m -700.56907,583.10154 c -0.45368,-0.82568 -0.63527,-1.66627 -0.38019,-1.74002 0.25505,-0.0738 0.64933,1.18378 0.64933,1.18378 z"
       id="path3871-3-0-5-5-8-7-0"
       inkscape:connector-curvature="0"
       sodipodi:nodetypes="cccc"
       inkscape:export-filename="C:\Users\Wessel\Documents\Unity Games\Experiments\Assets\RawRecources\BodyParts\PollinationOrgan\buttercup\icon.png"
       inkscape:export-xdpi="151.26161"
       inkscape:export-ydpi="151.26161"
       inkscape:transform-center-x="7.4316293"
       inkscape:transform-center-y="2.4127355" />
    <path
       style="fill:url(#linearGradient1050-4-7-7-1-9-6-9-6);fill-opacity:1;stroke:none;stroke-width:0.06013155px;stroke-linecap:butt;stroke-linejoin:miter;stroke-opacity:1"
       d="m -692.54233,590.48597 c 0,0 -3.45863,-2.58325 -3.22709,-5.87597 l 1.17593,1.92322 c 1.18154,-5.0206 4.10851,-0.33425 3.36023,0.9134 4.6872,-3.0823 3.93489,1.22134 2.98888,1.72116 4.35187,-1.8273 -0.27945,1.04585 -0.27945,1.04585 0,0 -2.68575,0.83235 -4.0185,0.27234 z"
       id="path3867-9-9-9-8-7-5-6-6"
       inkscape:connector-curvature="0"
       sodipodi:nodetypes="ccccccc"
       inkscape:export-filename="C:\Users\Wessel\Documents\Unity Games\Experiments\Assets\RawRecources\BodyParts\PollinationOrgan\buttercup\icon.png"
       inkscape:export-xdpi="151.26161"
       inkscape:export-ydpi="151.26161"
       inkscape:transform-center-x="6.6238997"
       inkscape:transform-center-y="-4.1982123" />
    <path
       style="fill:#000000;fill-opacity:0.07536232;stroke:none;stroke-width:0.05883266px;stroke-linecap:butt;stroke-linejoin:miter;stroke-opacity:1"
       d="m -694.52496,586.6285 c 1.38223,0.64725 2.29708,3.09223 2.29708,3.09223 2.55001,-1.98613 3.61737,-0.10855 3.61737,-0.10855 0,0 2.32642,-1.14954 2.2552,-0.98007 -0.0712,0.16951 -1.74988,2.15626 -5.70671,2.02245 -1.83707,-0.43959 -4.29392,-4.4963 -3.71233,-5.88045 0.68006,0.14101 0.88397,1.2269 1.2494,1.85437 z"
       id="path3869-8-1-3-8-9-4-3-1"
       inkscape:connector-curvature="0"
       sodipodi:nodetypes="cccsccc"
       inkscape:export-filename="C:\Users\Wessel\Documents\Unity Games\Experiments\Assets\RawRecources\BodyParts\PollinationOrgan\buttercup\icon.png"
       inkscape:export-xdpi="151.26161"
       inkscape:export-ydpi="151.26161"
       inkscape:transform-center-x="6.6511117"
       inkscape:transform-center-y="-3.9511756" />
    <path
       style="fill:#bc374f;fill-opacity:1;stroke:none;stroke-width:0.06013155px;stroke-linecap:butt;stroke-linejoin:miter;stroke-opacity:1"
       d="m -692.21344,589.62711 c 0.16568,-0.92743 0.55244,-1.69553 0.79724,-1.59268 0.2448,0.1028 -0.23841,1.32896 -0.23841,1.32896 z"
       id="path3871-3-0-5-5-8-7-0-3"
       inkscape:connector-curvature="0"
       sodipodi:nodetypes="cccc"
       inkscape:export-filename="C:\Users\Wessel\Documents\Unity Games\Experiments\Assets\RawRecources\BodyParts\PollinationOrgan\buttercup\icon.png"
       inkscape:export-xdpi="151.26161"
       inkscape:export-ydpi="151.26161"
       inkscape:transform-center-x="7.323789"
       inkscape:transform-center-y="-2.8426023" />
    <path
       style="fill:url(#radialGradient1236);fill-opacity:1;stroke:none;stroke-width:0.48607311px;stroke-linecap:butt;stroke-linejoin:miter;stroke-opacity:1"
       d="m -716.07781,594.30207 c 1.89038,3.00736 4.42846,3.44458 5.18346,2.82011 -1.11706,-2.87842 -2.21121,-1.54438 -4.1444,-3.69249 2.15691,-0.30372 4.18851,-1.7929 4.15298,-3.48699 -0.21483,-0.42963 -1.89298,0.88338 -5.22943,2.63883 -3.6948,-0.68749 -5.05401,-2.89893 -5.13992,-1.61002 -0.25778,2.23399 3.95853,2.49679 3.95853,2.49679 0,0 -3.27205,2.82592 -2.36643,6.02124 1.3749,0 2.81184,-1.32086 3.58521,-5.18747 z"
       id="path3572-7"
       inkscape:connector-curvature="0"
       sodipodi:nodetypes="ccccccccc"
       inkscape:export-filename="C:\Users\Wessel\Documents\Unity Games\Experiments\Assets\RawRecources\BodyParts\PollinationOrgan\sad\icon.png"
       inkscape:export-xdpi="163.93135"
       inkscape:export-ydpi="163.93135" />
    <path
       style="fill:#bc374f;fill-opacity:1;stroke:none;stroke-width:0.75045162px;stroke-linecap:butt;stroke-linejoin:miter;stroke-opacity:1"
       d="m -716.15274,593.44999 0.21099,-0.0229 c 0.0939,-2.53286 -1.89964,-4.54968 -1.89964,-4.54968 l 0.21108,-0.14063 c -0.30489,-1.00844 -0.9146,-1.12567 -0.9146,-1.12567 0,0 -0.18751,0.31654 0.23455,1.41876 l 0.28143,-0.0705 c 0,0 1.93475,1.81746 1.87619,4.49092 z"
       id="path3574"
       inkscape:connector-curvature="0"
       sodipodi:nodetypes="ccccccccc"
       inkscape:export-filename="C:\Users\Wessel\Documents\Unity Games\Experiments\Assets\RawRecources\BodyParts\PollinationOrgan\sad\icon.png"
       inkscape:export-xdpi="163.93135"
       inkscape:export-ydpi="163.93135" />
    <path
       style="fill:#bc374f;fill-opacity:1;stroke:none;stroke-width:0.75045162px;stroke-linecap:butt;stroke-linejoin:miter;stroke-opacity:1"
       d="m -715.92581,593.48495 -0.21098,-0.0229 c -0.094,-2.5328 2.13416,-5.01861 2.13416,-5.01861 l -0.2111,-0.14064 c 0.30488,-1.00846 0.91459,-1.12572 0.91459,-1.12572 0,0 0.1876,0.31659 -0.23452,1.41878 l -0.28146,-0.0705 c 0,0 -2.16927,2.28645 -2.11069,4.95997 z"
       id="path3574-2"
       inkscape:connector-curvature="0"
       sodipodi:nodetypes="ccccccccc"
       inkscape:export-filename="C:\Users\Wessel\Documents\Unity Games\Experiments\Assets\RawRecources\BodyParts\PollinationOrgan\sad\icon.png"
       inkscape:export-xdpi="163.93135"
       inkscape:export-ydpi="163.93135" />
    <path
       style="fill:#bc374f;fill-opacity:1;stroke:none;stroke-width:0.75045162px;stroke-linecap:butt;stroke-linejoin:miter;stroke-opacity:1"
       d="m -715.90255,593.53189 -0.21099,-0.0229 c -0.0939,-2.53286 0.11735,-3.86958 0.11735,-3.86958 l -0.21108,-0.1406 c 0.30492,-1.00844 0.91463,-1.12573 0.91463,-1.12573 0,0 0.18756,0.31662 -0.23455,1.41873 l -0.28141,-0.0704 c 0,0 -0.15251,1.1373 -0.094,3.81091 z"
       id="path3574-2-4"
       inkscape:connector-curvature="0"
       sodipodi:nodetypes="ccccccccc"
       inkscape:export-filename="C:\Users\Wessel\Documents\Unity Games\Experiments\Assets\RawRecources\BodyParts\PollinationOrgan\sad\icon.png"
       inkscape:export-xdpi="163.93135"
       inkscape:export-ydpi="163.93135" />
    <path
       style="fill:url(#radialGradient1236-8);fill-opacity:1;stroke:none;stroke-width:0.9819845px;stroke-linecap:butt;stroke-linejoin:miter;stroke-opacity:1"
       d="m -801.37061,567.17283 c 3.81902,6.07559 8.94655,6.95888 10.47183,5.6973 -2.25673,-5.8151 -4.46717,-3.12001 -8.37268,-7.45971 4.35747,-0.61359 8.46179,-3.62209 8.39001,-7.04456 -0.434,-0.86796 -3.82427,1.78464 -10.5647,5.33107 -7.46438,-1.3889 -10.21032,-5.85654 -10.38387,-3.25263 -0.52078,4.5132 7.99718,5.04412 7.99718,5.04412 0,0 -6.61033,5.70904 -4.78076,12.16435 2.77763,0 5.68059,-2.66845 7.24299,-10.47994 z"
       id="path3572-7-1"
       inkscape:connector-curvature="0"
       sodipodi:nodetypes="ccccccccc"
       inkscape:export-filename="C:\Users\Wessel\Documents\Unity Games\Experiments\Assets\RawRecources\BodyParts\PollinationOrgan\sad\icon.png"
       inkscape:export-xdpi="163.93135"
       inkscape:export-ydpi="163.93135" />
    <path
       style="fill:#bc374f;fill-opacity:1;stroke:none;stroke-width:1.51609266px;stroke-linecap:butt;stroke-linejoin:miter;stroke-opacity:1"
       d="m -801.52199,565.45143 0.42625,-0.0463 c 0.1897,-5.11698 -3.83773,-9.19144 -3.83773,-9.19144 l 0.42643,-0.28411 c -0.61595,-2.03729 -1.84771,-2.27412 -1.84771,-2.27412 0,0 -0.37881,0.63948 0.47385,2.86623 l 0.56856,-0.14242 c 0,0 3.90866,3.6717 3.79035,9.07273 z"
       id="path3574-8"
       inkscape:connector-curvature="0"
       sodipodi:nodetypes="ccccccccc"
       inkscape:export-filename="C:\Users\Wessel\Documents\Unity Games\Experiments\Assets\RawRecources\BodyParts\PollinationOrgan\sad\icon.png"
       inkscape:export-xdpi="163.93135"
       inkscape:export-ydpi="163.93135" />
    <path
       style="fill:#bc374f;fill-opacity:1;stroke:none;stroke-width:1.51609266px;stroke-linecap:butt;stroke-linejoin:miter;stroke-opacity:1"
       d="m -801.06354,565.52206 -0.42623,-0.0463 c -0.1899,-5.11686 4.31152,-10.1388 4.31152,-10.1388 l -0.42647,-0.28412 c 0.61593,-2.03733 1.84769,-2.27423 1.84769,-2.27423 0,0 0.37899,0.63959 -0.47379,2.86628 l -0.56862,-0.14243 c 0,0 -4.38244,4.61918 -4.2641,10.02033 z"
       id="path3574-2-9"
       inkscape:connector-curvature="0"
       sodipodi:nodetypes="ccccccccc"
       inkscape:export-filename="C:\Users\Wessel\Documents\Unity Games\Experiments\Assets\RawRecources\BodyParts\PollinationOrgan\sad\icon.png"
       inkscape:export-xdpi="163.93135"
       inkscape:export-ydpi="163.93135" />
    <path
       style="fill:#bc374f;fill-opacity:1;stroke:none;stroke-width:1.51609266px;stroke-linecap:butt;stroke-linejoin:miter;stroke-opacity:1"
       d="m -801.01655,565.61689 -0.42625,-0.0463 c -0.1897,-5.11698 0.23708,-7.81748 0.23708,-7.81748 l -0.42643,-0.28405 c 0.61601,-2.03729 1.84777,-2.27424 1.84777,-2.27424 0,0 0.37891,0.63965 -0.47385,2.86618 l -0.56851,-0.14223 c 0,0 -0.30811,2.29762 -0.18991,7.69895 z"
       id="path3574-2-4-0"
       inkscape:connector-curvature="0"
       sodipodi:nodetypes="ccccccccc"
       inkscape:export-filename="C:\Users\Wessel\Documents\Unity Games\Experiments\Assets\RawRecources\BodyParts\PollinationOrgan\sad\icon.png"
       inkscape:export-xdpi="163.93135"
       inkscape:export-ydpi="163.93135" />
    <path
       style="fill:url(#radialGradient1236-8-9);fill-opacity:1;stroke:none;stroke-width:0.80592543px;stroke-linecap:butt;stroke-linejoin:miter;stroke-opacity:1"
       d="m -832.31655,549.3569 c 0.94061,5.81398 4.53255,8.12323 6.08911,7.65826 0.15656,-5.11691 -2.37675,-3.78804 -3.93853,-8.31795 3.48929,0.93153 7.55412,-0.0277 8.59571,-2.63703 -0.0501,-0.79486 -3.46133,0.12412 -9.69044,0.64588 -5.19595,-3.43956 -5.84051,-7.69486 -6.80539,-5.78271 -1.83861,3.24377 4.42822,6.37231 4.42822,6.37231 0,0 -6.82324,2.19764 -7.50758,7.66157 2.09898,0.88937 5.14709,-0.19763 8.8289,-5.60033 z"
       id="path3572-7-1-3"
       inkscape:connector-curvature="0"
       sodipodi:nodetypes="ccccccccc"
       inkscape:export-filename="C:\Users\Wessel\Documents\Unity Games\Experiments\Assets\RawRecources\BodyParts\PollinationOrgan\sad\icon.png"
       inkscape:export-xdpi="163.93135"
       inkscape:export-ydpi="163.93135" />
    <path
       style="fill:#bc374f;fill-opacity:1;stroke:none;stroke-width:1.2442739px;stroke-linecap:butt;stroke-linejoin:miter;stroke-opacity:1"
       d="m -831.87978,548.00761 0.33694,0.1015 c 1.78173,-3.80605 0.0429,-8.17456 0.0429,-8.17456 l 0.41321,-0.0781 c 0.18685,-1.73674 -0.66812,-2.31011 -0.66812,-2.31011 0,0 -0.49102,0.36195 -0.55966,2.31766 l 0.47525,0.0744 c 0,0 1.77805,4.02612 -0.0407,8.06968 z"
       id="path3574-8-8"
       inkscape:connector-curvature="0"
       sodipodi:nodetypes="ccccccccc"
       inkscape:export-filename="C:\Users\Wessel\Documents\Unity Games\Experiments\Assets\RawRecources\BodyParts\PollinationOrgan\sad\icon.png"
       inkscape:export-xdpi="163.93135"
       inkscape:export-ydpi="163.93135" />
    <path
       style="fill:#bc374f;fill-opacity:1;stroke:none;stroke-width:1.2442739px;stroke-linecap:butt;stroke-linejoin:miter;stroke-opacity:1"
       d="m -831.55595,548.20777 -0.30727,-0.17146 c 1.49485,-3.92749 6.50442,-6.28116 6.50442,-6.28116 l -0.2313,-0.35125 c 1.11778,-1.34235 2.12444,-1.12697 2.12444,-1.12697 0,0 0.0816,0.60467 -1.27578,2.01427 l -0.38408,-0.28969 c 0,0 -4.79072,2.0874 -6.43067,6.20681 z"
       id="path3574-2-9-9"
       inkscape:connector-curvature="0"
       sodipodi:nodetypes="ccccccccc"
       inkscape:export-filename="C:\Users\Wessel\Documents\Unity Games\Experiments\Assets\RawRecources\BodyParts\PollinationOrgan\sad\icon.png"
       inkscape:export-xdpi="163.93135"
       inkscape:export-ydpi="163.93135" />
    <path
       style="fill:#bc374f;fill-opacity:1;stroke:none;stroke-width:1.2442739px;stroke-linecap:butt;stroke-linejoin:miter;stroke-opacity:1"
       d="m -831.55081,548.29448 -0.30728,-0.17147 c 1.49504,-3.92752 2.68221,-5.83157 2.68221,-5.83157 l -0.23129,-0.35119 c 1.11782,-1.34229 2.1245,-1.12696 2.1245,-1.12696 0,0 0.0815,0.60469 -1.27579,2.01419 l -0.38408,-0.28952 c 0,0 -0.96849,1.63761 -2.60861,5.75712 z"
       id="path3574-2-4-0-1"
       inkscape:connector-curvature="0"
       sodipodi:nodetypes="ccccccccc"
       inkscape:export-filename="C:\Users\Wessel\Documents\Unity Games\Experiments\Assets\RawRecources\BodyParts\PollinationOrgan\sad\icon.png"
       inkscape:export-xdpi="163.93135"
       inkscape:export-ydpi="163.93135" />
    <path
       style="fill:url(#radialGradient1236-81);fill-opacity:1;stroke:none;stroke-width:0.48607311px;stroke-linecap:butt;stroke-linejoin:miter;stroke-opacity:1"
       d="m -758.60574,591.8597 c 3.05304,1.81568 5.51155,1.0484 5.89908,0.1485 -2.30591,-2.05326 -2.67202,-0.3672 -5.37166,-1.3985 1.78161,-1.25316 2.91151,-3.50446 2.10797,-4.99628 -0.387,-0.28456 -1.28254,1.64888 -3.45264,4.73177 -3.60222,1.07156 -5.81977,-0.27765 -5.30895,0.90883 0.78845,2.10606 4.66138,0.41883 4.66138,0.41883 0,0 -1.62501,4.00643 0.63708,6.43813 1.22388,-0.62648 1.90114,-2.45699 0.82774,-6.25128 z"
       id="path3572-7-7"
       inkscape:connector-curvature="0"
       sodipodi:nodetypes="ccccccccc"
       inkscape:export-filename="C:\Users\Wessel\Documents\Unity Games\Experiments\Assets\RawRecources\BodyParts\PollinationOrgan\sad\icon.png"
       inkscape:export-xdpi="163.93135"
       inkscape:export-ydpi="163.93135" />
    <path
       style="fill:#bc374f;fill-opacity:1;stroke:none;stroke-width:0.75045162px;stroke-linecap:butt;stroke-linejoin:miter;stroke-opacity:1"
       d="m -759.06069,591.13536 0.17738,-0.11652 c -1.07052,-2.29744 -3.76405,-3.18437 -3.76405,-3.18437 l 0.12382,-0.22136 c -0.7309,-0.75875 -1.32705,-0.58529 -1.32705,-0.58529 0,0 -0.0227,0.36721 0.85524,1.15605 l 0.2184,-0.19099 c 0,0 2.55036,0.73626 3.71639,3.14275 z"
       id="path3574-4"
       inkscape:connector-curvature="0"
       sodipodi:nodetypes="ccccccccc"
       inkscape:export-filename="C:\Users\Wessel\Documents\Unity Games\Experiments\Assets\RawRecources\BodyParts\PollinationOrgan\sad\icon.png"
       inkscape:export-xdpi="163.93135"
       inkscape:export-ydpi="163.93135" />
    <path
       style="fill:#bc374f;fill-opacity:1;stroke:none;stroke-width:0.75045162px;stroke-linecap:butt;stroke-linejoin:miter;stroke-opacity:1"
       d="m -758.84276,591.06308 -0.19824,0.0758 c -1.23775,-2.21177 -0.38699,-5.43979 -0.38699,-5.43979 l -0.252,-0.029 c -0.18811,-1.03661 0.3012,-1.4188 0.3012,-1.4188 0,0 0.31125,0.19633 0.43771,1.3698 l -0.28267,0.0655 c 0,0 -0.88917,3.02373 0.38116,5.3769 z"
       id="path3574-2-93"
       inkscape:connector-curvature="0"
       sodipodi:nodetypes="ccccccccc"
       inkscape:export-filename="C:\Users\Wessel\Documents\Unity Games\Experiments\Assets\RawRecources\BodyParts\PollinationOrgan\sad\icon.png"
       inkscape:export-xdpi="163.93135"
       inkscape:export-ydpi="163.93135" />
    <path
       style="fill:#bc374f;fill-opacity:1;stroke:none;stroke-width:0.75045162px;stroke-linecap:butt;stroke-linejoin:miter;stroke-opacity:1"
       d="m -758.80067,591.09426 -0.19825,0.0758 c -1.23768,-2.21187 -1.65871,-3.49801 -1.65871,-3.49801 l -0.25196,-0.029 c -0.18807,-1.03661 0.30122,-1.41883 0.30122,-1.41883 0,0 0.31123,0.19638 0.43766,1.36977 l -0.28257,0.0656 c 0,0 0.38245,1.08187 1.65276,3.43515 z"
       id="path3574-2-4-8"
       inkscape:connector-curvature="0"
       sodipodi:nodetypes="ccccccccc"
       inkscape:export-filename="C:\Users\Wessel\Documents\Unity Games\Experiments\Assets\RawRecources\BodyParts\PollinationOrgan\sad\icon.png"
       inkscape:export-xdpi="163.93135"
       inkscape:export-ydpi="163.93135" />
    <g
       id="g1240"
       transform="translate(-466.725,-30.427087)" />
  </g>
</svg>
