<?xml version="1.0" encoding="UTF-8" standalone="no"?>
<!-- Created with Inkscape (http://www.inkscape.org/) -->

<svg
   xmlns:dc="http://purl.org/dc/elements/1.1/"
   xmlns:cc="http://creativecommons.org/ns#"
   xmlns:rdf="http://www.w3.org/1999/02/22-rdf-syntax-ns#"
   xmlns:svg="http://www.w3.org/2000/svg"
   xmlns="http://www.w3.org/2000/svg"
   xmlns:xlink="http://www.w3.org/1999/xlink"
   xmlns:sodipodi="http://sodipodi.sourceforge.net/DTD/sodipodi-0.dtd"
   xmlns:inkscape="http://www.inkscape.org/namespaces/inkscape"
   width="264.86343mm"
   height="1000mm"
   viewBox="0 0 264.86343 1000"
   version="1.1"
   id="svg8"
   inkscape:version="0.92.2 (5c3e80d, 2017-08-06)"
   sodipodi:docname="flower_mg.svg">
  <defs
     id="defs2">
    <linearGradient
       inkscape:collect="always"
       id="linearGradient1123">
      <stop
         style="stop-color:#000000;stop-opacity:0.61449277"
         offset="0"
         id="stop1119" />
      <stop
         style="stop-color:#000000;stop-opacity:0;"
         offset="1"
         id="stop1121" />
    </linearGradient>
    <linearGradient
       id="linearGradient944"
       inkscape:collect="always">
      <stop
         id="stop940"
         offset="0"
         style="stop-color:#fe849a;stop-opacity:1" />
      <stop
         id="stop942"
         offset="1"
         style="stop-color:#b93c4c;stop-opacity:1" />
    </linearGradient>
    <linearGradient
       inkscape:collect="always"
       id="linearGradient1104">
      <stop
         style="stop-color:#bc374f;stop-opacity:1;"
         offset="0"
         id="stop1100" />
      <stop
         style="stop-color:#e68f80;stop-opacity:1"
         offset="1"
         id="stop1102" />
    </linearGradient>
    <linearGradient
       inkscape:collect="always"
       id="linearGradient889">
      <stop
         style="stop-color:#f7ad4c;stop-opacity:1"
         offset="0"
         id="stop885" />
      <stop
         style="stop-color:#fbe1bc;stop-opacity:1"
         offset="1"
         id="stop887" />
    </linearGradient>
    <linearGradient
       inkscape:collect="always"
       xlink:href="#linearGradient1104"
       id="linearGradient1089"
       x1="-894.70496"
       y1="514.42358"
       x2="-824.802"
       y2="513.35449"
       gradientUnits="userSpaceOnUse"
       gradientTransform="translate(2.0579753,-538.27823)" />
    <radialGradient
       inkscape:collect="always"
       xlink:href="#linearGradient944"
       id="radialGradient938"
       cx="-2736.3684"
       cy="2053.3647"
       fx="-2736.3684"
       fy="2053.3647"
       r="532.48431"
       gradientTransform="matrix(0.27484292,-0.00171063,0.00109944,0.19498234,31.542152,-414.77842)"
       gradientUnits="userSpaceOnUse" />
    <linearGradient
       inkscape:collect="always"
       xlink:href="#linearGradient889"
       id="linearGradient1050-4-7-7-1-9-6"
       x1="-716.15533"
       y1="248.84171"
       x2="-717.35889"
       y2="232.36172"
       gradientUnits="userSpaceOnUse"
       gradientTransform="matrix(0.26714662,0.14873154,-0.14873154,0.26714662,-510.19995,85.92464)" />
    <linearGradient
       inkscape:collect="always"
       xlink:href="#linearGradient889"
       id="linearGradient1050-4-7-7-1-9-6-9"
       x1="-716.15533"
       y1="248.84171"
       x2="-717.35889"
       y2="232.36172"
       gradientUnits="userSpaceOnUse"
       gradientTransform="matrix(0.29372974,-0.08491893,0.08491893,0.29372974,-512.00966,-88.929585)" />
    <linearGradient
       inkscape:collect="always"
       xlink:href="#linearGradient889"
       id="linearGradient1050-4-7-7-1-9-6-9-6"
       x1="-716.15533"
       y1="248.84171"
       x2="-717.35889"
       y2="232.36172"
       gradientUnits="userSpaceOnUse"
       gradientTransform="matrix(0.28188557,0.11844372,-0.11844372,0.28188557,-461.02318,64.436882)" />
    <radialGradient
       inkscape:collect="always"
       xlink:href="#linearGradient889"
       id="radialGradient1236"
       cx="-716.07587"
       cy="594.67511"
       fx="-716.07587"
       fy="594.67511"
       r="5.1905828"
       gradientTransform="matrix(2.9917207,-0.11139452,0.05961263,1.6010152,1392.8309,-975.45399)"
       gradientUnits="userSpaceOnUse" />
    <radialGradient
       inkscape:collect="always"
       xlink:href="#linearGradient889"
       id="radialGradient1236-8"
       cx="-716.07587"
       cy="594.67511"
       fx="-716.07587"
       fy="594.67511"
       r="5.1905828"
       gradientTransform="matrix(6.0439947,-0.2250437,0.12043184,3.2344354,3457.0325,-2054.9533)"
       gradientUnits="userSpaceOnUse" />
    <radialGradient
       inkscape:collect="always"
       xlink:href="#linearGradient889"
       id="radialGradient1236-8-9"
       cx="-716.07587"
       cy="594.67511"
       fx="-716.07587"
       fy="594.67511"
       r="5.1905828"
       gradientTransform="matrix(4.6393598,1.7651488,-0.94461689,2.482747,3053.3769,-200.797)"
       gradientUnits="userSpaceOnUse" />
    <radialGradient
       inkscape:collect="always"
       xlink:href="#linearGradient889"
       id="radialGradient1236-81"
       cx="-716.07587"
       cy="594.67511"
       fx="-716.07587"
       fy="594.67511"
       r="5.1905828"
       gradientTransform="matrix(2.6123493,-1.4623381,0.78256823,1.3979951,648.89043,-1824.6002)"
       gradientUnits="userSpaceOnUse" />
    <linearGradient
       inkscape:collect="always"
       xlink:href="#linearGradient1123"
       id="linearGradient1127"
       x1="-1059.0892"
       y1="901.00598"
       x2="-1068.1608"
       y2="671.19647"
       gradientUnits="userSpaceOnUse"
       gradientTransform="matrix(0.88282242,0,0,1.3102679,191.85022,-778.68392)" />
  </defs>
  <sodipodi:namedview
     id="base"
     pagecolor="#ffffff"
     bordercolor="#666666"
     borderopacity="1.0"
     inkscape:pageopacity="0.0"
     inkscape:pageshadow="2"
     inkscape:zoom="0.50000001"
     inkscape:cx="500.02991"
     inkscape:cy="3608.2152"
     inkscape:document-units="mm"
     inkscape:current-layer="layer1"
     showgrid="false"
     inkscape:window-width="1920"
     inkscape:window-height="1001"
     inkscape:window-x="-9"
     inkscape:window-y="-9"
     inkscape:window-maximized="1"
     inkscape:snap-nodes="false"
     showguides="true"
     inkscape:guide-bbox="true"
     fit-margin-top="0"
     fit-margin-left="0"
     fit-margin-right="0"
     fit-margin-bottom="0" />
  <metadata
     id="metadata5">
    <rdf:RDF>
      <cc:Work
         rdf:about="">
        <dc:format>image/svg+xml</dc:format>
        <dc:type
           rdf:resource="http://purl.org/dc/dcmitype/StillImage" />
        <dc:title></dc:title>
      </cc:Work>
    </rdf:RDF>
  </metadata>
  <g
     inkscape:label="Layer 1"
     inkscape:groupmode="layer"
     id="layer1"
     transform="translate(850.5257,154.93457)">
    <path
       style="fill:url(#linearGradient1089);fill-opacity:1;stroke-width:0.15805936"
       d="m -836.40885,-58.911546 c -0.3712,-0.0534 -0.66882,-0.0151 -1.23392,0.0984 -1.32931,0.26668 -2.26682,0.601627 -3.53106,1.261154 -0.96885,0.505367 -1.05547,0.595397 -1.33294,1.384111 l -0.29677,0.843547 -4.04411,-0.33346 c -2.22432,-0.183407 -4.07951,-0.301347 -4.12247,-0.262057 -0.043,0.0394 -0.17151,0.213957 -0.28567,0.387927 -0.36372,0.554237 0.13393,0.868714 2.51215,1.588051 0.38151,0.11514 1.75374,0.330117 3.0495,0.477067 l 2.35592,0.26723 -1.20518,0.132917 c -0.9227,0.10186 -1.89628,0.0521 -4.15353,-0.213087 -1.94096,-0.22801 -3.26259,-0.31053 -3.86795,-0.24132 -0.50575,0.0578 -0.95577,0.10888 -0.99996,0.11358 -0.0442,0.005 -0.33599,0.0625 -0.64859,0.12801 -0.31258,0.0657 -0.76981,0.142957 -1.01613,0.171907 -0.27444,0.0321 -0.5207,0.19708 -0.63558,0.42604 -0.1679,0.334647 -0.27727,0.364537 -1.04918,0.285707 -0.65988,-0.0674 -1.00679,-0.01 -1.48109,0.24599 -0.34296,0.184907 -0.84504,0.310907 -1.12488,0.282337 -0.51627,-0.0526 -1.06124,0.25658 -1.64364,0.932624 -0.27145,0.31501 -0.34841,0.32912 -0.69497,0.12643 -0.28309,-0.16524 -0.52166,-0.19068 -1.08758,-0.098 -0.36305,1.795861 2.33193,2.147758 2.55046,2.519495 -0.0941,-0.245727 -0.14785,-0.456827 -0.11892,-0.476077 0.0303,-0.02 0.47425,0.0615 0.9863,0.18137 0.51208,0.11998 2.04428,0.337867 3.40496,0.484207 l 2.47398,0.26595 0.33678,-0.561487 c 0.27628,-0.460337 0.43137,-0.560847 0.86322,-0.558227 l 0.52657,0.003 -0.29538,0.364247 c -0.28054,0.345677 -0.27971,0.371137 0.0208,0.501407 0.37067,0.16078 1.16943,0.0942 1.7974,-0.14975 0.46516,-0.180687 0.7338,-0.594777 0.80878,-1.246801 0.0308,-0.26894 0.1886,-0.440997 0.51096,-0.557907 0.63688,-0.23099 0.69027,-0.0848 0.22656,0.619557 -0.38552,0.585557 -0.388,0.603024 -0.11072,0.789914 0.40726,0.27457 0.70612,0.27438 1.41348,3e-5 0.80434,-0.311967 1.88608,-1.289391 2.0634,-1.864368 0.0761,-0.24648 0.2644,-0.536747 0.41842,-0.645247 0.2804,-0.19766 2.46284,-0.733157 2.53007,-0.620797 0.0195,0.033 0.16104,0.427217 0.31423,0.876444 0.17504,0.513557 0.79119,1.464914 1.65923,2.562228 1.743,2.203325 1.80845,2.473385 1.46517,6.034384 -0.13294,1.379254 -0.34547,2.818625 -0.47249,3.198862 -0.12694,0.380277 -0.33774,1.247644 -0.4683,1.927338 -0.13057,0.679697 -0.37089,1.548864 -0.53423,1.931451 -0.16335,0.382587 -0.77939,1.968918 -1.3691,3.525309 -1.29246,3.063271 -15.42116,40.3600611 -17.97878,41.3918545 5.34938,0.8878035 9.62626,1.6240405 13.09322,2.1718975 -1.31603,-1.257824 11.52157,-39.773144 11.52157,-39.773144 0.0227,-0.900064 -0.25637,-2.434354 0.14394,-4.692112 0.27002,-1.512241 0.40319,-2.900715 0.47516,-4.951253 0.12928,-3.682669 0.13602,-3.918686 0.14642,-5.16913 0.008,-1.020874 0.0205,-1.054164 0.40472,-1.109954 0.21785,-0.0315 0.53104,-0.0891 0.69606,-0.12814 0.27922,-0.066 0.27775,-0.0569 -0.0243,0.13251 -0.72756,0.456207 -0.30782,0.750407 2.82966,1.982308 2.18313,0.857197 3.51883,1.021964 4.60184,0.566667 0.41084,-0.172617 0.98523,-0.409317 1.27633,-0.525967 0.48726,-0.195267 0.53254,-0.269427 0.5717,-0.934024 0.0368,-0.625547 -0.0205,-0.771007 -0.42979,-1.090874 -0.51236,-0.400397 -0.59709,-0.620447 -0.22447,-0.582417 0.40208,0.0411 0.31584,-0.517267 -0.16741,-1.083624 -0.73425,-0.860544 -1.9148,-1.635921 -3.42983,-2.252738 -0.77312,-0.314767 -1.42538,-0.587594 -1.44962,-0.606634 -0.0242,-0.0192 0.16334,-0.28225 0.41717,-0.584547 0.25364,-0.30239 0.47094,-0.646057 0.48296,-0.763707 0.0122,-0.11762 0.0763,-0.208507 0.14281,-0.201727 0.37446,0.0383 2.61958,1.002284 3.95592,1.698548 1.19895,0.624647 1.55491,0.883567 1.58041,1.149094 2.33507,1.841671 5.22899,3.169662 6.41834,2.712985 0.12119,-0.471487 0.14674,-0.484077 0.57246,-0.285057 0.45229,0.211327 2.6629,0.364697 2.98735,0.207267 0.0974,-0.0473 0.19067,-0.220167 0.20747,-0.384377 0.0348,-0.340217 -0.6891,-0.899884 -2.25463,-1.742691 l -1.02599,-0.552227 c -1.91948,-0.532417 -4.00797,-2.445485 -6.98253,-1.928468 -0.0475,-0.005 -0.32055,-0.27964 -0.60697,-0.610907 -0.67311,-0.778524 -1.87723,-1.279504 -3.54978,-1.476151 -0.89355,-0.10509 -1.33926,-0.22288 -1.41257,-0.373827 -0.0589,-0.12131 -0.17206,-0.803397 -0.25145,-1.515504 -0.0831,-0.745794 -0.26088,-1.446631 -0.41927,-1.653008 -0.15122,-0.19705 -0.58943,-0.836137 -0.97369,-1.420104 -0.38424,-0.583967 -0.80771,-1.105624 -0.941,-1.159534 -0.69215,-0.279777 -2.10084,-1.002654 -4.04598,-1.372901 -0.34932,-0.10134 -0.5986,-0.16622 -0.82136,-0.19808 z m -16.38725,7.113341 c 0.14248,0.0146 0.2782,0.0384 0.37297,0.067 0.1897,0.0568 -0.009,0.0668 -0.44127,0.0214 -0.43219,-0.046 -0.58741,-0.092 -0.34479,-0.10355 0.12134,-0.005 0.27051,5.9e-4 0.41299,0.0159 z m 23.84367,5.752977 c 0.35116,0.0358 1.87521,0.709567 2.29365,1.014004 0.40984,0.29821 -0.0549,0.19073 -1.27749,-0.295557 -1.11404,-0.443057 -1.58587,-0.776637 -1.01616,-0.718477 z m -3.93029,-0.14435 c 0.0152,-6e-4 0.0294,10e-4 0.0424,0.005 0.0147,0.003 0.0273,0.01 0.0383,0.0179 0.10075,0.0773 0.0729,0.13794 -0.078,0.16861 -0.12941,0.0262 -0.34949,0.11436 -0.4889,0.19616 -0.13931,0.0819 -0.10438,0.006 0.078,-0.1683 0.13968,-0.13357 0.30138,-0.21689 0.40835,-0.21869 z m 0.16122,1.824971 c 0.0865,0.008 0.15012,0.0866 0.14116,0.17331 -0.008,0.0865 -0.0866,0.150127 -0.17331,0.141157 -0.0866,-0.008 -0.15011,-0.0866 -0.14116,-0.173307 0.008,-0.0865 0.0866,-0.15012 0.17331,-0.14116 z"
       id="path893"
       inkscape:connector-curvature="0"
       sodipodi:nodetypes="ccccccccccccscccccscscccccccccsccccccccccccccsccscccccccccccccccsscscsscccccsccccccccsccccsccccsscscsscsccssscsssc" />
    <path
       style="fill:url(#radialGradient938);fill-opacity:1;stroke:none;stroke-width:0.28574064px;stroke-linecap:butt;stroke-linejoin:miter;stroke-opacity:1"
       d="m -633.76211,-64.184807 c -13.82155,11.518298 14.70773,32.495438 18.04849,47.096852 l -22.43428,-25.823541 c -9.8339,-9.742843 -12.83126,-2.953502 -12.83126,-2.953502 0,0 -4.52647,11.947711 28.26753,35.476147 -2.027,1.4592307 -3.56204,3.7358781 -4.03283,5.9835425 -10.7065,-4.1596045 -36.93936,-30.6349325 -36.93936,-30.6349325 0,0 -21.66964,18.734703 34.03566,35.5326126 -0.0101,0.0108 -0.0127,0.0213 -0.0206,0.032 -7.89749,-2.1121366 -37.62555,-9.0441646 -34.31574,7.3375938 12.3734,7.8808936 27.75249,0.0707 31.53399,-2.0875268 -1.69569,2.3733168 -2.71219,4.4551534 -3.09438,9.4734234 -11.5996,1.651431 -47.10668,-7.7860133 -47.10668,-7.7860133 0,0 -10.41884,28.1062883 48.15417,13.0176033 0,0 -40.55057,10.058902 -28.44168,24.555831 16.61451,0.591707 27.05674,-18.934961 27.05674,-18.934961 -2.828,7.976814 -3.48951,13.179844 -0.46146,20.218985 0,0 -17.76465,-5.956637 -32.12777,2.779752 0,0 -35.1517,-17.075981 -54.80645,-3.177182 0,0 -21.54487,-11.118957 -39.30976,0.794287 0,0 -10.20514,-5.16217 -16.25274,-0.396857 -3.63159,-4.360476 -12.2464,-5.5409 -17.29507,-5.852707 7.66746,-4.104839 9.87089,-5.865757 8.87439,-16.477146 2.06015,8.666878 8.67169,16.313156 15.2337,15.441232 1.53318,-1.029137 -3.88652,-7.027701 -11.6794,-19.123321 8.67558,0.690514 15.9856,6.568821 15.9856,6.568821 l -0.1597,1.177034 c 4.45113,1.248697 5.60482,0.347467 5.60482,0.347467 0,0 -0.70546,-2.436605 -4.74493,-3.247209 l -0.4599,0.922964 c 0,0 -6.47702,-4.901493 -13.98778,-6.330464 5.72096,-0.561527 8.2894,-0.488087 8.28942,-0.488087 l -0.15814,1.177061 c 4.45098,1.248644 5.60324,0.348 5.60327,0.348 0,0 -0.70385,-2.436378 -4.74337,-3.247212 l -0.4594,0.921884 c 0,0 -3.0331,-0.16084 -8.74934,0.396327 6.62596,-2.726412 10.95488,-8.250222 10.95488,-8.250222 l 0.63201,0.801894 c 3.79034,-1.6762675 3.99511,-4.2141643 3.99511,-4.2141643 0,0 -1.30596,-0.6279734 -5.41259,1.5663401 l 0.38913,1.1162334 c 0,0 -4.90755,6.7732138 -13.23692,8.9696188 1.26807,-15.0740192 9.10159,-21.4650694 4.10723,-21.2640594 -3.76597,-0.0397 -5.78376,3.12491 -6.86366,6.7501369 -2.82977,-3.6022869 -3.35942,-6.3828902 -7.90599,-9.2780038 5.63097,0.1356301 12.49752,-0.4949866 14.9283,-4.031735 -2.35027,-2.5614847 -5.13009,-3.6641287 -7.86826,-3.9638587 6.32499,-4.8251 12.7839,-16.865873 10.86601,-19.319867 -5.20914,-5.2838 -24.053,11.340695 -20.60959,16.790412 0,0 -0.0925,0.12283 -0.0992,0.13027 l -0.0274,-0.0592 -0.90485,1.219394 c -0.4149,0.522627 -0.80836,1.028324 -1.43558,1.850288 0.98391,-9.172616 1.35819,-8.673059 -3.06491,-18.290473 -5.17564,8.26795 -4.11305,15.617688 -2.45411,20.170074 -5.67031,-2.351708 -6.49904,-0.603767 -13.79244,-1.002764 0,0 7.80407,7.1265965 13.88287,6.8456698 l -0.0553,0.1134796 c -1.21372,1.9336972 -2.33915,3.91867391 -3.17552,5.7712739 -2.88124,-6.8204973 -7.9923,-9.4169347 -15.33549,-5.0171601 -1.01415,-3.2843711 -1.60436,-6.4066122 -1.94046,-9.1683072 l -0.0512,-1.221571 c 3.28525,0.649237 9.29945,1.010754 18.10589,-1.636371 -6.81127,-0.454037 -8.57607,-3.321442 -15.05646,-2.329678 4.52464,-3.739969 9.55048,-8.928448 9.27852,-13.37813 -3.43887,-0.41433 -6.31402,0.613984 -8.65892,2.248224 2.0016,-8.126091 -0.35658,-22.032233 -3.38791,-22.65719 l -0.004,-0.003 c -7.37819,-0.608237 -11.94861,25.375664 -5.86012,27.320902 0,0 0.003,0.15941 0,0.16994 l -0.0574,-0.0282 0.0413,1.579371 c -0.004,0.695547 -0.003,1.362604 0.0119,2.439348 -4.9013,-7.905844 -4.2972,-7.765917 -13.73767,-12.328669 1.03569,10.056021 6.42282,15.125821 10.5487,17.582499 -5.92725,2.019158 -5.49841,3.963976 -11.49696,8.6319278 0,0 10.56529,0.28783 15.18512,-4.0865748 l 0.0265,5.6881958 c 0.11756,1.1546234 -6.65139,-2.0838477 -8.56176,3.3753402 -6.61527,-4.2276842 -9.13185,2.2247266 -8.8837,3.26024 -5.41906,17.594046 -5.63153,27.945685 -1.92805,33.872352 l -8.31171,810.395823 284.31342,1.1913 -9.58539,-819.1229 -2.66394,0.483757 c 26.81063,-21.3876553 19.21381,-66.210153 -19.19935,-48.996521 -2.39252,-21.481988 -27.71177,-43.721273 -27.71511,-43.724193 z m -165.91701,60.2366251 c 1.88111,2.3679369 5.56922,5.9995336 12.24473,9.4381438 -1.09082,4.5240001 -0.89813,9.3067631 -0.89813,9.3067631 -1.77556,-1.596361 -2.89369,-6.8916296 -7.86257,-5.2435295 -0.32202,-5.181197 -4.44317,-7.8663305 -8.51421,-5.9449937 1.18018,-3.1423802 2.96259,-4.29692349 4.34496,-6.6013969 z"
       id="path1071-7"
       inkscape:connector-curvature="0"
       sodipodi:nodetypes="cccccccccccccccccccccccccccccccccccccccccccccccccccccccccccccccccccccccccccccccccccccccccccccccc" />
    <rect
       style="opacity:1;fill:url(#linearGradient1127);fill-opacity:1;stroke:none;stroke-width:0.91215086;stroke-linecap:round;stroke-linejoin:round;stroke-miterlimit:4;stroke-dasharray:none;stroke-dashoffset:0;stroke-opacity:1;paint-order:stroke fill markers"
       id="rect1117"
       width="271.84805"
       height="761.77533"
       x="-850.58435"
       y="84.917046"
       ry="1.7333752" />
    <path
       style="fill:#b93c4c;fill-opacity:1;fill-rule:evenodd;stroke:none;stroke-width:5.74349356px;stroke-linecap:butt;stroke-linejoin:miter;stroke-opacity:1"
       d="m -801.27259,86.885944 c 0,0 5.35047,-7.390156 5.45239,-10.048511 -0.32513,-4.246896 -2.69924,-8.977759 -1.67338,-15.544613 0.97749,-4.221816 3.88534,-3.822389 3.59701,-0.910744 -0.0657,1.415841 1.68059,5.997957 2.28753,7.030321 0.62955,1.713988 2.74075,0.972544 1.62965,-2.229798 -2.63089,-3.986269 -2.2758,-8.866789 -2.2758,-8.866789 0.45005,-4.389556 3.44862,-4.637556 3.25869,-2.345328 0.1491,4.307566 1.91936,7.061331 1.91936,7.061331 0.85043,1.895018 2.4844,-0.031 2.07841,-1.987431 -0.92793,-3.514069 -2.77505,-3.780186 -2.24442,-8.597739 0.68955,-3.267182 10.3716,-3.407432 14.62736,-0.568327 5.12184,3.951306 6.13428,14.148839 3.10293,14.553606 -3.00157,0.23159 -4.43994,0.608257 -6.61226,0.37633 -3.22595,-0.26037 -4.31765,2.368515 -2.29642,2.275795 l 6.44595,0.0285 c 5.67383,0.19359 -0.0591,4.710643 -2.75002,4.519476 -1.78857,0.440807 -6.79142,0.0557 -7.5979,-0.44014 -2.07416,-0.669704 -2.65493,2.079231 -1.06506,2.534228 2.35318,1.016154 7.92099,0.132977 7.92099,0.132977 6.08708,-1.012094 0.20364,3.986149 -1.95438,4.498336 -6.44527,1.992338 -9.72202,0.1932 -14.16431,1.779901 -3.28725,1.680717 -7.66442,8.38297 -7.66442,8.38297 z"
       id="path5161-5"
       inkscape:connector-curvature="0"
       sodipodi:nodetypes="cccccccccccccccccccccccc"
       inkscape:export-filename="C:\Users\Wessel\Documents\Unity Games\Experiments\Assets\Resources\tropical.png"
       inkscape:export-xdpi="168.40759"
       inkscape:export-ydpi="168.40759" />
    <path
       style="fill:#b93c4c;fill-opacity:1;fill-rule:evenodd;stroke:none;stroke-width:5.74349403px;stroke-linecap:butt;stroke-linejoin:miter;stroke-opacity:1"
       d="m -624.30116,82.342759 c 0,0 -3.21609,-8.538048 -5.37782,-10.088602 -3.72251,-2.070008 -8.97838,-2.697322 -13.89169,-7.173438 -2.98347,-3.142962 -1.04715,-5.34882 1.22314,-3.503109 1.14504,0.835354 5.9307,1.904468 7.12662,1.967228 1.77708,0.419657 2.32235,-1.750491 -0.96196,-2.588895 -4.7762,-0.003 -8.65236,-2.989435 -8.65236,-2.989435 -3.41418,-2.795392 -1.96802,-5.433847 -0.16027,-4.011706 3.67608,2.250308 6.94952,2.291478 6.94952,2.291478 2.04989,0.335187 1.34376,-2.089848 -0.51235,-2.829685 -3.44341,-1.163084 -4.68373,0.23129 -8.41058,-2.867282 -2.34574,-2.376458 2.87485,-10.531613 7.58972,-12.517071 6.12026,-2.094898 15.18641,2.682195 13.85297,5.43442 -1.46151,2.631915 -1.94021,4.039616 -3.33128,5.724147 -1.99566,2.547905 -0.40417,4.907993 0.63275,3.170542 l 3.57735,-5.36221 c 3.28943,-4.627013 3.89761,2.646225 2.25464,4.785903 -0.61824,1.735231 -3.69756,5.696857 -4.55585,6.096367 -1.70221,1.361291 0.27111,3.361279 1.5272,2.285675 2.14508,-1.403091 4.4777,-6.535251 4.4777,-6.535251 2.51132,-5.63647 3.43798,2.027608 2.67562,4.110436 -1.89095,6.475704 -5.19844,8.217682 -6.32361,12.798668 -0.40997,3.669139 2.76876,11.015936 2.76876,11.015936 z"
       id="path5161-5-7"
       inkscape:connector-curvature="0"
       sodipodi:nodetypes="cccccccccccccccccccccccc"
       inkscape:export-filename="C:\Users\Wessel\Documents\Unity Games\Experiments\Assets\Resources\tropical.png"
       inkscape:export-xdpi="168.40759"
       inkscape:export-ydpi="168.40759" />
    <path
       style="fill:#b93c4c;fill-opacity:1;fill-rule:evenodd;stroke:none;stroke-width:5.74349451px;stroke-linecap:butt;stroke-linejoin:miter;stroke-opacity:1"
       d="m -628.40747,88.630905 c 0,0 -6.96008,-5.899096 -9.60289,-6.203706 -4.25935,-9e-5 -9.1577,2.005857 -15.62709,0.481577 -4.13488,-1.296981 -3.51459,-4.165845 -0.63344,-3.656038 1.4067,0.17362 6.10881,-1.217701 7.1845,-1.744028 1.75706,-0.496847 1.17897,-2.658485 -2.09887,-1.795151 -4.17573,2.318488 -9.01472,1.592131 -9.01472,1.592131 -4.34241,-0.783917 -4.36074,-3.792639 -2.08968,-3.428252 4.30639,0.18025 7.1873,-1.374571 7.1873,-1.374571 1.95445,-0.703247 0.15879,-2.479505 -1.82294,-2.224078 -3.57468,0.656897 -3.98106,2.478298 -8.74406,1.581381 -3.20501,-0.936994 -2.60558,-10.60145 0.5502,-14.627976 4.33087,-4.805153 14.576,-5.036003 14.74812,-1.982618 0.002,3.010472 0.26748,4.473403 -0.12963,6.621651 -0.50593,3.196632 2.03193,4.485876 2.09381,2.463475 l 0.52059,-6.424921 c 0.62625,-5.64245 4.69242,0.418597 4.29634,3.087062 0.30296,1.816988 -0.46302,6.775801 -1.01899,7.542078 -0.82613,2.016958 1.87045,2.805912 2.44551,1.255431 1.19288,-2.268718 0.73741,-7.887665 0.73741,-7.887665 -0.54437,-6.146544 3.99007,0.10131 4.336,2.292138 1.4944,6.578531 -0.54969,9.708323 0.6932,14.258779 1.42482,3.405968 7.77331,8.2821 7.77331,8.2821 z"
       id="path5161-5-7-7"
       inkscape:connector-curvature="0"
       sodipodi:nodetypes="cccccccccccccccccccccccc"
       inkscape:export-filename="C:\Users\Wessel\Documents\Unity Games\Experiments\Assets\Resources\tropical.png"
       inkscape:export-xdpi="168.40759"
       inkscape:export-ydpi="168.40759" />
    <path
       style="fill:#b93c4c;fill-opacity:1;stroke:none;stroke-width:1.15048194px;stroke-linecap:butt;stroke-linejoin:miter;stroke-opacity:1"
       d="m -696.13504,54.902846 c -5.40503,0.877187 -4.35581,19.455272 0.34532,19.718989 0,0 0.026,0.11129 0.0275,0.11843 -0.003,-7e-4 -0.0463,-0.0102 -0.0463,-0.0102 l 0.29136,1.068744 c 0.11322,0.478997 0.22624,0.936394 0.41801,1.677251 -5.04154,-4.725073 -4.29286,-4.548666 -11.93253,-6.033657 2.41836,6.687901 7.13285,9.223749 10.50737,10.184882 -3.91414,2.416938 -3.28583,3.675168 -6.81633,7.917254 0,0 7.64264,-1.655801 10.23355,-5.458536 l 0.0411,0.0809 c 0.56516,1.569277 1.20002,3.107578 1.8895,4.413282 4.47647,6.485021 14.57653,3.454159 14.57653,3.454159 l 1.68779,-3.596619 c 0,0 -8.12286,1.992578 -11.96069,-0.896974 -1.2761,-2.067938 -2.22138,-4.098488 -2.92361,-5.928126 l -0.24211,-0.831313 c 2.46978,-0.13197 6.85476,-0.938887 12.74332,-4.293669 -4.97248,0.883387 -6.71089,-0.780324 -11.20499,1.035317 2.62606,-3.350722 5.36668,-7.775578 4.42969,-10.76935 -2.54064,0.319297 -4.43564,1.527341 -5.84843,3.056102 0.0825,-5.910637 -3.9329,-15.010726 -6.21601,-14.907076 z"
       id="path3598-1-7-4-7"
       inkscape:connector-curvature="0" />
    <path
       inkscape:connector-curvature="0"
       style="fill:#d35769;fill-opacity:1;stroke:none;stroke-width:0.07899396px;stroke-linecap:butt;stroke-linejoin:miter;stroke-opacity:1"
       d="m -758.11704,38.928526 c -0.95088,0.23166 -1.42975,1.281434 -0.38768,3.797459 -0.77937,-0.394767 -1.67703,-1.159774 -2.42843,-0.986574 l -0.29209,-0.12194 c 0.0391,0.0629 0.0816,0.12187 0.12261,0.18265 0.40898,1.730111 5.10165,3.864489 7.70372,3.578519 0.0489,0.002 0.13404,0.006 0.13404,0.006 0.0523,-0.0122 0.10565,-0.0328 0.15836,-0.0491 0.17337,-0.0342 0.33537,-0.0812 0.48276,-0.141557 0.113,-0.0761 0.22178,-0.15215 0.32925,-0.22892 1.57405,-0.940364 3.09642,-2.965272 3.09642,-2.965272 0,0 0.14676,-0.37193 0.2823,-0.719937 0.76869,-1.424981 0.83722,-2.504785 0.80727,-2.633425 -0.004,-0.018 -0.0206,-0.0112 -0.0415,0.007 -0.0894,-0.1622 -0.50722,0.295157 -1.55627,2.018798 0.62169,-1.260581 -1.89283,-6.420064 -4.50658,0.470377 -0.0978,-1.130544 -2.50821,-2.553055 -3.90422,-2.213498 z"
       id="path3867-6-8" />
    <path
       inkscape:connector-curvature="0"
       style="fill:#d35769;fill-opacity:1;stroke:none;stroke-width:0.07899396px;stroke-linecap:butt;stroke-linejoin:miter;stroke-opacity:1"
       d="m -693.43186,35.07411 c -0.97565,-0.0771 -1.75863,0.770384 -1.55513,3.486059 -0.61695,-0.618577 -1.23054,-1.625811 -1.99843,-1.696131 l -0.23935,-0.207127 c 0.0175,0.072 0.0394,0.141267 0.0594,0.211817 -0.15225,1.771271 3.63825,5.26537 6.19935,5.806977 0.0458,0.0172 0.12545,0.0476 0.12545,0.0476 0.0535,0.005 0.11061,0.002 0.16577,0.003 0.17538,0.0217 0.34395,0.0277 0.50282,0.0164 0.13112,-0.037 0.25822,-0.0752 0.3843,-0.11455 1.7891,-0.401297 3.86808,-1.848968 3.86808,-1.848968 0,0 0.25565,-0.307427 0.49317,-0.595637 1.17555,-1.113354 1.57813,-2.117648 1.58989,-2.249198 0.002,-0.0184 -0.0161,-0.0171 -0.0416,-0.006 -0.0342,-0.182017 -0.57406,0.12184 -2.10927,1.431264 0.98453,-1.003124 0.20854,-6.690034 -4.42783,-0.961677 0.26044,-1.104471 -1.58462,-3.209069 -3.01682,-3.322829 z"
       id="path3867-6-8-2" />
    <path
       inkscape:connector-curvature="0"
       style="fill:#d85c6f;fill-opacity:1;stroke:none;stroke-width:0.07899396px;stroke-linecap:butt;stroke-linejoin:miter;stroke-opacity:1"
       d="m -722.17379,38.894819 c -0.92582,0.317307 -1.30713,1.406291 -0.0403,3.816986 -0.81208,-0.322167 -1.77566,-1.002264 -2.50817,-0.761374 l -0.30198,-0.0948 c 0.0447,0.0591 0.0923,0.11394 0.13874,0.17072 0.56481,1.685698 5.43232,3.383949 7.99755,2.862252 0.0489,-0.002 0.13403,-0.006 0.13403,-0.006 0.0511,-0.0167 0.10228,-0.0421 0.15329,-0.0632 0.16954,-0.0498 0.32659,-0.111377 0.46786,-0.184937 0.10559,-0.0861 0.20701,-0.17169 0.30704,-0.25794 1.48189,-1.079774 2.81357,-3.234882 2.81357,-3.234882 0,0 0.11228,-0.383747 0.21558,-0.742644 0.63575,-1.489061 0.60568,-2.570615 0.56414,-2.695995 -0.005,-0.0177 -0.0216,-0.009 -0.0405,0.011 -0.10377,-0.1534 -0.47824,0.340107 -1.366,2.152108 0.50434,-1.311934 -2.46951,-6.221057 -4.44503,0.878744 -0.20033,-1.116944 -2.73025,-2.314078 -4.08954,-1.848818 z"
       id="path3867-6-8-2-3" />
    <path
       style="fill:url(#linearGradient1050-4-7-7-1-9-6);fill-opacity:1;stroke:none;stroke-width:0.06013155px;stroke-linecap:butt;stroke-linejoin:miter;stroke-opacity:1"
       d="m -736.92357,48.530012 c 0,0 -3.1535,-2.947992 -2.56117,-6.195244 l 0.95725,2.040888 c 1.72662,-4.860143 4.12035,0.1197 3.23937,1.277464 4.9978,-2.548005 3.77667,1.646741 2.78142,2.039478 4.52645,-1.337524 -0.3928,1.008754 -0.3928,1.008754 0,0 -2.76101,0.531867 -4.02407,-0.17134 z"
       id="path3867-9-9-9-8-7-5"
       inkscape:connector-curvature="0"
       sodipodi:nodetypes="ccccccc"
       inkscape:export-filename="C:\Users\Wessel\Documents\Unity Games\Experiments\Assets\RawRecources\BodyParts\PollinationOrgan\buttercup\icon.png"
       inkscape:export-xdpi="151.26161"
       inkscape:export-ydpi="151.26161"
       inkscape:transform-center-x="0.40728998"
       inkscape:transform-center-y="-0.44698095" />
    <path
       style="fill:#000000;fill-opacity:0.07536232;stroke:none;stroke-width:0.05883266px;stroke-linecap:butt;stroke-linejoin:miter;stroke-opacity:1"
       d="m -738.46986,44.477886 c 1.30265,0.795364 1.94301,3.326122 1.94301,3.326122 2.753,-1.693571 3.60736,0.290007 3.60736,0.290007 0,0 2.43874,-0.886654 2.34932,-0.726054 -0.0894,0.160657 -1.97657,1.950568 -5.89455,1.382451 -1.77757,-0.638987 -3.77329,-4.941303 -3.04297,-6.253074 0.66043,0.214957 0.74364,1.316681 1.03785,1.980538 z"
       id="path3869-8-1-3-8-9-4"
       inkscape:connector-curvature="0"
       sodipodi:nodetypes="cccsccc"
       inkscape:export-filename="C:\Users\Wessel\Documents\Unity Games\Experiments\Assets\RawRecources\BodyParts\PollinationOrgan\buttercup\icon.png"
       inkscape:export-xdpi="151.26161"
       inkscape:export-ydpi="151.26161"
       inkscape:transform-center-x="0.44697953"
       inkscape:transform-center-y="-0.35711533" />
    <path
       style="fill:#bc374f;fill-opacity:1;stroke:none;stroke-width:0.06013155px;stroke-linecap:butt;stroke-linejoin:miter;stroke-opacity:1"
       d="m -736.5022,47.712548 c 0.26669,-0.903574 0.73559,-1.624471 0.96758,-1.495311 0.23198,0.129137 -0.38314,1.294661 -0.38314,1.294661 z"
       id="path3871-3-0-5-5-8-7"
       inkscape:connector-curvature="0"
       sodipodi:nodetypes="cccc"
       inkscape:export-filename="C:\Users\Wessel\Documents\Unity Games\Experiments\Assets\RawRecources\BodyParts\PollinationOrgan\buttercup\icon.png"
       inkscape:export-xdpi="151.26161"
       inkscape:export-ydpi="151.26161"
       inkscape:transform-center-x="1.3241564"
       inkscape:transform-center-y="0.9209071" />
    <path
       style="fill:url(#linearGradient1050-4-7-7-1-9-6-9);fill-opacity:1;stroke:none;stroke-width:0.06013155px;stroke-linecap:butt;stroke-linejoin:miter;stroke-opacity:1"
       d="m -698.22747,45.69841 c 0,0 -4.31379,0.162717 -6.20207,-2.544668 l 2.12309,0.757687 c -2.23454,-4.648553 2.98672,-2.840955 3.18826,-1.400151 1.7107,-5.34262 3.82883,-1.521541 3.40675,-0.538387 2.23815,-4.155506 0.43955,0.989284 0.43955,0.989284 0,0 -1.56682,2.334745 -2.95558,2.736235 z"
       id="path3867-9-9-9-8-7-5-6"
       inkscape:connector-curvature="0"
       sodipodi:nodetypes="ccccccc"
       inkscape:export-filename="C:\Users\Wessel\Documents\Unity Games\Experiments\Assets\RawRecources\BodyParts\PollinationOrgan\buttercup\icon.png"
       inkscape:export-xdpi="151.26161"
       inkscape:export-ydpi="151.26161"
       inkscape:transform-center-x="8.3158683"
       inkscape:transform-center-y="1.1757805" />
    <path
       style="fill:#000000;fill-opacity:0.07536232;stroke:none;stroke-width:0.05883266px;stroke-linecap:butt;stroke-linejoin:miter;stroke-opacity:1"
       d="m -702.19328,43.942509 c 1.48206,-0.364687 3.72977,0.962964 3.72977,0.962964 0.73642,-3.147192 2.74636,-2.356815 2.74636,-2.356815 0,0 1.08798,-2.355818 1.13903,-2.179228 0.0511,0.176607 -0.007,2.776942 -3.16973,5.15843 -1.7055,0.811984 -6.16545,-0.801034 -6.58243,-2.243338 0.61771,-0.317487 1.4585,0.399317 2.137,0.657967 z"
       id="path3869-8-1-3-8-9-4-3"
       inkscape:connector-curvature="0"
       sodipodi:nodetypes="cccsccc"
       inkscape:export-filename="C:\Users\Wessel\Documents\Unity Games\Experiments\Assets\RawRecources\BodyParts\PollinationOrgan\buttercup\icon.png"
       inkscape:export-xdpi="151.26161"
       inkscape:export-ydpi="151.26161"
       inkscape:transform-center-x="8.2565668"
       inkscape:transform-center-y="1.5137042" />
    <path
       style="fill:#bc374f;fill-opacity:1;stroke:none;stroke-width:0.06013155px;stroke-linecap:butt;stroke-linejoin:miter;stroke-opacity:1"
       d="m -698.51109,44.823563 c -0.45368,-0.825674 -0.63527,-1.666261 -0.38019,-1.740008 0.25505,-0.0738 0.64933,1.183771 0.64933,1.183771 z"
       id="path3871-3-0-5-5-8-7-0"
       inkscape:connector-curvature="0"
       sodipodi:nodetypes="cccc"
       inkscape:export-filename="C:\Users\Wessel\Documents\Unity Games\Experiments\Assets\RawRecources\BodyParts\PollinationOrgan\buttercup\icon.png"
       inkscape:export-xdpi="151.26161"
       inkscape:export-ydpi="151.26161"
       inkscape:transform-center-x="7.4316293"
       inkscape:transform-center-y="2.4127355" />
    <path
       style="fill:url(#linearGradient1050-4-7-7-1-9-6-9-6);fill-opacity:1;stroke:none;stroke-width:0.06013155px;stroke-linecap:butt;stroke-linejoin:miter;stroke-opacity:1"
       d="m -690.48435,52.207951 c 0,0 -3.45863,-2.583235 -3.22709,-5.875937 l 1.17593,1.923211 c 1.18154,-5.020573 4.10851,-0.33425 3.36023,0.913394 4.6872,-3.082282 3.93489,1.221334 2.98888,1.721151 4.35187,-1.827291 -0.27945,1.045844 -0.27945,1.045844 0,0 -2.68575,0.832344 -4.0185,0.272337 z"
       id="path3867-9-9-9-8-7-5-6-6"
       inkscape:connector-curvature="0"
       sodipodi:nodetypes="ccccccc"
       inkscape:export-filename="C:\Users\Wessel\Documents\Unity Games\Experiments\Assets\RawRecources\BodyParts\PollinationOrgan\buttercup\icon.png"
       inkscape:export-xdpi="151.26161"
       inkscape:export-ydpi="151.26161"
       inkscape:transform-center-x="6.6238997"
       inkscape:transform-center-y="-4.1982123" />
    <path
       style="fill:#000000;fill-opacity:0.07536232;stroke:none;stroke-width:0.05883266px;stroke-linecap:butt;stroke-linejoin:miter;stroke-opacity:1"
       d="m -692.46698,48.350505 c 1.38223,0.647244 2.29708,3.092212 2.29708,3.092212 2.55001,-1.986118 3.61737,-0.10855 3.61737,-0.10855 0,0 2.32642,-1.149534 2.2552,-0.980064 -0.0712,0.16951 -1.74988,2.156248 -5.70671,2.022438 -1.83707,-0.439587 -4.29392,-4.496273 -3.71233,-5.880417 0.68006,0.14101 0.88397,1.226894 1.2494,1.854361 z"
       id="path3869-8-1-3-8-9-4-3-1"
       inkscape:connector-curvature="0"
       sodipodi:nodetypes="cccsccc"
       inkscape:export-filename="C:\Users\Wessel\Documents\Unity Games\Experiments\Assets\RawRecources\BodyParts\PollinationOrgan\buttercup\icon.png"
       inkscape:export-xdpi="151.26161"
       inkscape:export-ydpi="151.26161"
       inkscape:transform-center-x="6.6511117"
       inkscape:transform-center-y="-3.9511756" />
    <path
       style="fill:#bc374f;fill-opacity:1;stroke:none;stroke-width:0.06013155px;stroke-linecap:butt;stroke-linejoin:miter;stroke-opacity:1"
       d="m -690.15546,51.349097 c 0.16568,-0.927424 0.55244,-1.695521 0.79724,-1.592671 0.2448,0.1028 -0.23841,1.328951 -0.23841,1.328951 z"
       id="path3871-3-0-5-5-8-7-0-3"
       inkscape:connector-curvature="0"
       sodipodi:nodetypes="cccc"
       inkscape:export-filename="C:\Users\Wessel\Documents\Unity Games\Experiments\Assets\RawRecources\BodyParts\PollinationOrgan\buttercup\icon.png"
       inkscape:export-xdpi="151.26161"
       inkscape:export-ydpi="151.26161"
       inkscape:transform-center-x="7.323789"
       inkscape:transform-center-y="-2.8426023" />
    <path
       style="fill:url(#radialGradient1236);fill-opacity:1;stroke:none;stroke-width:0.48607311px;stroke-linecap:butt;stroke-linejoin:miter;stroke-opacity:1"
       d="m -714.01983,56.02403 c 1.89038,3.007342 4.42846,3.444562 5.18346,2.820095 -1.11706,-2.878405 -2.21121,-1.544371 -4.1444,-3.692469 2.15691,-0.30372 4.18851,-1.792891 4.15298,-3.486972 -0.21483,-0.429627 -1.89298,0.883377 -5.22943,2.638815 -3.6948,-0.687484 -5.05401,-2.898912 -5.13992,-1.610011 -0.25778,2.233978 3.95853,2.496778 3.95853,2.496778 0,0 -3.27205,2.825902 -2.36643,6.021204 1.3749,0 2.81184,-1.320851 3.58521,-5.18744 z"
       id="path3572-7"
       inkscape:connector-curvature="0"
       sodipodi:nodetypes="ccccccccc"
       inkscape:export-filename="C:\Users\Wessel\Documents\Unity Games\Experiments\Assets\RawRecources\BodyParts\PollinationOrgan\sad\icon.png"
       inkscape:export-xdpi="163.93135"
       inkscape:export-ydpi="163.93135" />
    <path
       style="fill:#bc374f;fill-opacity:1;stroke:none;stroke-width:0.75045162px;stroke-linecap:butt;stroke-linejoin:miter;stroke-opacity:1"
       d="m -714.09476,55.171956 0.21099,-0.0229 c 0.0939,-2.532845 -1.89964,-4.549656 -1.89964,-4.549656 l 0.21108,-0.140627 c -0.30489,-1.008434 -0.9146,-1.125664 -0.9146,-1.125664 0,0 -0.18751,0.316537 0.23455,1.418751 l 0.28143,-0.0705 c 0,0 1.93475,1.817451 1.87619,4.490896 z"
       id="path3574"
       inkscape:connector-curvature="0"
       sodipodi:nodetypes="ccccccccc"
       inkscape:export-filename="C:\Users\Wessel\Documents\Unity Games\Experiments\Assets\RawRecources\BodyParts\PollinationOrgan\sad\icon.png"
       inkscape:export-xdpi="163.93135"
       inkscape:export-ydpi="163.93135" />
    <path
       style="fill:#bc374f;fill-opacity:1;stroke:none;stroke-width:0.75045162px;stroke-linecap:butt;stroke-linejoin:miter;stroke-opacity:1"
       d="m -713.86783,55.206916 -0.21098,-0.0229 c -0.094,-2.532785 2.13416,-5.018583 2.13416,-5.018583 l -0.2111,-0.14064 c 0.30488,-1.008454 0.91459,-1.125711 0.91459,-1.125711 0,0 0.1876,0.316587 -0.23452,1.418771 l -0.28146,-0.0705 c 0,0 -2.16927,2.286438 -2.11069,4.959943 z"
       id="path3574-2"
       inkscape:connector-curvature="0"
       sodipodi:nodetypes="ccccccccc"
       inkscape:export-filename="C:\Users\Wessel\Documents\Unity Games\Experiments\Assets\RawRecources\BodyParts\PollinationOrgan\sad\icon.png"
       inkscape:export-xdpi="163.93135"
       inkscape:export-ydpi="163.93135" />
    <path
       style="fill:#bc374f;fill-opacity:1;stroke:none;stroke-width:0.75045162px;stroke-linecap:butt;stroke-linejoin:miter;stroke-opacity:1"
       d="m -713.84457,55.253856 -0.21099,-0.0229 c -0.0939,-2.532848 0.11735,-3.869559 0.11735,-3.869559 l -0.21108,-0.1406 c 0.30492,-1.008434 0.91463,-1.125724 0.91463,-1.125724 0,0 0.18756,0.31662 -0.23455,1.418724 l -0.28141,-0.0704 c 0,0 -0.15251,1.137294 -0.094,3.810889 z"
       id="path3574-2-4"
       inkscape:connector-curvature="0"
       sodipodi:nodetypes="ccccccccc"
       inkscape:export-filename="C:\Users\Wessel\Documents\Unity Games\Experiments\Assets\RawRecources\BodyParts\PollinationOrgan\sad\icon.png"
       inkscape:export-xdpi="163.93135"
       inkscape:export-ydpi="163.93135" />
    <path
       style="fill:url(#radialGradient1236-8);fill-opacity:1;stroke:none;stroke-width:0.9819845px;stroke-linecap:butt;stroke-linejoin:miter;stroke-opacity:1"
       d="m -799.31263,28.894937 c 3.81902,6.075563 8.94655,6.958847 10.47183,5.697276 -2.25673,-5.815076 -4.46717,-3.119992 -8.37268,-7.459677 4.35747,-0.613587 8.46179,-3.622069 8.39001,-7.044521 -0.434,-0.867954 -3.82427,1.784631 -10.5647,5.33104 -7.46438,-1.388891 -10.21032,-5.856507 -10.38387,-3.252612 -0.52078,4.513176 7.99718,5.044093 7.99718,5.044093 0,0 -6.61033,5.709016 -4.78076,12.16429 2.77763,0 5.68059,-2.668435 7.24299,-10.479889 z"
       id="path3572-7-1"
       inkscape:connector-curvature="0"
       sodipodi:nodetypes="ccccccccc"
       inkscape:export-filename="C:\Users\Wessel\Documents\Unity Games\Experiments\Assets\RawRecources\BodyParts\PollinationOrgan\sad\icon.png"
       inkscape:export-xdpi="163.93135"
       inkscape:export-ydpi="163.93135" />
    <path
       style="fill:#bc374f;fill-opacity:1;stroke:none;stroke-width:1.51609266px;stroke-linecap:butt;stroke-linejoin:miter;stroke-opacity:1"
       d="m -799.46401,27.173546 0.42625,-0.0463 c 0.1897,-5.116953 -3.83773,-9.191389 -3.83773,-9.191389 l 0.42643,-0.284107 c -0.61595,-2.037278 -1.84771,-2.274108 -1.84771,-2.274108 0,0 -0.37881,0.639477 0.47385,2.866215 l 0.56856,-0.14242 c 0,0 3.90866,3.671679 3.79035,9.072679 z"
       id="path3574-8"
       inkscape:connector-curvature="0"
       sodipodi:nodetypes="ccccccccc"
       inkscape:export-filename="C:\Users\Wessel\Documents\Unity Games\Experiments\Assets\RawRecources\BodyParts\PollinationOrgan\sad\icon.png"
       inkscape:export-xdpi="163.93135"
       inkscape:export-ydpi="163.93135" />
    <path
       style="fill:#bc374f;fill-opacity:1;stroke:none;stroke-width:1.51609266px;stroke-linecap:butt;stroke-linejoin:miter;stroke-opacity:1"
       d="m -799.00556,27.244176 -0.42623,-0.0463 c -0.1899,-5.116833 4.31152,-10.138743 4.31152,-10.138743 l -0.42647,-0.28412 c 0.61593,-2.037318 1.84769,-2.274215 1.84769,-2.274215 0,0 0.37899,0.639584 -0.47379,2.866262 l -0.56862,-0.14243 c 0,0 -4.38244,4.619156 -4.2641,10.020276 z"
       id="path3574-2-9"
       inkscape:connector-curvature="0"
       sodipodi:nodetypes="ccccccccc"
       inkscape:export-filename="C:\Users\Wessel\Documents\Unity Games\Experiments\Assets\RawRecources\BodyParts\PollinationOrgan\sad\icon.png"
       inkscape:export-xdpi="163.93135"
       inkscape:export-ydpi="163.93135" />
    <path
       style="fill:#bc374f;fill-opacity:1;stroke:none;stroke-width:1.51609266px;stroke-linecap:butt;stroke-linejoin:miter;stroke-opacity:1"
       d="m -798.95857,27.339003 -0.42625,-0.0463 c -0.1897,-5.11695 0.23708,-7.817435 0.23708,-7.817435 l -0.42643,-0.284047 c 0.61601,-2.037278 1.84777,-2.274228 1.84777,-2.274228 0,0 0.37891,0.639647 -0.47385,2.866165 l -0.56851,-0.14223 c 0,0 -0.30811,2.297608 -0.18991,7.698905 z"
       id="path3574-2-4-0"
       inkscape:connector-curvature="0"
       sodipodi:nodetypes="ccccccccc"
       inkscape:export-filename="C:\Users\Wessel\Documents\Unity Games\Experiments\Assets\RawRecources\BodyParts\PollinationOrgan\sad\icon.png"
       inkscape:export-xdpi="163.93135"
       inkscape:export-ydpi="163.93135" />
    <path
       style="fill:url(#radialGradient1236-8-9);fill-opacity:1;stroke:none;stroke-width:0.80592543px;stroke-linecap:butt;stroke-linejoin:miter;stroke-opacity:1"
       d="m -830.25857,11.079106 c 0.94061,5.813947 4.53255,8.123185 6.08911,7.658218 0.15656,-5.116883 -2.37675,-3.788019 -3.93853,-8.317905 3.48929,0.931527 7.55412,-0.0277 8.59571,-2.6370136 -0.0501,-0.7948534 -3.46133,0.12412 -9.69044,0.6458767 -5.19595,-3.4395369 -5.84051,-7.6948105 -6.80539,-5.7826737 -1.83861,3.2437502 4.42822,6.3722704 4.42822,6.3722704 0,0 -6.82324,2.1976272 -7.50758,7.6615272 2.09898,0.889364 5.14709,-0.19763 8.8289,-5.6003 z"
       id="path3572-7-1-3"
       inkscape:connector-curvature="0"
       sodipodi:nodetypes="ccccccccc"
       inkscape:export-filename="C:\Users\Wessel\Documents\Unity Games\Experiments\Assets\RawRecources\BodyParts\PollinationOrgan\sad\icon.png"
       inkscape:export-xdpi="163.93135"
       inkscape:export-ydpi="163.93135" />
    <path
       style="fill:#bc374f;fill-opacity:1;stroke:none;stroke-width:1.2442739px;stroke-linecap:butt;stroke-linejoin:miter;stroke-opacity:1"
       d="m -829.8218,9.7298255 0.33694,0.1014967 c 1.78173,-3.8060236 0.0429,-8.1745072 0.0429,-8.1745072 l 0.41321,-0.0781 c 0.18685,-1.73673007 -0.66812,-2.31009676 -0.66812,-2.31009676 0,0 -0.49102,0.36195007 -0.55966,2.31764676 l 0.47525,0.0744 c 0,0 1.77805,4.0260936 -0.0407,8.0696305 z"
       id="path3574-8-8"
       inkscape:connector-curvature="0"
       sodipodi:nodetypes="ccccccccc"
       inkscape:export-filename="C:\Users\Wessel\Documents\Unity Games\Experiments\Assets\RawRecources\BodyParts\PollinationOrgan\sad\icon.png"
       inkscape:export-xdpi="163.93135"
       inkscape:export-ydpi="163.93135" />
    <path
       style="fill:#bc374f;fill-opacity:1;stroke:none;stroke-width:1.2442739px;stroke-linecap:butt;stroke-linejoin:miter;stroke-opacity:1"
       d="m -829.49797,9.9299822 -0.30727,-0.1714567 c 1.49485,-3.9274669 6.50442,-6.2811237 6.50442,-6.2811237 l -0.2313,-0.3512467 c 1.11778,-1.3423401 2.12444,-1.1269634 2.12444,-1.1269634 0,0 0.0816,0.6046667 -1.27578,2.0142568 l -0.38408,-0.2896867 c 0,0 -4.79072,2.0873868 -6.43067,6.2067704 z"
       id="path3574-2-9-9"
       inkscape:connector-curvature="0"
       sodipodi:nodetypes="ccccccccc"
       inkscape:export-filename="C:\Users\Wessel\Documents\Unity Games\Experiments\Assets\RawRecources\BodyParts\PollinationOrgan\sad\icon.png"
       inkscape:export-xdpi="163.93135"
       inkscape:export-ydpi="163.93135" />
    <path
       style="fill:#bc374f;fill-opacity:1;stroke:none;stroke-width:1.2442739px;stroke-linecap:butt;stroke-linejoin:miter;stroke-opacity:1"
       d="m -829.49283,10.016692 -0.30728,-0.1714698 c 1.49504,-3.9274936 2.68221,-5.8315337 2.68221,-5.8315337 l -0.23129,-0.3511867 c 1.11782,-1.3422801 2.1245,-1.1269534 2.1245,-1.1269534 0,0 0.0815,0.6046867 -1.27579,2.0141768 l -0.38408,-0.2895167 c 0,0 -0.96849,1.6376001 -2.60861,5.7570835 z"
       id="path3574-2-4-0-1"
       inkscape:connector-curvature="0"
       sodipodi:nodetypes="ccccccccc"
       inkscape:export-filename="C:\Users\Wessel\Documents\Unity Games\Experiments\Assets\RawRecources\BodyParts\PollinationOrgan\sad\icon.png"
       inkscape:export-xdpi="163.93135"
       inkscape:export-ydpi="163.93135" />
    <path
       style="fill:url(#radialGradient1236-81);fill-opacity:1;stroke:none;stroke-width:0.48607311px;stroke-linecap:butt;stroke-linejoin:miter;stroke-opacity:1"
       d="m -756.54776,53.581675 c 3.05304,1.815668 5.51155,1.048394 5.89908,0.148497 -2.30591,-2.053248 -2.67202,-0.367197 -5.37166,-1.398491 1.78161,-1.253151 2.91151,-3.504439 2.10797,-4.99625 -0.387,-0.28456 -1.28254,1.648868 -3.45264,4.731743 -3.60222,1.071554 -5.81977,-0.27765 -5.30895,0.908824 0.78845,2.106048 4.66138,0.418827 4.66138,0.418827 0,0 -1.62501,4.006409 0.63708,6.438094 1.22388,-0.626477 1.90114,-2.456975 0.82774,-6.251244 z"
       id="path3572-7-7"
       inkscape:connector-curvature="0"
       sodipodi:nodetypes="ccccccccc"
       inkscape:export-filename="C:\Users\Wessel\Documents\Unity Games\Experiments\Assets\RawRecources\BodyParts\PollinationOrgan\sad\icon.png"
       inkscape:export-xdpi="163.93135"
       inkscape:export-ydpi="163.93135" />
    <path
       style="fill:#bc374f;fill-opacity:1;stroke:none;stroke-width:0.75045162px;stroke-linecap:butt;stroke-linejoin:miter;stroke-opacity:1"
       d="m -757.00271,52.857338 0.17738,-0.11652 c -1.07052,-2.297425 -3.76405,-3.184352 -3.76405,-3.184352 l 0.12382,-0.221357 c -0.7309,-0.758747 -1.32705,-0.585287 -1.32705,-0.585287 0,0 -0.0227,0.367207 0.85524,1.156044 l 0.2184,-0.19099 c 0,0 2.55036,0.736257 3.71639,3.142732 z"
       id="path3574-4"
       inkscape:connector-curvature="0"
       sodipodi:nodetypes="ccccccccc"
       inkscape:export-filename="C:\Users\Wessel\Documents\Unity Games\Experiments\Assets\RawRecources\BodyParts\PollinationOrgan\sad\icon.png"
       inkscape:export-xdpi="163.93135"
       inkscape:export-ydpi="163.93135" />
    <path
       style="fill:#bc374f;fill-opacity:1;stroke:none;stroke-width:0.75045162px;stroke-linecap:butt;stroke-linejoin:miter;stroke-opacity:1"
       d="m -756.78478,52.785058 -0.19824,0.0758 c -1.23775,-2.211758 -0.38699,-5.43976 -0.38699,-5.43976 l -0.252,-0.029 c -0.18811,-1.036604 0.3012,-1.418791 0.3012,-1.418791 0,0 0.31125,0.19633 0.43771,1.369794 l -0.28267,0.0655 c 0,0 -0.88917,3.023722 0.38116,5.376877 z"
       id="path3574-2-93"
       inkscape:connector-curvature="0"
       sodipodi:nodetypes="ccccccccc"
       inkscape:export-filename="C:\Users\Wessel\Documents\Unity Games\Experiments\Assets\RawRecources\BodyParts\PollinationOrgan\sad\icon.png"
       inkscape:export-xdpi="163.93135"
       inkscape:export-ydpi="163.93135" />
    <path
       style="fill:#bc374f;fill-opacity:1;stroke:none;stroke-width:0.75045162px;stroke-linecap:butt;stroke-linejoin:miter;stroke-opacity:1"
       d="m -756.74269,52.816238 -0.19825,0.0758 c -1.23768,-2.211858 -1.65871,-3.497989 -1.65871,-3.497989 l -0.25196,-0.029 c -0.18807,-1.036604 0.30122,-1.418824 0.30122,-1.418824 0,0 0.31123,0.19638 0.43766,1.369764 l -0.28257,0.0656 c 0,0 0.38245,1.081864 1.65276,3.435129 z"
       id="path3574-2-4-8"
       inkscape:connector-curvature="0"
       sodipodi:nodetypes="ccccccccc"
       inkscape:export-filename="C:\Users\Wessel\Documents\Unity Games\Experiments\Assets\RawRecources\BodyParts\PollinationOrgan\sad\icon.png"
       inkscape:export-xdpi="163.93135"
       inkscape:export-ydpi="163.93135" />
    <g
       id="g1240"
       transform="translate(-469.15715,-30.427087)" />
  </g>
</svg>
