<?xml version="1.0" encoding="UTF-8" standalone="no"?>
<!-- Created with Inkscape (http://www.inkscape.org/) -->

<svg
   xmlns:dc="http://purl.org/dc/elements/1.1/"
   xmlns:cc="http://creativecommons.org/ns#"
   xmlns:rdf="http://www.w3.org/1999/02/22-rdf-syntax-ns#"
   xmlns:svg="http://www.w3.org/2000/svg"
   xmlns="http://www.w3.org/2000/svg"
   xmlns:sodipodi="http://sodipodi.sourceforge.net/DTD/sodipodi-0.dtd"
   xmlns:inkscape="http://www.inkscape.org/namespaces/inkscape"
   width="15mm"
   height="15mm"
   viewBox="0 0 14.999999 14.999999"
   version="1.1"
   id="svg8"
   inkscape:version="0.92.2 (5c3e80d, 2017-08-06)"
   sodipodi:docname="homepage_orange.svg">
  <defs
     id="defs2" />
  <sodipodi:namedview
     id="base"
     pagecolor="#ffffff"
     bordercolor="#666666"
     borderopacity="1.0"
     inkscape:pageopacity="0.0"
     inkscape:pageshadow="2"
     inkscape:zoom="1.979899"
     inkscape:cx="-142.86608"
     inkscape:cy="-62.177904"
     inkscape:document-units="mm"
     inkscape:current-layer="layer1"
     showgrid="false"
     fit-margin-top="0"
     fit-margin-left="0"
     fit-margin-right="0"
     fit-margin-bottom="0"
     inkscape:window-width="1920"
     inkscape:window-height="1001"
     inkscape:window-x="-9"
     inkscape:window-y="-9"
     inkscape:window-maximized="1" />
  <metadata
     id="metadata5">
    <rdf:RDF>
      <cc:Work
         rdf:about="">
        <dc:format>image/svg+xml</dc:format>
        <dc:type
           rdf:resource="http://purl.org/dc/dcmitype/StillImage" />
        <dc:title></dc:title>
      </cc:Work>
    </rdf:RDF>
  </metadata>
  <g
     inkscape:label="Layer 1"
     inkscape:groupmode="layer"
     id="layer1"
     transform="translate(-80.734849,-100.81138)">
    <path
       style="display:inline;fill:#eea444;fill-opacity:1;stroke:none;stroke-width:0.45429757;stroke-opacity:1"
       d="m 88.217622,102.26682 c -0.205928,0 -0.396323,0.0628 -0.524393,0.16832 l -6.183261,5.24194 c -0.266038,0.22554 -0.426087,0.47743 -0.358899,0.56462 l 0.582089,0.75565 c 0.06724,0.0871 0.335452,-0.0243 0.601534,-0.24957 l 5.925414,-5.02357 2.904184,2.46207 c 0,0.0386 0.04464,0.0728 0.114929,0.0981 l 3.06873,2.60163 c 0.266093,0.22565 0.53449,0.33687 0.601678,0.24968 l 0.565642,-0.86942 c 0.06713,-0.0871 -0.09546,-0.3361 -0.358888,-0.56472 -0.491234,-0.57961 -1.72669,-1.51572 -1.72669,-1.51572 v -3.77704 c 0,-0.0794 -0.181499,-0.14165 -0.406971,-0.14165 h -1.451833 c -0.225472,0 -0.406972,0.0628 -0.406972,0.14165 v 2.00801 l -2.174304,-1.84343 c -0.216698,-0.21739 -0.507219,-0.30954 -0.771989,-0.30601 z m 0.223377,2.43859 -5.354767,4.25568 v 3.88188 c 0,0.53397 0.319017,0.96388 0.71534,0.96388 h 3.277633 v -3.48812 h 2.29479 v 3.48812 h 3.369381 c 0.396335,0 0.71534,-0.42991 0.71534,-0.96388 v -3.80924 z"
       id="rect4923"
       inkscape:connector-curvature="0" />
  </g>
</svg>
