<?xml version="1.0" encoding="UTF-8" standalone="no"?>
<!-- Created with Inkscape (http://www.inkscape.org/) -->

<svg
   xmlns:dc="http://purl.org/dc/elements/1.1/"
   xmlns:cc="http://creativecommons.org/ns#"
   xmlns:rdf="http://www.w3.org/1999/02/22-rdf-syntax-ns#"
   xmlns:svg="http://www.w3.org/2000/svg"
   xmlns="http://www.w3.org/2000/svg"
   xmlns:sodipodi="http://sodipodi.sourceforge.net/DTD/sodipodi-0.dtd"
   xmlns:inkscape="http://www.inkscape.org/namespaces/inkscape"
   width="13.058311mm"
   height="10.4687mm"
   viewBox="0 0 13.058311 10.4687"
   version="1.1"
   id="svg8"
   inkscape:version="0.92.2 (5c3e80d, 2017-08-06)"
   sodipodi:docname="homepage_orange.svg">
  <defs
     id="defs2" />
  <sodipodi:namedview
     id="base"
     pagecolor="#ffffff"
     bordercolor="#666666"
     borderopacity="1.0"
     inkscape:pageopacity="0.0"
     inkscape:pageshadow="2"
     inkscape:zoom="0.98994949"
     inkscape:cx="-149.93715"
     inkscape:cy="-62.177904"
     inkscape:document-units="mm"
     inkscape:current-layer="layer1"
     showgrid="false"
     fit-margin-top="0"
     fit-margin-left="0"
     fit-margin-right="0"
     fit-margin-bottom="0"
     inkscape:window-width="1920"
     inkscape:window-height="1001"
     inkscape:window-x="-9"
     inkscape:window-y="-9"
     inkscape:window-maximized="1" />
  <metadata
     id="metadata5">
    <rdf:RDF>
      <cc:Work
         rdf:about="">
        <dc:format>image/svg+xml</dc:format>
        <dc:type
           rdf:resource="http://purl.org/dc/dcmitype/StillImage" />
        <dc:title></dc:title>
      </cc:Work>
    </rdf:RDF>
  </metadata>
  <g
     inkscape:label="Layer 1"
     inkscape:groupmode="layer"
     id="layer1"
     transform="translate(-80.734849,-105.34268)">
    <path
       style="display:inline;fill:#eea444;fill-opacity:1;stroke:none;stroke-width:0.41212225;stroke-opacity:1"
       d="m 87.159263,105.34268 c -0.18681,0 -0.35953,0.057 -0.47571,0.1527 l -5.60923,4.7553 c -0.24134,0.2046 -0.38653,0.4331 -0.32558,0.5122 l 0.52805,0.6855 c 0.061,0.079 0.30431,-0.022 0.54569,-0.2264 l 5.37532,-4.5572 2.63457,2.2335 c 0,0.035 0.0405,0.066 0.10426,0.089 l 2.78384,2.3601 c 0.24139,0.2047 0.48487,0.3056 0.54582,0.2265 l 0.51313,-0.7887 c 0.0609,-0.079 -0.0866,-0.3049 -0.32557,-0.5123 -0.44563,-0.5258 -1.56639,-1.375 -1.56639,-1.375 v -3.4264 c 0,-0.072 -0.16465,-0.1285 -0.36919,-0.1285 h -1.31705 c -0.20454,0 -0.36919,0.057 -0.36919,0.1285 v 1.8216 l -1.97245,-1.6723 c -0.19658,-0.1972 -0.46013,-0.2808 -0.70032,-0.2776 z m 0.20264,2.2122 -4.85765,3.8606 v 3.5215 c 0,0.4844 0.2894,0.8744 0.64893,0.8744 h 2.97335 v -3.1643 h 2.08175 v 3.1643 h 3.05658 c 0.35954,0 0.64893,-0.39 0.64893,-0.8744 v -3.4556 z"
       id="rect4923"
       inkscape:connector-curvature="0" />
  </g>
</svg>
