<?xml version="1.0" encoding="UTF-8" standalone="no"?>
<!-- Created with Inkscape (http://www.inkscape.org/) -->

<svg
   xmlns:dc="http://purl.org/dc/elements/1.1/"
   xmlns:cc="http://creativecommons.org/ns#"
   xmlns:rdf="http://www.w3.org/1999/02/22-rdf-syntax-ns#"
   xmlns:svg="http://www.w3.org/2000/svg"
   xmlns="http://www.w3.org/2000/svg"
   xmlns:sodipodi="http://sodipodi.sourceforge.net/DTD/sodipodi-0.dtd"
   xmlns:inkscape="http://www.inkscape.org/namespaces/inkscape"
   width="19.286135mm"
   height="17.22069mm"
   viewBox="0 0 68.336699 61.018191"
   id="svg4975"
   version="1.1"
   inkscape:version="0.91 r13725"
   sodipodi:docname="itch_icon.svg">
  <defs
     id="defs4977" />
  <sodipodi:namedview
     id="base"
     pagecolor="#ffffff"
     bordercolor="#666666"
     borderopacity="1.0"
     inkscape:pageopacity="0.0"
     inkscape:pageshadow="2"
     inkscape:zoom="2.8"
     inkscape:cx="-36.597476"
     inkscape:cy="21.205009"
     inkscape:document-units="px"
     inkscape:current-layer="layer1"
     showgrid="false"
     fit-margin-top="0"
     fit-margin-left="0"
     fit-margin-right="0"
     fit-margin-bottom="0"
     inkscape:window-width="1920"
     inkscape:window-height="1018"
     inkscape:window-x="-8"
     inkscape:window-y="-8"
     inkscape:window-maximized="1" />
  <metadata
     id="metadata4980">
    <rdf:RDF>
      <cc:Work
         rdf:about="">
        <dc:format>image/svg+xml</dc:format>
        <dc:type
           rdf:resource="http://purl.org/dc/dcmitype/StillImage" />
        <dc:title />
      </cc:Work>
    </rdf:RDF>
  </metadata>
  <g
     inkscape:label="Laag 1"
     inkscape:groupmode="layer"
     id="layer1"
     transform="translate(95.794103,-537.69654)">
    <path
       inkscape:connector-curvature="0"
       d="m -86.914203,537.71343 -8.8799,10.4243 0,2.9729 c 0,3.7451 3.4748,7.0653 6.602,7.0653 3.7837,0 6.911,-3.1659 6.911,-6.9495 0,3.7836 3.05,6.9495 6.795,6.9495 3.745,0 6.7178,-3.1659 6.7178,-6.9495 0,3.7836 3.2432,6.9495 6.9881,6.9495 3.7836,0 6.911,-3.1659 6.911,-6.9495 0,3.7836 3.05,6.9495 6.8337,6.9495 3.7835,0 6.6792,-3.1659 6.6792,-6.9495 0,3.7836 3.243,6.9495 7.0267,6.9495 3.7836,0 6.8722,-3.1659 6.8722,-6.9495 l 0,-3.0887 -9.652,-10.4243 c -16.8332,-0.038 -49.8048,0 -49.8048,0 z"
       id="path3"
       style="display:inline;fill:#ffffff;fill-opacity:1"
       inkscape:export-filename="F:\Devlogs\itch_logo.png"
       inkscape:export-xdpi="1317.1482"
       inkscape:export-ydpi="1317.1482" />
    <path
       d="m -82.281103,556.43863 c -0.3476,0.6563 -0.8494,1.1967 -1.39,1.6987 -1.4285,1.4285 -3.3975,2.2779 -5.521,2.2779 -0.5405,0 -1.969,-0.3089 -1.969,-0.3089 l 0,38.6084 59.4568,0 0,-38.8401 c -0.8879,0.3475 -1.6215,0.5406 -2.6253,0.5406 -2.1621,0 -4.1311,-0.888 -5.521,-2.2779 -0.5019,-0.502 -0.9652,-1.0811 -1.3127,-1.7374 -0.3474,0.6563 -0.8107,1.2354 -1.3126,1.7374 -1.4285,1.4285 -3.3591,2.2779 -5.5211,2.2779 -2.162,0 -4.1311,-0.888 -5.521,-2.2779 -0.5018,-0.502 -0.9652,-1.0811 -1.3126,-1.7374 -0.3476,0.6563 -0.8107,1.2354 -1.3127,1.7374 -1.4285,1.4285 -3.3976,2.2779 -5.5209,2.2779 -2.1622,0 -4.1312,-0.888 -5.5211,-2.2779 -0.5019,-0.502 -0.9652,-1.0811 -1.3126,-1.7374 -0.3476,0.6563 -0.8108,1.2354 -1.3128,1.7374 -1.4285,1.4285 -3.3589,2.2779 -5.5209,2.2779 -2.1621,0 -4.1311,-0.888 -5.521,-2.2779 -0.6563,-0.502 -1.0811,-1.0424 -1.4285,-1.6987 z m 8.571,7.1424 c 2.5867,0 4.44,1.6988 5.0963,4.2084 l 14.3236,0 c 0.6564,-2.5482 2.471,-4.2084 5.0964,-4.2084 4.131,0 8.6483,4.247 10.0768,9.3818 l 3.3975,12.3548 c 1.4285,5.1735 -0.8108,9.3818 -4.9418,9.3818 -3.6293,0 -7.5287,-3.2431 -9.4205,-7.5672 l -22.7017,0 c -1.8532,4.2855 -5.7912,7.5672 -9.4204,7.5672 -4.1312,0 -6.3319,-4.2469 -4.942,-9.3818 l 3.3976,-12.3548 c 1.3899,-5.1734 5.9071,-9.3818 10.0382,-9.3818 z"
       id="path5"
       inkscape:connector-curvature="0"
       sodipodi:nodetypes="ccsccccsscssscssscsscccsccsccsccsccs"
       style="display:inline;fill:#ffffff;fill-opacity:1"
       inkscape:export-filename="F:\Devlogs\itch_logo.png"
       inkscape:export-xdpi="1317.1482"
       inkscape:export-ydpi="1317.1482" />
    <path
       inkscape:connector-curvature="0"
       d="m -66.567603,574.50733 -4.826,5.212 4.7874,0 0,5.3666 9.4977,0 0,-5.3666 5.0962,0 -4.8259,-5.212 -4.826,-5.2121 -4.9034,5.2121 z"
       id="path7"
       style="display:inline;fill:#ffffff;fill-opacity:1"
       inkscape:export-filename="F:\Devlogs\itch_logo.png"
       inkscape:export-xdpi="1317.1482"
       inkscape:export-ydpi="1317.1482" />
  </g>
</svg>
