<?xml version="1.0" encoding="UTF-8" standalone="no"?>
<!-- Created with Inkscape (http://www.inkscape.org/) -->

<svg
   xmlns:dc="http://purl.org/dc/elements/1.1/"
   xmlns:cc="http://creativecommons.org/ns#"
   xmlns:rdf="http://www.w3.org/1999/02/22-rdf-syntax-ns#"
   xmlns:svg="http://www.w3.org/2000/svg"
   xmlns="http://www.w3.org/2000/svg"
   xmlns:sodipodi="http://sodipodi.sourceforge.net/DTD/sodipodi-0.dtd"
   xmlns:inkscape="http://www.inkscape.org/namespaces/inkscape"
   width="19.286131mm"
   height="17.220646mm"
   viewBox="0 0 19.286131 17.220646"
   version="1.1"
   id="svg8"
   inkscape:version="0.92.2 (5c3e80d, 2017-08-06)"
   sodipodi:docname="itch_yellow.svg">
  <defs
     id="defs2" />
  <sodipodi:namedview
     id="base"
     pagecolor="#ffffff"
     bordercolor="#666666"
     borderopacity="1.0"
     inkscape:pageopacity="0.0"
     inkscape:pageshadow="2"
     inkscape:zoom="0.98994949"
     inkscape:cx="-232.22322"
     inkscape:cy="84.335463"
     inkscape:document-units="mm"
     inkscape:current-layer="layer1"
     showgrid="false"
     fit-margin-top="0"
     fit-margin-left="0"
     fit-margin-right="0"
     fit-margin-bottom="0"
     inkscape:window-width="1920"
     inkscape:window-height="1001"
     inkscape:window-x="-9"
     inkscape:window-y="-9"
     inkscape:window-maximized="1" />
  <metadata
     id="metadata5">
    <rdf:RDF>
      <cc:Work
         rdf:about="">
        <dc:format>image/svg+xml</dc:format>
        <dc:type
           rdf:resource="http://purl.org/dc/dcmitype/StillImage" />
        <dc:title></dc:title>
      </cc:Work>
    </rdf:RDF>
  </metadata>
  <g
     inkscape:label="Layer 1"
     inkscape:groupmode="layer"
     id="layer1"
     transform="translate(-102.50637,-137.35573)">
    <path
       inkscape:connector-curvature="0"
       d="m 105.01247,137.36049 -2.5061,2.94197 v 0.83902 c 0,1.05695 0.98066,1.99398 1.86323,1.99398 1.06784,0 1.95044,-0.89348 1.95044,-1.9613 0,1.06782 0.86077,1.9613 1.9177,1.9613 1.05692,0 1.89591,-0.89348 1.89591,-1.9613 0,1.06782 0.9153,1.9613 1.9722,1.9613 1.06781,0 1.95044,-0.89348 1.95044,-1.9613 0,1.06782 0.86077,1.9613 1.92862,1.9613 1.06778,0 1.88502,-0.89348 1.88502,-1.9613 0,1.06782 0.91524,1.9613 1.98308,1.9613 1.06782,0 1.93949,-0.89348 1.93949,-1.9613 v -0.8717 l -2.72401,-2.94197 c -4.7507,-0.0107 -14.05602,0 -14.05602,0 z"
       id="path3"
       style="display:inline;fill:#efa74a;fill-opacity:1;stroke-width:0.28222224" />
    <path
       d="m 106.32004,142.64516 c -0.0981,0.18522 -0.23972,0.33773 -0.39229,0.47941 -0.40316,0.40315 -0.95885,0.64287 -1.55815,0.64287 -0.15254,0 -0.5557,-0.0872 -0.5557,-0.0872 v 10.89614 h 16.78003 v -10.96154 c -0.25058,0.0981 -0.45762,0.15257 -0.74092,0.15257 -0.61019,0 -1.16588,-0.25061 -1.55814,-0.64287 -0.14165,-0.14168 -0.2724,-0.30511 -0.37048,-0.49033 -0.098,0.18522 -0.22879,0.34865 -0.37044,0.49033 -0.40316,0.40315 -0.94801,0.64287 -1.55818,0.64287 -0.61016,0 -1.16589,-0.25061 -1.55815,-0.64287 -0.14162,-0.14168 -0.2724,-0.30511 -0.37044,-0.49033 -0.0981,0.18522 -0.2288,0.34865 -0.37047,0.49033 -0.40316,0.40315 -0.95888,0.64287 -1.55812,0.64287 -0.61023,0 -1.16592,-0.25061 -1.55818,-0.64287 -0.14165,-0.14168 -0.2724,-0.30511 -0.37045,-0.49033 -0.0981,0.18522 -0.22882,0.34865 -0.3705,0.49033 -0.40315,0.40315 -0.94796,0.64287 -1.55812,0.64287 -0.61019,0 -1.16589,-0.25061 -1.55815,-0.64287 -0.18522,-0.14168 -0.30511,-0.29419 -0.40315,-0.47941 z m 2.41892,2.01574 c 0.73003,0 1.25307,0.47944 1.43829,1.18771 h 4.04244 c 0.18525,-0.71916 0.69737,-1.18771 1.43832,-1.18771 1.16586,0 2.44074,1.1986 2.84389,2.64776 l 0.95885,3.48679 c 0.40316,1.46008 -0.22882,2.64776 -1.39468,2.64776 -1.02427,0 -2.12477,-0.91528 -2.65867,-2.13564 h -6.40693 c -0.52301,1.20947 -1.6344,2.13564 -2.65865,2.13564 -1.16591,0 -1.787,-1.19857 -1.39474,-2.64776 l 0.95888,-3.48679 c 0.39226,-1.46005 1.66712,-2.64776 2.833,-2.64776 z"
       id="path5"
       inkscape:connector-curvature="0"
       sodipodi:nodetypes="ccsccccsscssscssscsscccsccsccsccsccs"
       style="display:inline;fill:#efa74a;fill-opacity:1;stroke-width:0.28222224" />
    <path
       inkscape:connector-curvature="0"
       d="m 110.75473,147.74455 -1.362,1.47094 h 1.35111 v 1.51457 h 2.68046 v -1.51457 h 1.43827 l -1.36198,-1.47094 -1.362,-1.47097 z"
       id="path7"
       style="display:inline;fill:#efa74a;fill-opacity:1;stroke-width:0.28222224" />
  </g>
</svg>
