<?xml version="1.0" encoding="UTF-8" standalone="no"?>
<!-- Created with Inkscape (http://www.inkscape.org/) -->

<svg
   xmlns:dc="http://purl.org/dc/elements/1.1/"
   xmlns:cc="http://creativecommons.org/ns#"
   xmlns:rdf="http://www.w3.org/1999/02/22-rdf-syntax-ns#"
   xmlns:svg="http://www.w3.org/2000/svg"
   xmlns="http://www.w3.org/2000/svg"
   xmlns:sodipodi="http://sodipodi.sourceforge.net/DTD/sodipodi-0.dtd"
   xmlns:inkscape="http://www.inkscape.org/namespaces/inkscape"
   width="12.990339mm"
   height="13.247503mm"
   viewBox="0 0 12.990338 13.247503"
   version="1.1"
   id="svg8"
   inkscape:version="0.92.2 (5c3e80d, 2017-08-06)"
   sodipodi:docname="logo_white.svg">
  <defs
     id="defs2" />
  <sodipodi:namedview
     id="base"
     pagecolor="#ffffff"
     bordercolor="#666666"
     borderopacity="1.0"
     inkscape:pageopacity="0.0"
     inkscape:pageshadow="2"
     inkscape:zoom="0.98994949"
     inkscape:cx="-275.911"
     inkscape:cy="84.232054"
     inkscape:document-units="mm"
     inkscape:current-layer="layer1"
     showgrid="false"
     fit-margin-top="0"
     fit-margin-left="0"
     fit-margin-right="0"
     fit-margin-bottom="0"
     inkscape:window-width="1920"
     inkscape:window-height="1001"
     inkscape:window-x="-9"
     inkscape:window-y="-9"
     inkscape:window-maximized="1" />
  <metadata
     id="metadata5">
    <rdf:RDF>
      <cc:Work
         rdf:about="">
        <dc:format>image/svg+xml</dc:format>
        <dc:type
           rdf:resource="http://purl.org/dc/dcmitype/StillImage" />
        <dc:title></dc:title>
      </cc:Work>
    </rdf:RDF>
  </metadata>
  <g
     inkscape:label="Layer 1"
     inkscape:groupmode="layer"
     id="layer1"
     transform="translate(-114.06543,-141.30151)">
    <path
       inkscape:connector-curvature="0"
       style="display:inline;fill:#000000;fill-opacity:0.12416107;fill-rule:evenodd;stroke:none;stroke-width:1.58044446;stroke-linecap:butt;stroke-linejoin:miter;stroke-miterlimit:4;stroke-dasharray:6.32177794, 1.58044448;stroke-dashoffset:0;stroke-opacity:0.5739645"
       d="m 123.40755,141.30151 c -1.37866,0 -2.78723,0.5761 -3.50608,1.6953 0.01,-0.032 -0.0681,-0.1568 -1.96607,-0.1233 -2.27545,0.04 -4.22518,1.9967 -3.81511,3.0589 1.35763,1.8905 3.0009,0.3974 4.75051,0.7268 0.71983,0.5129 0.99525,2.2915 0.76634,2.526 -0.26865,0.2753 -1.57528,0.4204 -2.03925,0.4993 -0.40643,0.1003 -0.65989,0.369 -1.69525,4.7986 a 6.6047816,2.0289027 0 0 1 1.46761,-0.2508 c -0.0192,-0.6983 -0.059,-3.2872 0.40112,-3.5441 1.06454,-0.5432 2.17743,-0.2354 2.60669,-0.3994 0.76968,-0.9642 0.54477,-3.6088 0.30556,-4.719 -0.0756,-0.3438 0.12108,-0.6864 0.3385,-0.91 0.66717,-0.6863 1.76679,-1.1786 2.09135,0.1735 0.0944,1.2604 -1.11043,0.8272 -1.33855,1.0362 -0.56924,0.7354 -0.0192,7.1436 0.0874,8.3234 a 6.6047816,2.0289027 0 0 1 2.11494,0.3561 c -1.49318,-3.9564 -0.23243,-7.1651 -0.23243,-7.1651 0,0 3.01461,0.1353 3.22066,-2.0576 0.54525,-2.7182 -1.47196,-4.0273 -3.55792,-4.0248 z m -3.50608,1.6953 c 0,0.01 -0.005,0.01 -0.005,0.01 0,0 0.004,0 0.005,-0.01 z m 0.45082,3.6865 c -0.0257,0.5278 -0.11068,1.0656 -0.11068,1.0656 0,0 -0.15367,-0.4732 -0.56578,-1.0573 0,0 0.55629,0.1249 0.67646,-0.01 z m 1.9177,0.3426 c 0,0 0.24136,0.1981 0.53289,0.1399 -0.10306,0.1949 -0.371,0.8968 -0.41624,1.3434 -0.19423,-0.9202 -0.16222,-1.117 -0.11665,-1.4833 z m -0.98992,5.4045 c 0,0 -0.27875,0.1431 -0.52344,0.1124 0,0 0.0671,0.9564 -0.04,1.569 a 6.6047816,2.0289027 0 0 1 0.64471,0.038 c -0.1014,-0.9945 -0.0811,-1.7194 -0.0811,-1.7194 z m -3.26918,0.037 c -0.12426,0.4011 -0.0663,1.2925 -0.0312,1.7012 a 6.6047816,2.0289027 0 0 1 0.305,-0.023 c -0.097,-1.1234 -0.0223,-1.5856 -0.0223,-1.5856 l -0.25205,-0.093 z m 2.35134,0.1162 c 0,0 -0.93117,0.1496 -1.65419,0.03 -0.0785,0.6282 -0.0152,1.2439 0.0192,1.5039 a 6.6047816,2.0289027 0 0 1 1.0708,-0.028 6.6047816,2.0289027 0 0 1 0.47789,0.01 c 0.0881,-0.9679 0.0862,-1.5131 0.0862,-1.5131 z"
       id="path4196-9-2-5-3-8-7-1-4-6-8-4-2-2"
       inkscape:export-xdpi="96.3367"
       inkscape:export-ydpi="96.3367"
       inkscape:export-filename="C:\Users\Wessel\Documents\Unity Games\Experiments\Assets\MainMenu\logo.png" />
  </g>
</svg>
