<?xml version="1.0" encoding="UTF-8" standalone="no"?>
<!-- Created with Inkscape (http://www.inkscape.org/) -->

<svg
   xmlns:dc="http://purl.org/dc/elements/1.1/"
   xmlns:cc="http://creativecommons.org/ns#"
   xmlns:rdf="http://www.w3.org/1999/02/22-rdf-syntax-ns#"
   xmlns:svg="http://www.w3.org/2000/svg"
   xmlns="http://www.w3.org/2000/svg"
   xmlns:sodipodi="http://sodipodi.sourceforge.net/DTD/sodipodi-0.dtd"
   xmlns:inkscape="http://www.inkscape.org/namespaces/inkscape"
   width="12.990347mm"
   height="13.247603mm"
   viewBox="0 0 12.990346 13.247603"
   version="1.1"
   id="svg8"
   inkscape:version="0.92.2 (5c3e80d, 2017-08-06)"
   sodipodi:docname="logo_white.svg">
  <defs
     id="defs2" />
  <sodipodi:namedview
     id="base"
     pagecolor="#ffffff"
     bordercolor="#666666"
     borderopacity="1.0"
     inkscape:pageopacity="0.0"
     inkscape:pageshadow="2"
     inkscape:zoom="0.98994949"
     inkscape:cx="-37.820001"
     inkscape:cy="18.791285"
     inkscape:document-units="mm"
     inkscape:current-layer="layer1"
     showgrid="false"
     fit-margin-top="0"
     fit-margin-left="0"
     fit-margin-right="0"
     fit-margin-bottom="0"
     inkscape:window-width="1920"
     inkscape:window-height="1001"
     inkscape:window-x="-9"
     inkscape:window-y="-9"
     inkscape:window-maximized="1" />
  <metadata
     id="metadata5">
    <rdf:RDF>
      <cc:Work
         rdf:about="">
        <dc:format>image/svg+xml</dc:format>
        <dc:type
           rdf:resource="http://purl.org/dc/dcmitype/StillImage" />
        <dc:title></dc:title>
      </cc:Work>
    </rdf:RDF>
  </metadata>
  <g
     inkscape:label="Layer 1"
     inkscape:groupmode="layer"
     id="layer1"
     transform="translate(-51.07052,-123.98687)">
    <path
       inkscape:connector-curvature="0"
       style="display:inline;fill:#ffffff;fill-opacity:0.9188406;fill-rule:evenodd;stroke:none;stroke-width:1.58044446;stroke-linecap:butt;stroke-linejoin:miter;stroke-miterlimit:4;stroke-dasharray:6.32177794, 1.58044448;stroke-dashoffset:0;stroke-opacity:0.5739645"
       d="m 60.41264,123.98687 c -1.37865,0 -2.78723,0.5762 -3.50607,1.6953 0.01,-0.032 -0.0681,-0.1568 -1.96608,-0.1232 -2.27544,0.04 -4.225181,1.9967 -3.815111,3.0589 1.357631,1.8905 3.000901,0.3973 4.750511,0.7268 0.71984,0.5128 0.99526,2.2915 0.76635,2.526 -0.26865,0.2753 -1.57528,0.4203 -2.03926,0.4993 -0.40643,0.1003 -0.65989,0.369 -1.69525,4.7986 a 6.6047816,2.0289027 0 0 1 1.46761,-0.2508 c -0.0192,-0.6983 -0.059,-3.2873 0.40113,-3.5442 1.06454,-0.5431 2.17743,-0.2354 2.60669,-0.3993 0.76967,-0.9642 0.54477,-3.6088 0.30556,-4.719 -0.0756,-0.3438 0.12107,-0.6864 0.3385,-0.91 0.66717,-0.6863 1.76679,-1.1786 2.09135,0.1735 0.0944,1.2604 -1.11044,0.8272 -1.33856,1.0362 -0.56924,0.7353 -0.0192,7.1435 0.0874,8.3233 a 6.6047816,2.0289027 0 0 1 2.11495,0.3562 c -1.49318,-3.9564 -0.23244,-7.1651 -0.23244,-7.1651 0,0 3.01461,0.1353 3.22067,-2.0576 0.54524,-2.7183 -1.47197,-4.0273 -3.55793,-4.0249 z m -3.50607,1.6954 c 0,0 -0.005,0.01 -0.005,0.01 0,0 0.004,0 0.005,-0.01 z m 0.45082,3.6865 c -0.0257,0.5278 -0.11069,1.0655 -0.11069,1.0655 0,0 -0.15367,-0.4731 -0.56577,-1.0572 0,0 0.55629,0.1249 0.67646,-0.01 z m 1.9177,0.3425 c 0,0 0.24135,0.1981 0.53289,0.14 -0.10307,0.1948 -0.37101,0.8968 -0.41625,1.3434 -0.19423,-0.9203 -0.16222,-1.117 -0.11664,-1.4834 z m -0.98992,5.4045 c 0,0 -0.27876,0.1432 -0.52344,0.1124 0,0 0.0671,0.9565 -0.04,1.5691 a 6.6047816,2.0289027 0 0 1 0.64471,0.038 c -0.10141,-0.9945 -0.0811,-1.7193 -0.0811,-1.7193 z m -3.26918,0.037 c -0.12426,0.4012 -0.0663,1.2926 -0.0312,1.7013 a 6.6047816,2.0289027 0 0 1 0.30499,-0.023 c -0.097,-1.1234 -0.0223,-1.5857 -0.0223,-1.5857 l -0.25205,-0.093 z m 2.35133,0.1163 c 0,0 -0.93116,0.1496 -1.65419,0.03 -0.0785,0.6282 -0.0152,1.2439 0.0192,1.5039 a 6.6047816,2.0289027 0 0 1 1.07081,-0.028 6.6047816,2.0289027 0 0 1 0.47789,0.01 c 0.0881,-0.9678 0.0862,-1.5131 0.0862,-1.5131 z"
       id="path4196-9-2-5-3-8-7-1-4-6-8-3-6"
       inkscape:export-xdpi="96.3367"
       inkscape:export-ydpi="96.3367"
       inkscape:export-filename="C:\Users\Wessel\Documents\Unity Games\Experiments\Assets\MainMenu\logo.png" />
  </g>
</svg>
