<?xml version="1.0" encoding="UTF-8" standalone="no"?>
<!-- Created with Inkscape (http://www.inkscape.org/) -->

<svg
   xmlns:dc="http://purl.org/dc/elements/1.1/"
   xmlns:cc="http://creativecommons.org/ns#"
   xmlns:rdf="http://www.w3.org/1999/02/22-rdf-syntax-ns#"
   xmlns:svg="http://www.w3.org/2000/svg"
   xmlns="http://www.w3.org/2000/svg"
   xmlns:sodipodi="http://sodipodi.sourceforge.net/DTD/sodipodi-0.dtd"
   xmlns:inkscape="http://www.inkscape.org/namespaces/inkscape"
   width="39.854847mm"
   height="40.644062mm"
   viewBox="0 0 141.21796 144.01439"
   id="svg2"
   version="1.1"
   inkscape:version="0.91 r13725"
   sodipodi:docname="logo.svg">
  <defs
     id="defs4" />
  <sodipodi:namedview
     id="base"
     pagecolor="#ffffff"
     bordercolor="#666666"
     borderopacity="1.0"
     inkscape:pageopacity="0.0"
     inkscape:pageshadow="2"
     inkscape:zoom="0.35"
     inkscape:cx="57.037557"
     inkscape:cy="197.72149"
     inkscape:document-units="px"
     inkscape:current-layer="layer1"
     showgrid="false"
     fit-margin-top="0"
     fit-margin-left="0"
     fit-margin-right="0"
     fit-margin-bottom="0"
     inkscape:window-width="1920"
     inkscape:window-height="1018"
     inkscape:window-x="-8"
     inkscape:window-y="-8"
     inkscape:window-maximized="1" />
  <metadata
     id="metadata7">
    <rdf:RDF>
      <cc:Work
         rdf:about="">
        <dc:format>image/svg+xml</dc:format>
        <dc:type
           rdf:resource="http://purl.org/dc/dcmitype/StillImage" />
        <dc:title></dc:title>
      </cc:Work>
    </rdf:RDF>
  </metadata>
  <g
     inkscape:label="Laag 1"
     inkscape:groupmode="layer"
     id="layer1"
     transform="translate(162.03756,-586.06929)">
    <path
       inkscape:connector-curvature="0"
       style="display:inline;fill:#ffffff;fill-opacity:1;fill-rule:evenodd;stroke:none;stroke-width:5.5999999;stroke-linecap:butt;stroke-linejoin:miter;stroke-miterlimit:4;stroke-dasharray:22.39999962, 5.5999999;stroke-dashoffset:0;stroke-opacity:0.5739645"
       d="m -60.479453,586.06933 c -14.987103,0.017 -30.299803,6.2634 -38.114503,18.42969 0.1104,-0.3463 -0.7406,-1.7045 -21.373004,-1.3398 -24.7367,0.4373 -45.9318,21.706 -41.4743,33.2533 14.7589,20.55122 32.6228,4.3196 51.6427,7.9009 7.8256,5.5755 10.819504,24.91124 8.3314,27.46038 -2.9208,2.99255 -17.1251,4.56967 -22.1688,5.42792 -4.4183,1.09061 -7.1736,4.01103 -18.4292,52.16557 a 71.800649,22.05622 0 0 1 15.9539,-2.72692 c -0.2098,-7.59083 -0.6408,-35.73548 4.3611,-38.52822 11.5728,-5.90421 23.670404,-2.55915 28.337204,-4.34158 8.3675,-10.48153 5.9221,-39.23065 3.3215,-51.29995 -0.822,-3.7378 1.3167,-7.4618 3.68,-9.8927 7.253,-7.4605 19.207,-12.8122 22.7353,1.8861 1.0266,13.7024 -12.0719,8.9929 -14.5515,11.2647 -6.1882,7.994 -0.2077,77.65751 0.95,90.48323 a 71.800649,22.05622 0 0 1 22.991703,3.87174 c -16.232403,-43.01015 -2.5268,-77.89187 -2.5268,-77.89187 0,0 32.7718,1.47113 35.0118,-22.3686 5.9272,-29.5498 -16.0018,-43.78039 -38.6785,-43.75389 z m -38.114503,18.43019 c -0.022,0.049 -0.052,0.078 -0.052,0.078 0.022,-0.026 0.037,-0.052 0.052,-0.078 z m 4.9008,40.0762 c -0.2802,5.7371 -1.2031,11.58348 -1.2031,11.58348 0,0 -1.6707,-5.14358 -6.150304,-11.49338 0,0 6.046904,1.3581 7.353404,-0.09 z m 20.8471,3.7235 c 0,0 2.6241,2.1534 5.7937,1.5216 -1.1209,2.1182 -4.0335,9.74906 -4.5253,14.60426 -2.1116,-10.00404 -1.7635,-12.14346 -1.2684,-16.12586 z m -10.7611,58.75251 c 0,0 -3.0304,1.55601 -5.6903,1.22178 0,0 0.7298,10.39776 -0.4362,17.05674 a 71.800649,22.05622 0 0 1 7.0088,0.4129 c -1.1027,-10.81103 -0.8823,-18.69142 -0.8823,-18.69142 z m -35.539204,0.40449 c -1.3511,4.36086 -0.7211,14.05147 -0.3371,18.49453 a 71.800649,22.05622 0 0 1 3.3157,-0.24712 c -1.055,-12.21223 -0.2385,-17.23708 -0.2385,-17.23708 l -2.7401,-1.01033 z m 25.561604,1.26426 c 0,0 -10.123004,1.62552 -17.982904,0.3207 -0.8531,6.82891 -0.1688,13.52176 0.2098,16.34855 a 71.800649,22.05622 0 0 1 11.641004,-0.30016 71.800649,22.05622 0 0 1 5.1953,0.0804 c 0.9576,-10.52162 0.9366,-16.44909 0.9366,-16.44909 z"
       id="path4196-9-2-5-3-8-5"
       inkscape:export-xdpi="96.3367"
       inkscape:export-ydpi="96.3367"
       inkscape:export-filename="C:\Users\Wessel\Documents\Unity Games\Experiments\Assets\MainMenu\logo.png" />
  </g>
</svg>
