<?xml version="1.0" encoding="UTF-8" standalone="no"?>
<!-- Created with Inkscape (http://www.inkscape.org/) -->

<svg
   xmlns:dc="http://purl.org/dc/elements/1.1/"
   xmlns:cc="http://creativecommons.org/ns#"
   xmlns:rdf="http://www.w3.org/1999/02/22-rdf-syntax-ns#"
   xmlns:svg="http://www.w3.org/2000/svg"
   xmlns="http://www.w3.org/2000/svg"
   xmlns:sodipodi="http://sodipodi.sourceforge.net/DTD/sodipodi-0.dtd"
   xmlns:inkscape="http://www.inkscape.org/namespaces/inkscape"
   width="61.581821mm"
   height="61.648178mm"
   viewBox="0 0 61.581817 61.648176"
   version="1.1"
   id="svg8"
   inkscape:version="0.92.2 (5c3e80d, 2017-08-06)"
   sodipodi:docname="steam_orange.svg">
  <defs
     id="defs2" />
  <sodipodi:namedview
     id="base"
     pagecolor="#ffffff"
     bordercolor="#666666"
     borderopacity="1.0"
     inkscape:pageopacity="0.0"
     inkscape:pageshadow="2"
     inkscape:zoom="0.98994949"
     inkscape:cx="-186.81003"
     inkscape:cy="295.6869"
     inkscape:document-units="mm"
     inkscape:current-layer="layer1"
     showgrid="false"
     fit-margin-top="0"
     fit-margin-left="0"
     fit-margin-right="0"
     fit-margin-bottom="0"
     inkscape:window-width="1920"
     inkscape:window-height="1001"
     inkscape:window-x="-9"
     inkscape:window-y="-9"
     inkscape:window-maximized="1" />
  <metadata
     id="metadata5">
    <rdf:RDF>
      <cc:Work
         rdf:about="">
        <dc:format>image/svg+xml</dc:format>
        <dc:type
           rdf:resource="http://purl.org/dc/dcmitype/StillImage" />
        <dc:title></dc:title>
      </cc:Work>
    </rdf:RDF>
  </metadata>
  <g
     inkscape:label="Layer 1"
     inkscape:groupmode="layer"
     id="layer1"
     transform="translate(-27.495887,-166.8133)">
    <text
       xml:space="preserve"
       style="font-style:normal;font-weight:normal;font-size:12px;line-height:0%;font-family:sans-serif;letter-spacing:0px;word-spacing:0px;display:inline;fill:#000000;fill-opacity:0.91915804;stroke:none;stroke-width:0.28222224px;stroke-linecap:butt;stroke-linejoin:miter;stroke-opacity:1"
       x="102.75169"
       y="115.59266"
       id="text15602"><tspan
         sodipodi:role="line"
         id="tspan15604"
         x="102.75169"
         y="115.59266"
         style="font-size:11.28888893px;line-height:1.25;fill:#000000;fill-opacity:0.91915804;stroke-width:0.28222224px"> </tspan></text>
    <g
       transform="matrix(0.05748338,0,0,0.05748338,94.675468,108.19556)"
       id="Logo__x2014__FIXED"
       style="display:inline;fill:#eda342;fill-opacity:1">
      <g
         id="g10"
         style="fill:#eda342;fill-opacity:1">
        <path
           inkscape:connector-curvature="0"
           class="st1"
           d="m 153.6,301.6 c 94.3,0 145.9,-78.2 145.9,-145.9 0,-2.2 0,-4.4 -0.1,-6.6 10,-7.2 18.7,-16.3 25.6,-26.6 -9.2,4.1 -19.1,6.8 -29.5,8.1 10.6,-6.3 18.7,-16.4 22.6,-28.4 -9.9,5.9 -20.9,10.1 -32.6,12.4 -9.4,-10 -22.7,-16.2 -37.4,-16.2 -28.3,0 -51.3,23 -51.3,51.3 0,4 0.5,7.9 1.3,11.7 -42.6,-2.1 -80.4,-22.6 -105.7,-53.6 -4.4,7.6 -6.9,16.4 -6.9,25.8 0,17.8 9.1,33.5 22.8,42.7 -8.4,-0.3 -16.3,-2.6 -23.2,-6.4 0,0.2 0,0.4 0,0.7 0,24.8 17.7,45.6 41.1,50.3 -4.3,1.2 -8.8,1.8 -13.5,1.8 -3.3,0 -6.5,-0.3 -9.6,-0.9 6.5,20.4 25.5,35.2 47.9,35.6 -17.6,13.8 -39.7,22 -63.7,22 -4.1,0 -8.2,-0.2 -12.2,-0.7 22.6,14.4 49.6,22.9 78.5,22.9"
           id="path12"
           style="fill:#eda342;fill-opacity:1" />
      </g>
    </g>
    <path
       inkscape:connector-curvature="0"
       style="display:inline;fill:#ffffff;fill-opacity:0.9188406;fill-rule:evenodd;stroke:none;stroke-width:1.58044446;stroke-linecap:butt;stroke-linejoin:miter;stroke-miterlimit:4;stroke-dasharray:6.32177794, 1.58044448;stroke-dashoffset:0;stroke-opacity:0.5739645"
       d="m 60.41264,123.98687 c -1.37865,0 -2.78723,0.5762 -3.50607,1.6953 0.01,-0.032 -0.0681,-0.1568 -1.96608,-0.1232 -2.27544,0.04 -4.225181,1.9967 -3.815111,3.0589 1.357631,1.8905 3.000901,0.3973 4.750511,0.7268 0.71984,0.5128 0.99526,2.2915 0.76635,2.526 -0.26865,0.2753 -1.57528,0.4203 -2.03926,0.4993 -0.40643,0.1003 -0.65989,0.369 -1.69525,4.7986 a 6.6047816,2.0289027 0 0 1 1.46761,-0.2508 c -0.0192,-0.6983 -0.059,-3.2873 0.40113,-3.5442 1.06454,-0.5431 2.17743,-0.2354 2.60669,-0.3993 0.76967,-0.9642 0.54477,-3.6088 0.30556,-4.719 -0.0756,-0.3438 0.12107,-0.6864 0.3385,-0.91 0.66717,-0.6863 1.76679,-1.1786 2.09135,0.1735 0.0944,1.2604 -1.11044,0.8272 -1.33856,1.0362 -0.56924,0.7353 -0.0192,7.1435 0.0874,8.3233 a 6.6047816,2.0289027 0 0 1 2.11495,0.3562 c -1.49318,-3.9564 -0.23244,-7.1651 -0.23244,-7.1651 0,0 3.01461,0.1353 3.22067,-2.0576 0.54524,-2.7183 -1.47197,-4.0273 -3.55793,-4.0249 z m -3.50607,1.6954 c 0,0 -0.005,0.01 -0.005,0.01 0,0 0.004,0 0.005,-0.01 z m 0.45082,3.6865 c -0.0257,0.5278 -0.11069,1.0655 -0.11069,1.0655 0,0 -0.15367,-0.4731 -0.56577,-1.0572 0,0 0.55629,0.1249 0.67646,-0.01 z m 1.9177,0.3425 c 0,0 0.24135,0.1981 0.53289,0.14 -0.10307,0.1948 -0.37101,0.8968 -0.41625,1.3434 -0.19423,-0.9203 -0.16222,-1.117 -0.11664,-1.4834 z m -0.98992,5.4045 c 0,0 -0.27876,0.1432 -0.52344,0.1124 0,0 0.0671,0.9565 -0.04,1.5691 a 6.6047816,2.0289027 0 0 1 0.64471,0.038 c -0.10141,-0.9945 -0.0811,-1.7193 -0.0811,-1.7193 z m -3.26918,0.037 c -0.12426,0.4012 -0.0663,1.2926 -0.0312,1.7013 a 6.6047816,2.0289027 0 0 1 0.30499,-0.023 c -0.097,-1.1234 -0.0223,-1.5857 -0.0223,-1.5857 l -0.25205,-0.093 z m 2.35133,0.1163 c 0,0 -0.93116,0.1496 -1.65419,0.03 -0.0785,0.6282 -0.0152,1.2439 0.0192,1.5039 a 6.6047816,2.0289027 0 0 1 1.07081,-0.028 6.6047816,2.0289027 0 0 1 0.47789,0.01 c 0.0881,-0.9678 0.0862,-1.5131 0.0862,-1.5131 z"
       id="path4196-9-2-5-3-8-7-1-4-6-8-3-6"
       inkscape:export-xdpi="96.3367"
       inkscape:export-ydpi="96.3367"
       inkscape:export-filename="C:\Users\Wessel\Documents\Unity Games\Experiments\Assets\MainMenu\logo.png" />
    <path
       inkscape:connector-curvature="0"
       style="fill:#eda342;fill-opacity:1;stroke:none;stroke-width:0.26458332;stroke-opacity:1"
       d="m 58.253699,166.8133 c -16.335639,0 -29.702125,12.70761 -30.757812,28.77602 0.0046,0.008 0.0088,0.015 0.01344,0.0227 2e-6,-4e-5 0,-0.004 0,-0.004 l 16.562297,6.81819 c 0.450585,-0.29633 0.930824,-0.55269 1.443322,-0.76171 1.162579,-0.47889 2.388787,-0.69325 3.610633,-0.63768 l 7.542694,-10.95696 c -0.0026,-0.0487 -0.0026,-0.10059 -0.0026,-0.15244 6.1e-5,-6.46642 5.25204,-11.72694 11.707873,-11.72694 6.458479,0 11.707811,5.26052 11.707811,11.72694 0,6.46588 -5.249332,11.73106 -11.707811,11.73106 -0.08731,0 -0.177271,-0.003 -0.264583,-0.005 l -10.792106,7.7122 c 0.03175,1.19062 -0.187917,2.38404 -0.658876,3.52175 -1.80975,4.35239 -6.826035,6.42412 -11.176578,4.60643 -2.659063,-1.1086 -4.461401,-3.41314 -5.049305,-6.04045 L 28.76356,206.6287 c 3.848077,12.63779 15.594381,21.83278 29.490189,21.83278 17.023292,0 30.823958,-13.80067 30.823958,-30.82396 0,-17.02356 -13.800666,-30.82396 -30.823958,-30.82396 z m 10.119797,15.29106 c -4.299479,0 -7.800041,3.50686 -7.800041,7.81296 0,4.30953 3.500562,7.81502 7.800041,7.81502 4.302125,0 7.802623,-3.50549 7.802623,-7.81502 0,-4.3061 -3.500498,-7.81296 -7.802623,-7.81296 z m 0.01344,1.92959 c 3.235854,0 5.860108,2.62954 5.860108,5.87148 0,3.2422 -2.624254,5.86941 -5.860108,5.86941 -3.233208,0 -5.858039,-2.62721 -5.858039,-5.86941 0,-3.24194 2.624831,-5.87148 5.858039,-5.87148 z m -19.548167,18.9451 c -0.823945,-0.007 -1.636088,0.1431 -2.396236,0.4315 l 3.940328,1.63246 c 2.475971,1.03187 3.647762,3.8786 2.614828,6.35775 -1.029759,2.4765 -3.87219,3.65135 -6.349484,2.61948 l -3.811137,-1.57975 c 0.674953,1.41023 1.844961,2.59298 3.394625,3.23856 3.35915,1.39965 7.223576,-0.19558 8.624282,-3.55844 0.677333,-1.62454 0.67973,-3.4236 0.01035,-5.05344 -0.669396,-1.62983 -1.932526,-2.90539 -3.560507,-3.58272 -0.807376,-0.33602 -1.643087,-0.49879 -2.467033,-0.5054 z"
       id="path4155"
       inkscape:export-filename="C:\Users\Wessel\Desktop\thesapling-website\static\png\steam_logo.png"
       inkscape:export-xdpi="309.39914"
       inkscape:export-ydpi="309.39914" />
  </g>
</svg>
