<?xml version="1.0" encoding="UTF-8" standalone="no"?>
<!-- Created with Inkscape (http://www.inkscape.org/) -->

<svg
   xmlns:dc="http://purl.org/dc/elements/1.1/"
   xmlns:cc="http://creativecommons.org/ns#"
   xmlns:rdf="http://www.w3.org/1999/02/22-rdf-syntax-ns#"
   xmlns:svg="http://www.w3.org/2000/svg"
   xmlns="http://www.w3.org/2000/svg"
   xmlns:sodipodi="http://sodipodi.sourceforge.net/DTD/sodipodi-0.dtd"
   xmlns:inkscape="http://www.inkscape.org/namespaces/inkscape"
   width="15.97073mm"
   height="13.99207mm"
   viewBox="0 0 15.970731 13.99207"
   version="1.1"
   id="svg8"
   inkscape:version="0.92.2 (5c3e80d, 2017-08-06)"
   sodipodi:docname="plant_model_4.svg">
  <defs
     id="defs2" />
  <sodipodi:namedview
     id="base"
     pagecolor="#ffffff"
     bordercolor="#666666"
     borderopacity="1.0"
     inkscape:pageopacity="0.0"
     inkscape:pageshadow="2"
     inkscape:zoom="0.49497475"
     inkscape:cx="-630.29349"
     inkscape:cy="204.57313"
     inkscape:document-units="mm"
     inkscape:current-layer="layer1"
     showgrid="false"
     fit-margin-top="0"
     fit-margin-left="0"
     fit-margin-right="0"
     fit-margin-bottom="0"
     inkscape:window-width="1920"
     inkscape:window-height="1001"
     inkscape:window-x="-9"
     inkscape:window-y="-9"
     inkscape:window-maximized="1"
     showguides="true"
     inkscape:guide-bbox="true" />
  <metadata
     id="metadata5">
    <rdf:RDF>
      <cc:Work
         rdf:about="">
        <dc:format>image/svg+xml</dc:format>
        <dc:type
           rdf:resource="http://purl.org/dc/dcmitype/StillImage" />
        <dc:title />
      </cc:Work>
    </rdf:RDF>
  </metadata>
  <g
     inkscape:label="Layer 1"
     inkscape:groupmode="layer"
     id="layer1"
     transform="translate(-107.04491,-177.25065)">
    <path
       style="display:inline;fill:#000000;fill-opacity:0.16231887;stroke:none;stroke-width:0.2308964px;stroke-linecap:butt;stroke-linejoin:miter;stroke-opacity:1"
       d="m 114.31035,184.99771 c -5.46947,-0.97962 -7.26544,-4.89805 -7.26544,-4.89805 0,0 4.97969,-0.97963 8.16341,3.34698 0.0817,-4.57152 5.18378,-5.71438 5.18378,-5.71438 0,0 -0.44896,4.40826 -3.22453,6.53074 4.57152,0 5.26539,4.20418 5.26539,4.20418 0,0 -4.04089,1.10205 -6.08175,-2.81638 -0.81633,4.24496 -4.73479,5.59192 -4.73479,5.59192 0.20411,-2.24494 0,-3.95927 2.69393,-6.24501 z"
       id="path2505-4-8-9-5-8-41"
       inkscape:connector-curvature="0"
       sodipodi:nodetypes="ccccccccc" />
    <path
       style="display:inline;fill:#618035;fill-opacity:1;stroke:none;stroke-width:0.2308964px;stroke-linecap:butt;stroke-linejoin:miter;stroke-opacity:1"
       d="m 114.89302,184.5161 c -5.46946,-0.97963 -7.26544,-4.89806 -7.26544,-4.89806 0,0 4.9797,-0.97962 8.16342,3.34699 0.0817,-4.57152 5.18378,-5.71438 5.18378,-5.71438 0,0 -0.44896,4.40826 -3.22454,6.53074 4.57153,0 5.2654,4.20418 5.2654,4.20418 0,0 -4.04089,1.10205 -6.08175,-2.81638 -0.81633,4.24496 -4.73479,5.59192 -4.73479,5.59192 0.2041,-2.24494 0,-3.95927 2.69392,-6.24501 z"
       id="path2505-47-9-6-8-3"
       inkscape:connector-curvature="0"
       sodipodi:nodetypes="ccccccccc" />
    <path
       style="display:inline;fill:#000000;fill-opacity:0.15652173;stroke:none;stroke-width:0.19936253px;stroke-linecap:butt;stroke-linejoin:miter;stroke-opacity:1"
       d="m 114.35232,184.82981 c -4.18595,-2.3443 -4.54443,-6.04875 -4.54443,-6.04875 0,0 4.33973,0.60742 5.71522,5.03687 1.35795,-3.7069 5.8437,-3.19811 5.8437,-3.19811 0,0 -1.61157,3.46992 -4.47574,4.41765 3.72997,1.29134 3.10854,4.91761 3.10854,4.91761 0,0 -3.60835,-0.24229 -4.16664,-4.01591 -1.86521,3.23294 -5.4428,3.2251 -5.4428,3.2251 0.80069,-1.77405 1.11842,-3.23043 3.96215,-4.33446 z"
       id="path2505-3-2-8-4-7-9-7"
       inkscape:connector-curvature="0"
       sodipodi:nodetypes="ccccccccc" />
    <path
       style="display:inline;fill:#65a331;fill-opacity:1;stroke:none;stroke-width:0.19936253px;stroke-linecap:butt;stroke-linejoin:miter;stroke-opacity:1"
       d="m 114.94905,184.36847 c -4.18595,-2.34428 -4.54443,-6.04873 -4.54443,-6.04873 0,0 4.33973,0.60737 5.71522,5.03682 1.35795,-3.70688 5.8437,-3.19809 5.8437,-3.19809 0,0 -1.61157,3.46992 -4.47574,4.41765 3.72997,1.29134 3.10854,4.91761 3.10854,4.91761 0,0 -3.60835,-0.24228 -4.16664,-4.01591 -1.86521,3.23294 -5.4428,3.2251 -5.4428,3.2251 0.80069,-1.77405 1.11842,-3.23043 3.96215,-4.33445 z"
       id="path2505-3-6-3-1-4-8"
       inkscape:connector-curvature="0"
       sodipodi:nodetypes="ccccccccc" />
  </g>
</svg>
