<?xml version="1.0" encoding="UTF-8" standalone="no"?>
<!-- Created with Inkscape (http://www.inkscape.org/) -->

<svg
   xmlns:dc="http://purl.org/dc/elements/1.1/"
   xmlns:cc="http://creativecommons.org/ns#"
   xmlns:rdf="http://www.w3.org/1999/02/22-rdf-syntax-ns#"
   xmlns:svg="http://www.w3.org/2000/svg"
   xmlns="http://www.w3.org/2000/svg"
   xmlns:sodipodi="http://sodipodi.sourceforge.net/DTD/sodipodi-0.dtd"
   xmlns:inkscape="http://www.inkscape.org/namespaces/inkscape"
   width="15mm"
   height="15mm"
   viewBox="0 0 15 15"
   version="1.1"
   id="svg8"
   inkscape:version="0.92.2 (5c3e80d, 2017-08-06)"
   sodipodi:docname="devlog_orange.svg">
  <defs
     id="defs2" />
  <sodipodi:namedview
     id="base"
     pagecolor="#ffffff"
     bordercolor="#666666"
     borderopacity="1.0"
     inkscape:pageopacity="0.0"
     inkscape:pageshadow="2"
     inkscape:zoom="2.8"
     inkscape:cx="-47.207213"
     inkscape:cy="62.675629"
     inkscape:document-units="mm"
     inkscape:current-layer="layer1"
     showgrid="false"
     fit-margin-top="0"
     fit-margin-left="0"
     fit-margin-right="0"
     fit-margin-bottom="0"
     inkscape:window-width="1920"
     inkscape:window-height="1001"
     inkscape:window-x="-9"
     inkscape:window-y="-9"
     inkscape:window-maximized="1" />
  <metadata
     id="metadata5">
    <rdf:RDF>
      <cc:Work
         rdf:about="">
        <dc:format>image/svg+xml</dc:format>
        <dc:type
           rdf:resource="http://purl.org/dc/dcmitype/StillImage" />
        <dc:title></dc:title>
      </cc:Work>
    </rdf:RDF>
  </metadata>
  <g
     inkscape:label="Layer 1"
     inkscape:groupmode="layer"
     id="layer1"
     transform="translate(-96.727351,-137.24732)">
    <path
       inkscape:connector-curvature="0"
       style="display:inline;opacity:1;fill:#eda341;fill-opacity:1;fill-rule:nonzero;stroke:none;stroke-width:0.77758342;stroke-linecap:round;stroke-linejoin:miter;stroke-miterlimit:4;stroke-dasharray:none;stroke-dashoffset:0;stroke-opacity:1"
       d="m 97.829871,139.91234 0.385408,1.54226 -0.46928,0.11724 c -0.1863,0.0465 -0.298761,0.23419 -0.252179,0.4205 l 0.14007,0.56045 c 0.04655,0.1864 0.233994,0.2988 0.420294,0.25224 l 0.469289,-0.11723 0.182139,0.7288 -0.483388,0.12075 c -0.186301,0.0466 -0.29878,0.23401 -0.252236,0.42032 l 0.140127,0.56063 c 0.04655,0.18641 0.234003,0.2988 0.420303,0.25225 l 0.483389,-0.12076 0.172676,0.69099 -0.48336,0.12076 c -0.186329,0.0465 -0.298808,0.234 -0.252235,0.42041 l 0.140098,0.56054 c 0.04655,0.18641 0.234003,0.29889 0.420322,0.25225 l 0.48337,-0.12076 0.175089,0.70068 -0.483369,0.12076 c -0.186291,0.0465 -0.29878,0.23409 -0.252198,0.4204 l 0.14007,0.56055 c 0.04655,0.18631 0.233994,0.2988 0.420322,0.25224 l 0.48336,-0.12085 0.164448,0.65802 -0.480547,0.12009 c -0.186329,0.0466 -0.298837,0.2341 -0.252254,0.42041 l 0.140098,0.56064 c 0.04655,0.18631 0.234022,0.2987 0.420351,0.25225 l 0.480552,-0.12019 0.39108,1.56487 9.22805,-2.30621 c 0.49687,-0.12418 0.79686,-0.62401 0.67268,-1.1209 l -2.56356,-10.25777 c -0.12416,-0.49689 -0.62407,-0.79701 -1.12094,-0.67284 z m 0.960041,0.59389 1.625548,-0.40625 2.59156,10.36997 -1.62553,0.40625 -0.16697,-0.66809 0.353,-0.0884 c 0.18635,-0.0465 0.29884,-0.234 0.25226,-0.42031 l -0.1401,-0.56064 c -0.0466,-0.18631 -0.234,-0.2988 -0.42036,-0.25224 l -0.35299,0.0883 -0.16444,-0.65802 0.35039,-0.0874 c 0.1863,-0.0466 0.29881,-0.23401 0.25224,-0.42032 l -0.14008,-0.56054 c -0.0466,-0.18631 -0.23402,-0.29889 -0.42035,-0.25234 l -0.35039,0.0874 -0.1751,-0.70059 0.3504,-0.0874 c 0.1863,-0.0465 0.29881,-0.234 0.25223,-0.42031 l -0.14009,-0.56064 c -0.0466,-0.18631 -0.23403,-0.2988 -0.42032,-0.25224 l -0.350401,0.0874 -0.172704,-0.69099 0.350395,-0.0874 c 0.18632,-0.0466 0.29881,-0.23401 0.25226,-0.42032 l -0.14013,-0.56063 c -0.0465,-0.18631 -0.23399,-0.2988 -0.420323,-0.25225 l -0.350397,0.0874 -0.182111,-0.7288 0.364278,-0.0912 c 0.186329,-0.0466 0.298865,-0.23401 0.252292,-0.42032 L 99.7639,141.42487 c -0.04655,-0.18631 -0.234079,-0.29899 -0.420398,-0.25234 l -0.364287,0.0912 z"
       id="rect8821-2" />
  </g>
</svg>
