<?xml version="1.0" encoding="UTF-8" standalone="no"?>
<!-- Created with Inkscape (http://www.inkscape.org/) -->

<svg
   xmlns:dc="http://purl.org/dc/elements/1.1/"
   xmlns:cc="http://creativecommons.org/ns#"
   xmlns:rdf="http://www.w3.org/1999/02/22-rdf-syntax-ns#"
   xmlns:svg="http://www.w3.org/2000/svg"
   xmlns="http://www.w3.org/2000/svg"
   xmlns:sodipodi="http://sodipodi.sourceforge.net/DTD/sodipodi-0.dtd"
   xmlns:inkscape="http://www.inkscape.org/namespaces/inkscape"
   width="13.985359mm"
   height="15.141694mm"
   viewBox="0 0 49.554423 53.651671"
   id="svg4975"
   version="1.1"
   inkscape:version="0.92.2 (5c3e80d, 2017-08-06)"
   sodipodi:docname="devlog_icon.svg"
   inkscape:export-filename="C:\Users\wstoop\Documents\Unity Games\Experiments\Assets\MainMenu\Icons\devlog.png"
   inkscape:export-xdpi="1341.9899"
   inkscape:export-ydpi="1341.9899">
  <defs
     id="defs4977" />
  <sodipodi:namedview
     id="base"
     pagecolor="#ffffff"
     bordercolor="#666666"
     borderopacity="1.0"
     inkscape:pageopacity="0.0"
     inkscape:pageshadow="2"
     inkscape:zoom="0.98994949"
     inkscape:cx="-48.156664"
     inkscape:cy="254.1579"
     inkscape:document-units="px"
     inkscape:current-layer="layer1"
     showgrid="false"
     fit-margin-top="0"
     fit-margin-left="0"
     fit-margin-right="0"
     fit-margin-bottom="0"
     inkscape:window-width="1920"
     inkscape:window-height="1001"
     inkscape:window-x="-9"
     inkscape:window-y="-9"
     inkscape:window-maximized="1" />
  <metadata
     id="metadata4980">
    <rdf:RDF>
      <cc:Work
         rdf:about="">
        <dc:format>image/svg+xml</dc:format>
        <dc:type
           rdf:resource="http://purl.org/dc/dcmitype/StillImage" />
        <dc:title />
      </cc:Work>
    </rdf:RDF>
  </metadata>
  <g
     inkscape:label="Laag 1"
     inkscape:groupmode="layer"
     id="layer1"
     transform="translate(166.02817,-694.11736)">
    <path
       inkscape:connector-curvature="0"
       style="display:inline;opacity:1;fill:#ffffff;fill-opacity:1;fill-rule:nonzero;stroke:none;stroke-width:2.9000001;stroke-linecap:round;stroke-linejoin:miter;stroke-miterlimit:4;stroke-dasharray:none;stroke-dashoffset:0;stroke-opacity:1"
       d="m -164.73566,702.82283 1.4374,5.7518 -1.7502,0.4374 c -0.6948,0.1737 -1.1142,0.8733 -0.9405,1.5682 l 0.5224,2.0903 c 0.1736,0.6949 0.8727,1.1143 1.5675,0.9407 l 1.7502,-0.4374 0.6793,2.718 -1.8028,0.4505 c -0.6948,0.1737 -1.1143,0.8728 -0.9407,1.5677 l 0.5226,2.0909 c 0.1736,0.6949 0.8727,1.1143 1.5675,0.9407 l 1.8028,-0.4506 0.644,2.5772 -1.8027,0.4505 c -0.6949,0.1736 -1.1144,0.8727 -0.9407,1.5676 l 0.5225,2.0908 c 0.1737,0.695 0.8727,1.1145 1.5676,0.9408 l 1.8027,-0.4505 0.653,2.613 -1.8027,0.4505 c -0.6948,0.1736 -1.1143,0.8732 -0.9406,1.568 l 0.5224,2.0904 c 0.1737,0.6949 0.8727,1.1144 1.5676,0.9407 l 1.8027,-0.4505 0.6133,2.4541 -1.7922,0.4479 c -0.6949,0.1737 -1.1145,0.8728 -0.9408,1.5677 l 0.5225,2.0909 c 0.1737,0.6948 0.8728,1.1143 1.5677,0.9407 l 1.7922,-0.4479 1.4586,5.8361 34.416,-8.601 c 1.8531,-0.4631 2.9719,-2.3273 2.5088,-4.1804 l -9.5608,-38.2566 c -0.4631,-1.8529 -2.3275,-2.9723 -4.1806,-2.5092 l -34.416,8.601 z m 3.5805,2.215 6.0625,-1.5151 9.6652,38.6747 -6.0624,1.515 -0.6227,-2.4915 1.3165,-0.3291 c 0.695,-0.1736 1.1145,-0.8727 0.9408,-1.5675 l -0.5225,-2.0909 c -0.1737,-0.6949 -0.8727,-1.1145 -1.5677,-0.9408 l -1.3165,0.329 -0.6133,-2.4541 1.3068,-0.3266 c 0.6948,-0.1736 1.1144,-0.8727 0.9407,-1.5676 l -0.5224,-2.0904 c -0.1737,-0.6948 -0.8728,-1.1148 -1.5677,-0.9412 l -1.3068,0.3266 -0.653,-2.6129 1.3068,-0.3266 c 0.6948,-0.1736 1.1144,-0.8727 0.9407,-1.5676 l -0.5225,-2.0908 c -0.1737,-0.695 -0.8728,-1.1145 -1.5676,-0.9408 l -1.3068,0.3265 -0.6441,-2.5771 1.3068,-0.3266 c 0.6949,-0.1736 1.1144,-0.8726 0.9408,-1.5675 l -0.5226,-2.0909 c -0.1736,-0.6949 -0.8727,-1.1145 -1.5676,-0.9408 l -1.3068,0.3266 -0.6792,-2.718 1.3586,-0.3396 c 0.6949,-0.1737 1.1146,-0.8727 0.9409,-1.5676 l -0.5224,-2.0902 c -0.1737,-0.6949 -0.873,-1.115 -1.5679,-0.9413 l -1.3586,0.3395 -0.706,-2.8248 z"
       id="rect8821-2" />
  </g>
</svg>
