<?xml version="1.0" encoding="UTF-8" standalone="no"?>
<!-- Created with Inkscape (http://www.inkscape.org/) -->

<svg
   xmlns:dc="http://purl.org/dc/elements/1.1/"
   xmlns:cc="http://creativecommons.org/ns#"
   xmlns:rdf="http://www.w3.org/1999/02/22-rdf-syntax-ns#"
   xmlns:svg="http://www.w3.org/2000/svg"
   xmlns="http://www.w3.org/2000/svg"
   xmlns:sodipodi="http://sodipodi.sourceforge.net/DTD/sodipodi-0.dtd"
   xmlns:inkscape="http://www.inkscape.org/namespaces/inkscape"
   width="15mm"
   height="15mm"
   viewBox="0 0 15 15"
   version="1.1"
   id="svg8"
   inkscape:version="0.92.2 (5c3e80d, 2017-08-06)"
   sodipodi:docname="itch_orange.svg">
  <defs
     id="defs2" />
  <sodipodi:namedview
     id="base"
     pagecolor="#ffffff"
     bordercolor="#666666"
     borderopacity="1.0"
     inkscape:pageopacity="0.0"
     inkscape:pageshadow="2"
     inkscape:zoom="3.959798"
     inkscape:cx="76.88346"
     inkscape:cy="47.969971"
     inkscape:document-units="mm"
     inkscape:current-layer="layer1"
     showgrid="false"
     fit-margin-top="0"
     fit-margin-left="0"
     fit-margin-right="0"
     fit-margin-bottom="0"
     inkscape:window-width="1920"
     inkscape:window-height="1001"
     inkscape:window-x="-9"
     inkscape:window-y="-9"
     inkscape:window-maximized="1" />
  <metadata
     id="metadata5">
    <rdf:RDF>
      <cc:Work
         rdf:about="">
        <dc:format>image/svg+xml</dc:format>
        <dc:type
           rdf:resource="http://purl.org/dc/dcmitype/StillImage" />
        <dc:title></dc:title>
      </cc:Work>
    </rdf:RDF>
  </metadata>
  <g
     inkscape:label="Layer 1"
     inkscape:groupmode="layer"
     id="layer1"
     transform="translate(-102.50637,-139.57638)">
    <path
       inkscape:connector-curvature="0"
       d="m 104.70737,140.72305 -1.87228,2.19792 v 0.62682 c 0,0.78964 0.73264,1.48968 1.392,1.48968 0.79777,0 1.45715,-0.66751 1.45715,-1.46526 0,0.79775 0.64307,1.46526 1.4327,1.46526 0.78961,0 1.41641,-0.66751 1.41641,-1.46526 0,0.79775 0.68381,1.46526 1.47341,1.46526 0.79775,0 1.45715,-0.66751 1.45715,-1.46526 0,0.79775 0.64307,1.46526 1.44085,1.46526 0.79773,0 1.40828,-0.66751 1.40828,-1.46526 0,0.79775 0.68377,1.46526 1.48154,1.46526 0.79776,0 1.44897,-0.66751 1.44897,-1.46526 v -0.65124 l -2.03508,-2.19792 c -3.54919,-0.008 -10.5011,0 -10.5011,0 z"
       id="path3"
       style="display:inline;fill:#efa74a;fill-opacity:1;stroke-width:0.21084522" />
    <path
       d="m 105.68424,144.67117 c -0.0733,0.13838 -0.17909,0.25232 -0.29307,0.35817 -0.3012,0.30118 -0.71635,0.48028 -1.16408,0.48028 -0.11396,0 -0.41516,-0.0651 -0.41516,-0.0651 v 8.14039 h 12.53618 v -8.18925 c -0.1872,0.0733 -0.34188,0.11398 -0.55353,0.11398 -0.45587,0 -0.87102,-0.18722 -1.16407,-0.48028 -0.10583,-0.10584 -0.20351,-0.22794 -0.27678,-0.36632 -0.0732,0.13838 -0.17093,0.26048 -0.27675,0.36632 -0.3012,0.30119 -0.70825,0.48028 -1.1641,0.48028 -0.45585,0 -0.87103,-0.18722 -1.16408,-0.48028 -0.1058,-0.10584 -0.20351,-0.22794 -0.27675,-0.36632 -0.0733,0.13838 -0.17094,0.26048 -0.27678,0.36632 -0.30119,0.30119 -0.71637,0.48028 -1.16405,0.48028 -0.4559,0 -0.87105,-0.18722 -1.1641,-0.48028 -0.10583,-0.10584 -0.20351,-0.22794 -0.27676,-0.36632 -0.0733,0.13838 -0.17095,0.26048 -0.2768,0.36632 -0.30119,0.30119 -0.70821,0.48028 -1.16405,0.48028 -0.45587,0 -0.87103,-0.18722 -1.16408,-0.48028 -0.13837,-0.10584 -0.22794,-0.21978 -0.30119,-0.35816 z m 1.80715,1.50594 c 0.5454,0 0.93616,0.35819 1.07453,0.88733 h 3.02007 c 0.13839,-0.53728 0.52099,-0.88733 1.07455,-0.88733 0.871,0 1.82345,0.89546 2.12464,1.97811 l 0.71635,2.60495 c 0.30119,1.09081 -0.17095,1.97811 -1.04195,1.97811 -0.76523,0 -1.5874,-0.6838 -1.98627,-1.59551 h -4.78655 c -0.39073,0.90358 -1.22104,1.59551 -1.98625,1.59551 -0.87104,0 -1.33504,-0.89544 -1.04199,-1.97811 l 0.71637,-2.60495 c 0.29305,-1.09078 1.24548,-1.97811 2.1165,-1.97811 z"
       id="path5"
       inkscape:connector-curvature="0"
       sodipodi:nodetypes="ccsccccsscssscssscsscccsccsccsccsccs"
       style="display:inline;fill:#efa74a;fill-opacity:1;stroke-width:0.21084522" />
    <path
       inkscape:connector-curvature="0"
       d="m 108.99735,148.48087 -1.01753,1.09893 h 1.0094 v 1.13152 h 2.00254 v -1.13152 h 1.07451 l -1.01752,-1.09893 -1.01753,-1.09894 z"
       id="path7"
       style="display:inline;fill:#efa74a;fill-opacity:1;stroke-width:0.21084522" />
  </g>
</svg>
