<?xml version="1.0" encoding="UTF-8" standalone="no"?>
<!-- Created with Inkscape (http://www.inkscape.org/) -->

<svg
   xmlns:dc="http://purl.org/dc/elements/1.1/"
   xmlns:cc="http://creativecommons.org/ns#"
   xmlns:rdf="http://www.w3.org/1999/02/22-rdf-syntax-ns#"
   xmlns:svg="http://www.w3.org/2000/svg"
   xmlns="http://www.w3.org/2000/svg"
   xmlns:sodipodi="http://sodipodi.sourceforge.net/DTD/sodipodi-0.dtd"
   xmlns:inkscape="http://www.inkscape.org/namespaces/inkscape"
   width="28.222223mm"
   height="23.335783mm"
   viewBox="0 0 100 82.685845"
   id="svg2"
   version="1.1"
   inkscape:version="0.91 r13725"
   sodipodi:docname="kartridge_icon.svg">
  <defs
     id="defs4" />
  <sodipodi:namedview
     id="base"
     pagecolor="#ffffff"
     bordercolor="#666666"
     borderopacity="1.0"
     inkscape:pageopacity="0.0"
     inkscape:pageshadow="2"
     inkscape:zoom="5.6"
     inkscape:cx="74.763979"
     inkscape:cy="37.424673"
     inkscape:document-units="px"
     inkscape:current-layer="layer1"
     showgrid="false"
     fit-margin-top="0"
     fit-margin-left="0"
     fit-margin-right="0"
     fit-margin-bottom="0"
     inkscape:window-width="1920"
     inkscape:window-height="1018"
     inkscape:window-x="-8"
     inkscape:window-y="-8"
     inkscape:window-maximized="1" />
  <metadata
     id="metadata7">
    <rdf:RDF>
      <cc:Work
         rdf:about="">
        <dc:format>image/svg+xml</dc:format>
        <dc:type
           rdf:resource="http://purl.org/dc/dcmitype/StillImage" />
        <dc:title></dc:title>
      </cc:Work>
    </rdf:RDF>
  </metadata>
  <g
     inkscape:label="Laag 1"
     inkscape:groupmode="layer"
     id="layer1"
     transform="translate(601.7098,-924.64956)">
    <path
       style="fill:#ffffff;fill-opacity:0.82352941;fill-rule:evenodd;stroke:none;stroke-width:1px;stroke-linecap:butt;stroke-linejoin:miter;stroke-opacity:1"
       d="M 63.625 0.001953125 C 63.04018 -0.011146875 62.496766 0.030154375 61.878906 0.24023438 C 60.655088 0.65634435 59.676327 1.5853535 57.898438 3.4785156 L 45.748047 15.089844 L 45.513672 3.9199219 C 44.705242 0.78719187 42.328946 0.42900563 40.066406 0.47851562 L 22.130859 0.47851562 C 21.810839 0.47851562 21.42956 0.44495312 21 0.43945312 C 19.71124 0.42265313 17.993109 0.65515375 16.224609 2.7773438 L 0.16992188 19.355469 L 0.02734375 75.949219 C -0.47794625 83.663119 6.3945312 82.640625 6.3945312 82.640625 L 24.923828 82.417969 C 26.372258 82.249569 27.109475 82.332606 30.515625 79.378906 L 44.349609 66.048828 L 58.638672 80.421875 A 1.2272863 1.2272863 0 0 0 58.679688 80.460938 C 60.502498 82.131837 62.278586 82.386719 63.509766 82.386719 L 95.267578 82.386719 C 96.630928 82.404719 98.209285 81.88945 99.265625 80.53125 C 99.793795 79.85225 100.10781 78.868881 99.912109 77.863281 C 99.716929 76.860181 99.101491 75.901313 98.087891 74.939453 L 65.419922 41.339844 L 96.759766 9.6601562 L 96.765625 9.65625 C 97.216955 9.20519 99.002211 7.5230869 99.744141 5.4355469 C 100.11561 4.3903569 100.178 3.0013544 99.296875 1.9589844 C 98.415755 0.91660438 96.964356 0.42918313 94.847656 0.28320312 A 1.2272863 1.2272863 0 0 0 94.769531 0.28125 L 65.621094 0.08984375 L 65.613281 0.08984375 C 64.833421 0.08184375 64.20809 0.015053125 63.625 0.001953125 z M 63.654297 2.4882812 C 64.108389 2.5018063 64.721235 2.5360719 65.59375 2.5449219 A 1.2272863 1.2272863 0 0 0 65.597656 2.5449219 L 94.683594 2.734375 C 96.466634 2.858925 97.221685 3.3061488 97.421875 3.5429688 C 97.622455 3.7802588 97.644391 4.0140013 97.431641 4.6132812 C 97.005661 5.8118513 95.454844 7.4982713 95.027344 7.9257812 A 1.2272863 1.2272863 0 0 0 95.021484 7.9296875 L 62.830078 40.470703 A 1.2272863 1.2272863 0 0 0 62.820312 42.189453 L 96.357422 76.679688 A 1.2272863 1.2272863 0 0 0 96.394531 76.714844 C 97.174591 77.453644 97.442056 78.014231 97.503906 78.332031 C 97.565706 78.649931 97.508905 78.791437 97.328125 79.023438 C 96.967235 79.487438 95.771511 79.937841 95.300781 79.931641 A 1.2272863 1.2272863 0 0 0 95.285156 79.931641 L 63.509766 79.931641 C 62.452126 79.931641 61.7499 79.94265 60.34375 78.65625 L 46.117188 64.345703 L 46.140625 64.324219 L 42.998047 61.207031 L 41.560547 59.761719 L 41.550781 59.771484 L 23.083984 41.458984 L 45.818359 18.5 L 45.816406 18.417969 L 59.59375 5.2539062 A 1.2272863 1.2272863 0 0 0 59.640625 5.2050781 C 61.400245 3.3292481 62.194169 2.7236 62.667969 2.5625 C 62.904874 2.48195 63.200204 2.4747562 63.654297 2.4882812 z M 45.773438 25.376953 L 33.175781 37.976562 C 32.508841 38.643502 29.134666 41.119291 33.041016 44.644531 L 45.841797 57.714844 L 45.773438 25.376953 z "
       transform="translate(-601.7098,924.64956)"
       id="path4255" />
  </g>
</svg>
