<?xml version="1.0" encoding="UTF-8" standalone="no"?>
<!-- Created with Inkscape (http://www.inkscape.org/) -->

<svg
   xmlns:dc="http://purl.org/dc/elements/1.1/"
   xmlns:cc="http://creativecommons.org/ns#"
   xmlns:rdf="http://www.w3.org/1999/02/22-rdf-syntax-ns#"
   xmlns:svg="http://www.w3.org/2000/svg"
   xmlns="http://www.w3.org/2000/svg"
   xmlns:sodipodi="http://sodipodi.sourceforge.net/DTD/sodipodi-0.dtd"
   xmlns:inkscape="http://www.inkscape.org/namespaces/inkscape"
   width="12.990314mm"
   height="13.247577mm"
   viewBox="0 0 46.028673 46.940232"
   id="svg4975"
   version="1.1"
   inkscape:version="0.91 r13725"
   sodipodi:docname="shadow_logo.svg">
  <defs
     id="defs4977" />
  <sodipodi:namedview
     id="base"
     pagecolor="#ffffff"
     bordercolor="#666666"
     borderopacity="1.0"
     inkscape:pageopacity="0.0"
     inkscape:pageshadow="2"
     inkscape:zoom="0.98994949"
     inkscape:cx="-88.907209"
     inkscape:cy="-63.493081"
     inkscape:document-units="px"
     inkscape:current-layer="layer1"
     showgrid="false"
     fit-margin-top="0"
     fit-margin-left="0"
     fit-margin-right="0"
     fit-margin-bottom="0"
     inkscape:window-width="1920"
     inkscape:window-height="1018"
     inkscape:window-x="-8"
     inkscape:window-y="-8"
     inkscape:window-maximized="1" />
  <metadata
     id="metadata4980">
    <rdf:RDF>
      <cc:Work
         rdf:about="">
        <dc:format>image/svg+xml</dc:format>
        <dc:type
           rdf:resource="http://purl.org/dc/dcmitype/StillImage" />
        <dc:title></dc:title>
      </cc:Work>
    </rdf:RDF>
  </metadata>
  <g
     inkscape:label="Laag 1"
     inkscape:groupmode="layer"
     id="layer1"
     transform="translate(-114.12852,-383.17781)">
    <path
       inkscape:connector-curvature="0"
       style="display:inline;fill:#000000;fill-opacity:0.12416107;fill-rule:evenodd;stroke:none;stroke-width:5.5999999;stroke-linecap:butt;stroke-linejoin:miter;stroke-miterlimit:4;stroke-dasharray:22.39999962, 5.5999999;stroke-dashoffset:0;stroke-opacity:0.5739645"
       d="m 147.2305,383.17782 c -4.885,0.006 -9.876,2.04149 -12.4231,6.00699 0.035,-0.11278 -0.2414,-0.55556 -6.9664,-0.43669 -8.0626,0.14257 -14.9711,7.07489 -13.5181,10.83862 4.8105,6.69847 10.6331,1.40791 16.8325,2.57523 2.5506,1.81727 3.5265,8.11959 2.7154,8.95045 -0.9519,0.9754 -5.5817,1.48943 -7.2257,1.76923 -1.4401,0.3554 -2.3382,1.3074 -6.0068,17.00289 a 23.402769,7.1890249 0 0 1 5.2002,-0.8888 c -0.068,-2.4742 -0.209,-11.64769 1.4213,-12.55789 3.772,-1.9245 7.7153,-0.8342 9.2363,-1.4151 2.7272,-3.41644 1.9303,-12.78696 1.0827,-16.72084 -0.2679,-1.2183 0.429,-2.43211 1.1994,-3.22444 2.364,-2.43167 6.2603,-4.17602 7.4103,0.61475 0.3346,4.46616 -3.9346,2.93116 -4.7429,3.67165 -2.017,2.60557 -0.068,25.31177 0.3096,29.49217 a 23.402769,7.1890249 0 0 1 7.4939,1.262 c -5.2908,-14.01879 -0.8236,-25.38817 -0.8236,-25.38817 0,0 10.6817,0.47948 11.4118,-7.29085 1.932,-9.63149 -5.2156,-14.26985 -12.6068,-14.2612 z m -12.4231,6.00716 c 0,0.016 -0.016,0.0252 -0.016,0.0252 0,-0.009 0.014,-0.017 0.016,-0.0252 z m 1.5974,13.06248 c -0.091,1.86995 -0.3922,3.77553 -0.3922,3.77553 0,0 -0.5445,-1.67649 -2.0047,-3.74616 0,0 1.9711,0.44264 2.3969,-0.0293 z m 6.795,1.21365 c 0,0 0.8552,0.70189 1.8882,0.49594 -0.3652,0.69041 -1.3146,3.17762 -1.4749,4.76013 -0.6882,-3.26073 -0.5748,-3.95806 -0.4133,-5.25607 z m -3.5076,19.14983 c 0,0 -0.9877,0.5072 -1.8547,0.3983 0,0 0.2378,3.389 -0.1416,5.5595 a 23.402769,7.1890249 0 0 1 2.2844,0.1346 c -0.3593,-3.5238 -0.2875,-6.0923 -0.2875,-6.0923 z m -11.5837,0.1319 c -0.4403,1.4213 -0.2351,4.5799 -0.1106,6.0281 a 23.402769,7.1890249 0 0 1 1.0807,-0.081 c -0.3438,-3.9805 -0.079,-5.6183 -0.079,-5.6183 l -0.8931,-0.3293 z m 8.3315,0.412 c 0,0 -3.2994,0.5299 -5.8613,0.1046 -0.278,2.2258 -0.054,4.4073 0.068,5.3286 a 23.402769,7.1890249 0 0 1 3.7942,-0.098 23.402769,7.1890249 0 0 1 1.6933,0.026 c 0.3122,-3.4294 0.3053,-5.3614 0.3053,-5.3614 z"
       id="path4196-9-2-5-3-8-7-1-5-3-8"
       inkscape:export-xdpi="96.3367"
       inkscape:export-ydpi="96.3367"
       inkscape:export-filename="C:\Users\Wessel\Desktop\thesapling-website\static\svg\logo.svg" />
  </g>
</svg>
