<?xml version="1.0" encoding="UTF-8" standalone="no"?>
<!-- Created with Inkscape (http://www.inkscape.org/) -->

<svg
   xmlns:dc="http://purl.org/dc/elements/1.1/"
   xmlns:cc="http://creativecommons.org/ns#"
   xmlns:rdf="http://www.w3.org/1999/02/22-rdf-syntax-ns#"
   xmlns:svg="http://www.w3.org/2000/svg"
   xmlns="http://www.w3.org/2000/svg"
   xmlns:sodipodi="http://sodipodi.sourceforge.net/DTD/sodipodi-0.dtd"
   xmlns:inkscape="http://www.inkscape.org/namespaces/inkscape"
   width="15mm"
   height="15mm"
   viewBox="0 0 14.999999 14.999999"
   version="1.1"
   id="svg8"
   inkscape:version="0.92.2 (5c3e80d, 2017-08-06)"
   sodipodi:docname="steam_orange.svg">
  <defs
     id="defs2" />
  <sodipodi:namedview
     id="base"
     pagecolor="#ffffff"
     bordercolor="#666666"
     borderopacity="1.0"
     inkscape:pageopacity="0.0"
     inkscape:pageshadow="2"
     inkscape:zoom="7.9195959"
     inkscape:cx="26.801946"
     inkscape:cy="37.185765"
     inkscape:document-units="mm"
     inkscape:current-layer="layer1"
     showgrid="false"
     fit-margin-top="0"
     fit-margin-left="0"
     fit-margin-right="0"
     fit-margin-bottom="0"
     inkscape:window-width="1920"
     inkscape:window-height="1001"
     inkscape:window-x="-9"
     inkscape:window-y="-9"
     inkscape:window-maximized="1" />
  <metadata
     id="metadata5">
    <rdf:RDF>
      <cc:Work
         rdf:about="">
        <dc:format>image/svg+xml</dc:format>
        <dc:type
           rdf:resource="http://purl.org/dc/dcmitype/StillImage" />
        <dc:title></dc:title>
      </cc:Work>
    </rdf:RDF>
  </metadata>
  <g
     inkscape:label="Layer 1"
     inkscape:groupmode="layer"
     id="layer1"
     transform="translate(-27.495887,-213.46148)">
    <path
       inkscape:connector-curvature="0"
       style="display:inline;fill:#ffffff;fill-opacity:0.9188406;fill-rule:evenodd;stroke:none;stroke-width:1.58044446;stroke-linecap:butt;stroke-linejoin:miter;stroke-miterlimit:4;stroke-dasharray:6.32177794, 1.58044448;stroke-dashoffset:0;stroke-opacity:0.5739645"
       d="m 60.41264,123.98687 c -1.37865,0 -2.78723,0.5762 -3.50607,1.6953 0.01,-0.032 -0.0681,-0.1568 -1.96608,-0.1232 -2.27544,0.04 -4.225181,1.9967 -3.815111,3.0589 1.357631,1.8905 3.000901,0.3973 4.750511,0.7268 0.71984,0.5128 0.99526,2.2915 0.76635,2.526 -0.26865,0.2753 -1.57528,0.4203 -2.03926,0.4993 -0.40643,0.1003 -0.65989,0.369 -1.69525,4.7986 a 6.6047816,2.0289027 0 0 1 1.46761,-0.2508 c -0.0192,-0.6983 -0.059,-3.2873 0.40113,-3.5442 1.06454,-0.5431 2.17743,-0.2354 2.60669,-0.3993 0.76967,-0.9642 0.54477,-3.6088 0.30556,-4.719 -0.0756,-0.3438 0.12107,-0.6864 0.3385,-0.91 0.66717,-0.6863 1.76679,-1.1786 2.09135,0.1735 0.0944,1.2604 -1.11044,0.8272 -1.33856,1.0362 -0.56924,0.7353 -0.0192,7.1435 0.0874,8.3233 a 6.6047816,2.0289027 0 0 1 2.11495,0.3562 c -1.49318,-3.9564 -0.23244,-7.1651 -0.23244,-7.1651 0,0 3.01461,0.1353 3.22067,-2.0576 0.54524,-2.7183 -1.47197,-4.0273 -3.55793,-4.0249 z m -3.50607,1.6954 c 0,0 -0.005,0.01 -0.005,0.01 0,0 0.004,0 0.005,-0.01 z m 0.45082,3.6865 c -0.0257,0.5278 -0.11069,1.0655 -0.11069,1.0655 0,0 -0.15367,-0.4731 -0.56577,-1.0572 0,0 0.55629,0.1249 0.67646,-0.01 z m 1.9177,0.3425 c 0,0 0.24135,0.1981 0.53289,0.14 -0.10307,0.1948 -0.37101,0.8968 -0.41625,1.3434 -0.19423,-0.9203 -0.16222,-1.117 -0.11664,-1.4834 z m -0.98992,5.4045 c 0,0 -0.27876,0.1432 -0.52344,0.1124 0,0 0.0671,0.9565 -0.04,1.5691 a 6.6047816,2.0289027 0 0 1 0.64471,0.038 c -0.10141,-0.9945 -0.0811,-1.7193 -0.0811,-1.7193 z m -3.26918,0.037 c -0.12426,0.4012 -0.0663,1.2926 -0.0312,1.7013 a 6.6047816,2.0289027 0 0 1 0.30499,-0.023 c -0.097,-1.1234 -0.0223,-1.5857 -0.0223,-1.5857 l -0.25205,-0.093 z m 2.35133,0.1163 c 0,0 -0.93116,0.1496 -1.65419,0.03 -0.0785,0.6282 -0.0152,1.2439 0.0192,1.5039 a 6.6047816,2.0289027 0 0 1 1.07081,-0.028 6.6047816,2.0289027 0 0 1 0.47789,0.01 c 0.0881,-0.9678 0.0862,-1.5131 0.0862,-1.5131 z"
       id="path4196-9-2-5-3-8-7-1-4-6-8-3-6"
       inkscape:export-xdpi="96.3367"
       inkscape:export-ydpi="96.3367"
       inkscape:export-filename="C:\Users\Wessel\Documents\Unity Games\Experiments\Assets\MainMenu\logo.png" />
    <path
       inkscape:connector-curvature="0"
       style="fill:#eda342;fill-opacity:1;stroke:none;stroke-width:0.06405634;stroke-opacity:1"
       d="m 34.942436,213.53629 c -3.954901,0 -7.190964,3.07655 -7.446549,6.96675 0.0012,0.002 0.0021,0.003 0.0033,0.005 1e-6,-1e-5 0,-9.7e-4 0,-9.7e-4 l 4.009778,1.65071 c 0.109088,-0.0718 0.225355,-0.13381 0.349433,-0.18441 0.281462,-0.11594 0.578331,-0.16785 0.874143,-0.15439 l 1.826107,-2.65271 c -6.3e-4,-0.0118 -6.3e-4,-0.0244 -6.3e-4,-0.0368 1.6e-5,-1.56554 1.271534,-2.83912 2.834508,-2.83912 1.563616,0 2.834494,1.27358 2.834494,2.83912 0,1.56541 -1.270878,2.84012 -2.834494,2.84012 -0.02114,0 -0.04292,-7.2e-4 -0.06405,-9.9e-4 l -2.612797,1.86715 c 0.0078,0.28825 -0.0455,0.57717 -0.159516,0.85262 -0.438146,1.05373 -1.652602,1.5553 -2.705881,1.11523 -0.643766,-0.2684 -1.080117,-0.82633 -1.222449,-1.46241 l -2.824986,-1.16566 c 0.93163,3.05965 3.775442,5.28578 7.139655,5.28578 4.121386,0 7.462564,-3.34119 7.462564,-7.46257 0,-4.12144 -3.341178,-7.46256 -7.462564,-7.46256 z m 2.450031,3.70201 c -1.040916,0 -1.888411,0.84902 -1.888411,1.89153 0,1.04335 0.847495,1.89204 1.888411,1.89204 1.041557,0 1.889037,-0.84869 1.889037,-1.89204 0,-1.04251 -0.84748,-1.89153 -1.889037,-1.89153 z m 0.0033,0.46716 c 0.783409,0 1.418748,0.63661 1.418748,1.4215 0,0.78494 -0.635339,1.42099 -1.418748,1.42099 -0.782768,0 -1.418247,-0.63605 -1.418247,-1.42099 0,-0.78489 0.635479,-1.4215 1.418247,-1.4215 z m -4.732664,4.58666 c -0.19948,-0.002 -0.396101,0.0346 -0.580136,0.10446 l 0.953965,0.39523 c 0.59944,0.24981 0.883133,0.93902 0.633057,1.53922 -0.249308,0.59957 -0.937469,0.88401 -1.537227,0.6342 l -0.922688,-0.38247 c 0.163408,0.34142 0.446672,0.62777 0.821849,0.78406 0.813258,0.33886 1.748847,-0.0473 2.087962,-0.8615 0.163984,-0.39331 0.164565,-0.82888 0.0025,-1.22346 -0.162062,-0.39458 -0.46787,-0.70341 -0.862008,-0.86739 -0.195469,-0.0813 -0.397796,-0.12075 -0.597275,-0.12235 z"
       id="path4155"
       inkscape:export-filename="C:\Users\Wessel\Desktop\thesapling-website\static\png\steam_logo.png"
       inkscape:export-xdpi="309.39914"
       inkscape:export-ydpi="309.39914" />
  </g>
</svg>
